%TF.GenerationSoftware,KiCad,Pcbnew,(5.1.6)-1*%
%TF.CreationDate,2021-03-03T00:47:03-05:00*%
%TF.ProjectId,Numpadulator,4e756d70-6164-4756-9c61-746f722e6b69,rev?*%
%TF.SameCoordinates,Original*%
%TF.FileFunction,Paste,Bot*%
%TF.FilePolarity,Positive*%
%FSLAX46Y46*%
G04 Gerber Fmt 4.6, Leading zero omitted, Abs format (unit mm)*
G04 Created by KiCad (PCBNEW (5.1.6)-1) date 2021-03-03 00:47:03*
%MOMM*%
%LPD*%
G01*
G04 APERTURE LIST*
%ADD10R,1.600000X0.850000*%
%ADD11R,2.550000X2.500000*%
%ADD12R,1.800000X0.900000*%
%ADD13R,1.200000X0.900000*%
G04 APERTURE END LIST*
%TO.C,C24*%
G36*
G01*
X130099750Y-121862000D02*
X131012250Y-121862000D01*
G75*
G02*
X131256000Y-122105750I0J-243750D01*
G01*
X131256000Y-122593250D01*
G75*
G02*
X131012250Y-122837000I-243750J0D01*
G01*
X130099750Y-122837000D01*
G75*
G02*
X129856000Y-122593250I0J243750D01*
G01*
X129856000Y-122105750D01*
G75*
G02*
X130099750Y-121862000I243750J0D01*
G01*
G37*
G36*
G01*
X130099750Y-119987000D02*
X131012250Y-119987000D01*
G75*
G02*
X131256000Y-120230750I0J-243750D01*
G01*
X131256000Y-120718250D01*
G75*
G02*
X131012250Y-120962000I-243750J0D01*
G01*
X130099750Y-120962000D01*
G75*
G02*
X129856000Y-120718250I0J243750D01*
G01*
X129856000Y-120230750D01*
G75*
G02*
X130099750Y-119987000I243750J0D01*
G01*
G37*
%TD*%
%TO.C,C23*%
G36*
G01*
X116129750Y-162756000D02*
X117042250Y-162756000D01*
G75*
G02*
X117286000Y-162999750I0J-243750D01*
G01*
X117286000Y-163487250D01*
G75*
G02*
X117042250Y-163731000I-243750J0D01*
G01*
X116129750Y-163731000D01*
G75*
G02*
X115886000Y-163487250I0J243750D01*
G01*
X115886000Y-162999750D01*
G75*
G02*
X116129750Y-162756000I243750J0D01*
G01*
G37*
G36*
G01*
X116129750Y-160881000D02*
X117042250Y-160881000D01*
G75*
G02*
X117286000Y-161124750I0J-243750D01*
G01*
X117286000Y-161612250D01*
G75*
G02*
X117042250Y-161856000I-243750J0D01*
G01*
X116129750Y-161856000D01*
G75*
G02*
X115886000Y-161612250I0J243750D01*
G01*
X115886000Y-161124750D01*
G75*
G02*
X116129750Y-160881000I243750J0D01*
G01*
G37*
%TD*%
%TO.C,C22*%
G36*
G01*
X117296250Y-66352000D02*
X116383750Y-66352000D01*
G75*
G02*
X116140000Y-66108250I0J243750D01*
G01*
X116140000Y-65620750D01*
G75*
G02*
X116383750Y-65377000I243750J0D01*
G01*
X117296250Y-65377000D01*
G75*
G02*
X117540000Y-65620750I0J-243750D01*
G01*
X117540000Y-66108250D01*
G75*
G02*
X117296250Y-66352000I-243750J0D01*
G01*
G37*
G36*
G01*
X117296250Y-68227000D02*
X116383750Y-68227000D01*
G75*
G02*
X116140000Y-67983250I0J243750D01*
G01*
X116140000Y-67495750D01*
G75*
G02*
X116383750Y-67252000I243750J0D01*
G01*
X117296250Y-67252000D01*
G75*
G02*
X117540000Y-67495750I0J-243750D01*
G01*
X117540000Y-67983250D01*
G75*
G02*
X117296250Y-68227000I-243750J0D01*
G01*
G37*
%TD*%
%TO.C,C21*%
G36*
G01*
X60400250Y-66098000D02*
X59487750Y-66098000D01*
G75*
G02*
X59244000Y-65854250I0J243750D01*
G01*
X59244000Y-65366750D01*
G75*
G02*
X59487750Y-65123000I243750J0D01*
G01*
X60400250Y-65123000D01*
G75*
G02*
X60644000Y-65366750I0J-243750D01*
G01*
X60644000Y-65854250D01*
G75*
G02*
X60400250Y-66098000I-243750J0D01*
G01*
G37*
G36*
G01*
X60400250Y-67973000D02*
X59487750Y-67973000D01*
G75*
G02*
X59244000Y-67729250I0J243750D01*
G01*
X59244000Y-67241750D01*
G75*
G02*
X59487750Y-66998000I243750J0D01*
G01*
X60400250Y-66998000D01*
G75*
G02*
X60644000Y-67241750I0J-243750D01*
G01*
X60644000Y-67729250D01*
G75*
G02*
X60400250Y-67973000I-243750J0D01*
G01*
G37*
%TD*%
%TO.C,C20*%
G36*
G01*
X60140000Y-162254250D02*
X60140000Y-161341750D01*
G75*
G02*
X60383750Y-161098000I243750J0D01*
G01*
X60871250Y-161098000D01*
G75*
G02*
X61115000Y-161341750I0J-243750D01*
G01*
X61115000Y-162254250D01*
G75*
G02*
X60871250Y-162498000I-243750J0D01*
G01*
X60383750Y-162498000D01*
G75*
G02*
X60140000Y-162254250I0J243750D01*
G01*
G37*
G36*
G01*
X58265000Y-162254250D02*
X58265000Y-161341750D01*
G75*
G02*
X58508750Y-161098000I243750J0D01*
G01*
X58996250Y-161098000D01*
G75*
G02*
X59240000Y-161341750I0J-243750D01*
G01*
X59240000Y-162254250D01*
G75*
G02*
X58996250Y-162498000I-243750J0D01*
G01*
X58508750Y-162498000D01*
G75*
G02*
X58265000Y-162254250I0J243750D01*
G01*
G37*
%TD*%
%TO.C,C19*%
G36*
G01*
X59886000Y-113740250D02*
X59886000Y-112827750D01*
G75*
G02*
X60129750Y-112584000I243750J0D01*
G01*
X60617250Y-112584000D01*
G75*
G02*
X60861000Y-112827750I0J-243750D01*
G01*
X60861000Y-113740250D01*
G75*
G02*
X60617250Y-113984000I-243750J0D01*
G01*
X60129750Y-113984000D01*
G75*
G02*
X59886000Y-113740250I0J243750D01*
G01*
G37*
G36*
G01*
X58011000Y-113740250D02*
X58011000Y-112827750D01*
G75*
G02*
X58254750Y-112584000I243750J0D01*
G01*
X58742250Y-112584000D01*
G75*
G02*
X58986000Y-112827750I0J-243750D01*
G01*
X58986000Y-113740250D01*
G75*
G02*
X58742250Y-113984000I-243750J0D01*
G01*
X58254750Y-113984000D01*
G75*
G02*
X58011000Y-113740250I0J243750D01*
G01*
G37*
%TD*%
D10*
%TO.C,D28*%
X122400000Y-161431000D03*
X122400000Y-163181000D03*
X118900000Y-161431000D03*
X118900000Y-163181000D03*
%TD*%
%TO.C,D27*%
X53114000Y-161657000D03*
X53114000Y-159907000D03*
X56614000Y-161657000D03*
X56614000Y-159907000D03*
%TD*%
%TO.C,D26*%
X127790000Y-118731000D03*
X127790000Y-116981000D03*
X131290000Y-118731000D03*
X131290000Y-116981000D03*
%TD*%
%TO.C,D25*%
X56614000Y-111647000D03*
X56614000Y-113397000D03*
X53114000Y-111647000D03*
X53114000Y-113397000D03*
%TD*%
%TO.C,D24*%
X122400000Y-67451000D03*
X122400000Y-69201000D03*
X118900000Y-67451000D03*
X118900000Y-69201000D03*
%TD*%
%TO.C,D23*%
X65504000Y-67451000D03*
X65504000Y-69201000D03*
X62004000Y-67451000D03*
X62004000Y-69201000D03*
%TD*%
%TO.C,R1*%
G36*
G01*
X72695750Y-38296000D02*
X73608250Y-38296000D01*
G75*
G02*
X73852000Y-38539750I0J-243750D01*
G01*
X73852000Y-39027250D01*
G75*
G02*
X73608250Y-39271000I-243750J0D01*
G01*
X72695750Y-39271000D01*
G75*
G02*
X72452000Y-39027250I0J243750D01*
G01*
X72452000Y-38539750D01*
G75*
G02*
X72695750Y-38296000I243750J0D01*
G01*
G37*
G36*
G01*
X72695750Y-36421000D02*
X73608250Y-36421000D01*
G75*
G02*
X73852000Y-36664750I0J-243750D01*
G01*
X73852000Y-37152250D01*
G75*
G02*
X73608250Y-37396000I-243750J0D01*
G01*
X72695750Y-37396000D01*
G75*
G02*
X72452000Y-37152250I0J243750D01*
G01*
X72452000Y-36664750D01*
G75*
G02*
X72695750Y-36421000I243750J0D01*
G01*
G37*
%TD*%
D11*
%TO.C,MX2*%
X126492000Y-107696000D03*
X113565000Y-110236000D03*
%TD*%
%TO.C,MX3*%
X126492000Y-145796000D03*
X113565000Y-148336000D03*
%TD*%
D12*
%TO.C,SW16*%
X123250000Y-88437500D03*
X123250000Y-89937500D03*
X118050000Y-89937500D03*
X118050000Y-88437500D03*
D11*
X126665000Y-79057500D03*
X113240000Y-81597500D03*
%TD*%
D12*
%TO.C,SW2*%
X66100000Y-88437500D03*
X66100000Y-89937500D03*
X60900000Y-89937500D03*
X60900000Y-88437500D03*
D11*
X69515000Y-79057500D03*
X56090000Y-81597500D03*
%TD*%
D12*
%TO.C,SW1*%
X66100000Y-60434000D03*
X66100000Y-61934000D03*
X60900000Y-61934000D03*
X60900000Y-60434000D03*
D11*
X69515000Y-51054000D03*
X56090000Y-53594000D03*
%TD*%
D12*
%TO.C,SW12*%
X104200000Y-107487500D03*
X104200000Y-108987500D03*
X99000000Y-108987500D03*
X99000000Y-107487500D03*
D11*
X107615000Y-98107500D03*
X94190000Y-100647500D03*
%TD*%
%TO.C,MX1*%
X78867000Y-155257500D03*
X65940000Y-157797500D03*
%TD*%
D12*
%TO.C,SW15*%
X104200000Y-164637500D03*
X104200000Y-166137500D03*
X99000000Y-166137500D03*
X99000000Y-164637500D03*
D11*
X107615000Y-155257500D03*
X94190000Y-157797500D03*
%TD*%
D12*
%TO.C,SW14*%
X104200000Y-145587500D03*
X104200000Y-147087500D03*
X99000000Y-147087500D03*
X99000000Y-145587500D03*
D11*
X107615000Y-136207500D03*
X94190000Y-138747500D03*
%TD*%
D12*
%TO.C,SW13*%
X104200000Y-126537500D03*
X104200000Y-128037500D03*
X99000000Y-128037500D03*
X99000000Y-126537500D03*
D11*
X107615000Y-117157500D03*
X94190000Y-119697500D03*
%TD*%
D12*
%TO.C,SW11*%
X104200000Y-88437500D03*
X104200000Y-89937500D03*
X99000000Y-89937500D03*
X99000000Y-88437500D03*
D11*
X107615000Y-79057500D03*
X94190000Y-81597500D03*
%TD*%
D12*
%TO.C,SW10*%
X85150000Y-145587500D03*
X85150000Y-147087500D03*
X79950000Y-147087500D03*
X79950000Y-145587500D03*
D11*
X88565000Y-136207500D03*
X75140000Y-138747500D03*
%TD*%
D12*
%TO.C,SW9*%
X85150000Y-126537500D03*
X85150000Y-128037500D03*
X79950000Y-128037500D03*
X79950000Y-126537500D03*
D11*
X88565000Y-117157500D03*
X75140000Y-119697500D03*
%TD*%
D12*
%TO.C,SW8*%
X85150000Y-107487500D03*
X85150000Y-108987500D03*
X79950000Y-108987500D03*
X79950000Y-107487500D03*
D11*
X88565000Y-98107500D03*
X75140000Y-100647500D03*
%TD*%
D12*
%TO.C,SW7*%
X85150000Y-88437500D03*
X85150000Y-89937500D03*
X79950000Y-89937500D03*
X79950000Y-88437500D03*
D11*
X88565000Y-79057500D03*
X75140000Y-81597500D03*
%TD*%
D12*
%TO.C,SW5*%
X66100000Y-145587500D03*
X66100000Y-147087500D03*
X60900000Y-147087500D03*
X60900000Y-145587500D03*
D11*
X69515000Y-136207500D03*
X56090000Y-138747500D03*
%TD*%
D12*
%TO.C,SW4*%
X66100000Y-126537500D03*
X66100000Y-128037500D03*
X60900000Y-128037500D03*
X60900000Y-126537500D03*
D11*
X69515000Y-117157500D03*
X56090000Y-119697500D03*
%TD*%
D12*
%TO.C,SW3*%
X66100000Y-107487500D03*
X66100000Y-108987500D03*
X60900000Y-108987500D03*
X60900000Y-107487500D03*
D11*
X69515000Y-98107500D03*
X56090000Y-100647500D03*
%TD*%
D12*
%TO.C,D22*%
X123250000Y-155206000D03*
X123250000Y-156706000D03*
X118050000Y-156706000D03*
X118050000Y-155206000D03*
%TD*%
%TO.C,D21*%
X123250000Y-117106000D03*
X123250000Y-118606000D03*
X118050000Y-118606000D03*
X118050000Y-117106000D03*
%TD*%
%TO.C,D20*%
X70425000Y-164350000D03*
X70425000Y-165850000D03*
X75625000Y-165850000D03*
X75625000Y-164350000D03*
%TD*%
%TO.C,U1*%
G36*
G01*
X101600000Y-38100000D02*
X101600000Y-38100000D01*
G75*
G02*
X100965000Y-38735000I-635000J0D01*
G01*
X99695000Y-38735000D01*
G75*
G02*
X99060000Y-38100000I0J635000D01*
G01*
X99060000Y-38100000D01*
G75*
G02*
X99695000Y-37465000I635000J0D01*
G01*
X100965000Y-37465000D01*
G75*
G02*
X101600000Y-38100000I0J-635000D01*
G01*
G37*
G36*
G01*
X101600000Y-40640000D02*
X101600000Y-40640000D01*
G75*
G02*
X100965000Y-41275000I-635000J0D01*
G01*
X99695000Y-41275000D01*
G75*
G02*
X99060000Y-40640000I0J635000D01*
G01*
X99060000Y-40640000D01*
G75*
G02*
X99695000Y-40005000I635000J0D01*
G01*
X100965000Y-40005000D01*
G75*
G02*
X101600000Y-40640000I0J-635000D01*
G01*
G37*
G36*
G01*
X101600000Y-43180000D02*
X101600000Y-43180000D01*
G75*
G02*
X100965000Y-43815000I-635000J0D01*
G01*
X99695000Y-43815000D01*
G75*
G02*
X99060000Y-43180000I0J635000D01*
G01*
X99060000Y-43180000D01*
G75*
G02*
X99695000Y-42545000I635000J0D01*
G01*
X100965000Y-42545000D01*
G75*
G02*
X101600000Y-43180000I0J-635000D01*
G01*
G37*
G36*
G01*
X101600000Y-45720000D02*
X101600000Y-45720000D01*
G75*
G02*
X100965000Y-46355000I-635000J0D01*
G01*
X99695000Y-46355000D01*
G75*
G02*
X99060000Y-45720000I0J635000D01*
G01*
X99060000Y-45720000D01*
G75*
G02*
X99695000Y-45085000I635000J0D01*
G01*
X100965000Y-45085000D01*
G75*
G02*
X101600000Y-45720000I0J-635000D01*
G01*
G37*
G36*
G01*
X101600000Y-48260000D02*
X101600000Y-48260000D01*
G75*
G02*
X100965000Y-48895000I-635000J0D01*
G01*
X99695000Y-48895000D01*
G75*
G02*
X99060000Y-48260000I0J635000D01*
G01*
X99060000Y-48260000D01*
G75*
G02*
X99695000Y-47625000I635000J0D01*
G01*
X100965000Y-47625000D01*
G75*
G02*
X101600000Y-48260000I0J-635000D01*
G01*
G37*
G36*
G01*
X101600000Y-50800000D02*
X101600000Y-50800000D01*
G75*
G02*
X100965000Y-51435000I-635000J0D01*
G01*
X99695000Y-51435000D01*
G75*
G02*
X99060000Y-50800000I0J635000D01*
G01*
X99060000Y-50800000D01*
G75*
G02*
X99695000Y-50165000I635000J0D01*
G01*
X100965000Y-50165000D01*
G75*
G02*
X101600000Y-50800000I0J-635000D01*
G01*
G37*
G36*
G01*
X101600000Y-53340000D02*
X101600000Y-53340000D01*
G75*
G02*
X100965000Y-53975000I-635000J0D01*
G01*
X99695000Y-53975000D01*
G75*
G02*
X99060000Y-53340000I0J635000D01*
G01*
X99060000Y-53340000D01*
G75*
G02*
X99695000Y-52705000I635000J0D01*
G01*
X100965000Y-52705000D01*
G75*
G02*
X101600000Y-53340000I0J-635000D01*
G01*
G37*
G36*
G01*
X101600000Y-55880000D02*
X101600000Y-55880000D01*
G75*
G02*
X100965000Y-56515000I-635000J0D01*
G01*
X99695000Y-56515000D01*
G75*
G02*
X99060000Y-55880000I0J635000D01*
G01*
X99060000Y-55880000D01*
G75*
G02*
X99695000Y-55245000I635000J0D01*
G01*
X100965000Y-55245000D01*
G75*
G02*
X101600000Y-55880000I0J-635000D01*
G01*
G37*
G36*
G01*
X101600000Y-58420000D02*
X101600000Y-58420000D01*
G75*
G02*
X100965000Y-59055000I-635000J0D01*
G01*
X99695000Y-59055000D01*
G75*
G02*
X99060000Y-58420000I0J635000D01*
G01*
X99060000Y-58420000D01*
G75*
G02*
X99695000Y-57785000I635000J0D01*
G01*
X100965000Y-57785000D01*
G75*
G02*
X101600000Y-58420000I0J-635000D01*
G01*
G37*
G36*
G01*
X101600000Y-60960000D02*
X101600000Y-60960000D01*
G75*
G02*
X100965000Y-61595000I-635000J0D01*
G01*
X99695000Y-61595000D01*
G75*
G02*
X99060000Y-60960000I0J635000D01*
G01*
X99060000Y-60960000D01*
G75*
G02*
X99695000Y-60325000I635000J0D01*
G01*
X100965000Y-60325000D01*
G75*
G02*
X101600000Y-60960000I0J-635000D01*
G01*
G37*
G36*
G01*
X101600000Y-63500000D02*
X101600000Y-63500000D01*
G75*
G02*
X100965000Y-64135000I-635000J0D01*
G01*
X99695000Y-64135000D01*
G75*
G02*
X99060000Y-63500000I0J635000D01*
G01*
X99060000Y-63500000D01*
G75*
G02*
X99695000Y-62865000I635000J0D01*
G01*
X100965000Y-62865000D01*
G75*
G02*
X101600000Y-63500000I0J-635000D01*
G01*
G37*
G36*
G01*
X101600000Y-66040000D02*
X101600000Y-66040000D01*
G75*
G02*
X100965000Y-66675000I-635000J0D01*
G01*
X99695000Y-66675000D01*
G75*
G02*
X99060000Y-66040000I0J635000D01*
G01*
X99060000Y-66040000D01*
G75*
G02*
X99695000Y-65405000I635000J0D01*
G01*
X100965000Y-65405000D01*
G75*
G02*
X101600000Y-66040000I0J-635000D01*
G01*
G37*
G36*
G01*
X83820000Y-66040000D02*
X83820000Y-66040000D01*
G75*
G02*
X83185000Y-66675000I-635000J0D01*
G01*
X81915000Y-66675000D01*
G75*
G02*
X81280000Y-66040000I0J635000D01*
G01*
X81280000Y-66040000D01*
G75*
G02*
X81915000Y-65405000I635000J0D01*
G01*
X83185000Y-65405000D01*
G75*
G02*
X83820000Y-66040000I0J-635000D01*
G01*
G37*
G36*
G01*
X83820000Y-63500000D02*
X83820000Y-63500000D01*
G75*
G02*
X83185000Y-64135000I-635000J0D01*
G01*
X81915000Y-64135000D01*
G75*
G02*
X81280000Y-63500000I0J635000D01*
G01*
X81280000Y-63500000D01*
G75*
G02*
X81915000Y-62865000I635000J0D01*
G01*
X83185000Y-62865000D01*
G75*
G02*
X83820000Y-63500000I0J-635000D01*
G01*
G37*
G36*
G01*
X83820000Y-60960000D02*
X83820000Y-60960000D01*
G75*
G02*
X83185000Y-61595000I-635000J0D01*
G01*
X81915000Y-61595000D01*
G75*
G02*
X81280000Y-60960000I0J635000D01*
G01*
X81280000Y-60960000D01*
G75*
G02*
X81915000Y-60325000I635000J0D01*
G01*
X83185000Y-60325000D01*
G75*
G02*
X83820000Y-60960000I0J-635000D01*
G01*
G37*
G36*
G01*
X83820000Y-58420000D02*
X83820000Y-58420000D01*
G75*
G02*
X83185000Y-59055000I-635000J0D01*
G01*
X81915000Y-59055000D01*
G75*
G02*
X81280000Y-58420000I0J635000D01*
G01*
X81280000Y-58420000D01*
G75*
G02*
X81915000Y-57785000I635000J0D01*
G01*
X83185000Y-57785000D01*
G75*
G02*
X83820000Y-58420000I0J-635000D01*
G01*
G37*
G36*
G01*
X83820000Y-55880000D02*
X83820000Y-55880000D01*
G75*
G02*
X83185000Y-56515000I-635000J0D01*
G01*
X81915000Y-56515000D01*
G75*
G02*
X81280000Y-55880000I0J635000D01*
G01*
X81280000Y-55880000D01*
G75*
G02*
X81915000Y-55245000I635000J0D01*
G01*
X83185000Y-55245000D01*
G75*
G02*
X83820000Y-55880000I0J-635000D01*
G01*
G37*
G36*
G01*
X83820000Y-53340000D02*
X83820000Y-53340000D01*
G75*
G02*
X83185000Y-53975000I-635000J0D01*
G01*
X81915000Y-53975000D01*
G75*
G02*
X81280000Y-53340000I0J635000D01*
G01*
X81280000Y-53340000D01*
G75*
G02*
X81915000Y-52705000I635000J0D01*
G01*
X83185000Y-52705000D01*
G75*
G02*
X83820000Y-53340000I0J-635000D01*
G01*
G37*
G36*
G01*
X83820000Y-50800000D02*
X83820000Y-50800000D01*
G75*
G02*
X83185000Y-51435000I-635000J0D01*
G01*
X81915000Y-51435000D01*
G75*
G02*
X81280000Y-50800000I0J635000D01*
G01*
X81280000Y-50800000D01*
G75*
G02*
X81915000Y-50165000I635000J0D01*
G01*
X83185000Y-50165000D01*
G75*
G02*
X83820000Y-50800000I0J-635000D01*
G01*
G37*
G36*
G01*
X83820000Y-48260000D02*
X83820000Y-48260000D01*
G75*
G02*
X83185000Y-48895000I-635000J0D01*
G01*
X81915000Y-48895000D01*
G75*
G02*
X81280000Y-48260000I0J635000D01*
G01*
X81280000Y-48260000D01*
G75*
G02*
X81915000Y-47625000I635000J0D01*
G01*
X83185000Y-47625000D01*
G75*
G02*
X83820000Y-48260000I0J-635000D01*
G01*
G37*
G36*
G01*
X83820000Y-38100000D02*
X83820000Y-38100000D01*
G75*
G02*
X83185000Y-38735000I-635000J0D01*
G01*
X81915000Y-38735000D01*
G75*
G02*
X81280000Y-38100000I0J635000D01*
G01*
X81280000Y-38100000D01*
G75*
G02*
X81915000Y-37465000I635000J0D01*
G01*
X83185000Y-37465000D01*
G75*
G02*
X83820000Y-38100000I0J-635000D01*
G01*
G37*
G36*
G01*
X83820000Y-40640000D02*
X83820000Y-40640000D01*
G75*
G02*
X83185000Y-41275000I-635000J0D01*
G01*
X81915000Y-41275000D01*
G75*
G02*
X81280000Y-40640000I0J635000D01*
G01*
X81280000Y-40640000D01*
G75*
G02*
X81915000Y-40005000I635000J0D01*
G01*
X83185000Y-40005000D01*
G75*
G02*
X83820000Y-40640000I0J-635000D01*
G01*
G37*
G36*
G01*
X83820000Y-43180000D02*
X83820000Y-43180000D01*
G75*
G02*
X83185000Y-43815000I-635000J0D01*
G01*
X81915000Y-43815000D01*
G75*
G02*
X81280000Y-43180000I0J635000D01*
G01*
X81280000Y-43180000D01*
G75*
G02*
X81915000Y-42545000I635000J0D01*
G01*
X83185000Y-42545000D01*
G75*
G02*
X83820000Y-43180000I0J-635000D01*
G01*
G37*
G36*
G01*
X83820000Y-45720000D02*
X83820000Y-45720000D01*
G75*
G02*
X83185000Y-46355000I-635000J0D01*
G01*
X81915000Y-46355000D01*
G75*
G02*
X81280000Y-45720000I0J635000D01*
G01*
X81280000Y-45720000D01*
G75*
G02*
X81915000Y-45085000I635000J0D01*
G01*
X83185000Y-45085000D01*
G75*
G02*
X83820000Y-45720000I0J-635000D01*
G01*
G37*
%TD*%
D13*
%TO.C,D19*%
X116681250Y-54547500D03*
X116681250Y-57847500D03*
%TD*%
%TO.C,D18*%
X128270000Y-149354000D03*
X128270000Y-152654000D03*
%TD*%
%TO.C,D17*%
X128524000Y-110618000D03*
X128524000Y-113918000D03*
%TD*%
%TO.C,D16*%
X128587500Y-82487500D03*
X128587500Y-85787500D03*
%TD*%
%TO.C,D15*%
X108712000Y-162180000D03*
X108712000Y-165480000D03*
%TD*%
%TO.C,D14*%
X109220000Y-141098000D03*
X109220000Y-144398000D03*
%TD*%
%TO.C,D13*%
X108458000Y-124206000D03*
X108458000Y-127506000D03*
%TD*%
%TO.C,D12*%
X109220000Y-102998000D03*
X109220000Y-106298000D03*
%TD*%
%TO.C,D11*%
X109537500Y-82487500D03*
X109537500Y-85787500D03*
%TD*%
%TO.C,D10*%
X90487500Y-139637500D03*
X90487500Y-142937500D03*
%TD*%
%TO.C,D9*%
X90487500Y-120587500D03*
X90487500Y-123887500D03*
%TD*%
%TO.C,D8*%
X90487500Y-101537500D03*
X90487500Y-104837500D03*
%TD*%
%TO.C,D7*%
X90487500Y-82487500D03*
X90487500Y-85787500D03*
%TD*%
%TO.C,D6*%
X80962500Y-158687500D03*
X80962500Y-161987500D03*
%TD*%
%TO.C,D5*%
X71437500Y-139637500D03*
X71437500Y-142937500D03*
%TD*%
%TO.C,D4*%
X71437500Y-120587500D03*
X71437500Y-123887500D03*
%TD*%
%TO.C,D3*%
X71437500Y-101537500D03*
X71437500Y-104837500D03*
%TD*%
%TO.C,D2*%
X71437500Y-82487500D03*
X71437500Y-85787500D03*
%TD*%
%TO.C,D1*%
X71437500Y-54547500D03*
X71437500Y-57847500D03*
%TD*%
%TO.C,C18*%
G36*
G01*
X114605750Y-156406000D02*
X115518250Y-156406000D01*
G75*
G02*
X115762000Y-156649750I0J-243750D01*
G01*
X115762000Y-157137250D01*
G75*
G02*
X115518250Y-157381000I-243750J0D01*
G01*
X114605750Y-157381000D01*
G75*
G02*
X114362000Y-157137250I0J243750D01*
G01*
X114362000Y-156649750D01*
G75*
G02*
X114605750Y-156406000I243750J0D01*
G01*
G37*
G36*
G01*
X114605750Y-154531000D02*
X115518250Y-154531000D01*
G75*
G02*
X115762000Y-154774750I0J-243750D01*
G01*
X115762000Y-155262250D01*
G75*
G02*
X115518250Y-155506000I-243750J0D01*
G01*
X114605750Y-155506000D01*
G75*
G02*
X114362000Y-155262250I0J243750D01*
G01*
X114362000Y-154774750D01*
G75*
G02*
X114605750Y-154531000I243750J0D01*
G01*
G37*
%TD*%
%TO.C,C17*%
G36*
G01*
X114859750Y-118052000D02*
X115772250Y-118052000D01*
G75*
G02*
X116016000Y-118295750I0J-243750D01*
G01*
X116016000Y-118783250D01*
G75*
G02*
X115772250Y-119027000I-243750J0D01*
G01*
X114859750Y-119027000D01*
G75*
G02*
X114616000Y-118783250I0J243750D01*
G01*
X114616000Y-118295750D01*
G75*
G02*
X114859750Y-118052000I243750J0D01*
G01*
G37*
G36*
G01*
X114859750Y-116177000D02*
X115772250Y-116177000D01*
G75*
G02*
X116016000Y-116420750I0J-243750D01*
G01*
X116016000Y-116908250D01*
G75*
G02*
X115772250Y-117152000I-243750J0D01*
G01*
X114859750Y-117152000D01*
G75*
G02*
X114616000Y-116908250I0J243750D01*
G01*
X114616000Y-116420750D01*
G75*
G02*
X114859750Y-116177000I243750J0D01*
G01*
G37*
%TD*%
%TO.C,C16*%
G36*
G01*
X113050000Y-89858000D02*
X113962500Y-89858000D01*
G75*
G02*
X114206250Y-90101750I0J-243750D01*
G01*
X114206250Y-90589250D01*
G75*
G02*
X113962500Y-90833000I-243750J0D01*
G01*
X113050000Y-90833000D01*
G75*
G02*
X112806250Y-90589250I0J243750D01*
G01*
X112806250Y-90101750D01*
G75*
G02*
X113050000Y-89858000I243750J0D01*
G01*
G37*
G36*
G01*
X113050000Y-87983000D02*
X113962500Y-87983000D01*
G75*
G02*
X114206250Y-88226750I0J-243750D01*
G01*
X114206250Y-88714250D01*
G75*
G02*
X113962500Y-88958000I-243750J0D01*
G01*
X113050000Y-88958000D01*
G75*
G02*
X112806250Y-88714250I0J243750D01*
G01*
X112806250Y-88226750D01*
G75*
G02*
X113050000Y-87983000I243750J0D01*
G01*
G37*
%TD*%
%TO.C,C15*%
G36*
G01*
X94000000Y-166058000D02*
X94912500Y-166058000D01*
G75*
G02*
X95156250Y-166301750I0J-243750D01*
G01*
X95156250Y-166789250D01*
G75*
G02*
X94912500Y-167033000I-243750J0D01*
G01*
X94000000Y-167033000D01*
G75*
G02*
X93756250Y-166789250I0J243750D01*
G01*
X93756250Y-166301750D01*
G75*
G02*
X94000000Y-166058000I243750J0D01*
G01*
G37*
G36*
G01*
X94000000Y-164183000D02*
X94912500Y-164183000D01*
G75*
G02*
X95156250Y-164426750I0J-243750D01*
G01*
X95156250Y-164914250D01*
G75*
G02*
X94912500Y-165158000I-243750J0D01*
G01*
X94000000Y-165158000D01*
G75*
G02*
X93756250Y-164914250I0J243750D01*
G01*
X93756250Y-164426750D01*
G75*
G02*
X94000000Y-164183000I243750J0D01*
G01*
G37*
%TD*%
%TO.C,C14*%
G36*
G01*
X94000000Y-147008000D02*
X94912500Y-147008000D01*
G75*
G02*
X95156250Y-147251750I0J-243750D01*
G01*
X95156250Y-147739250D01*
G75*
G02*
X94912500Y-147983000I-243750J0D01*
G01*
X94000000Y-147983000D01*
G75*
G02*
X93756250Y-147739250I0J243750D01*
G01*
X93756250Y-147251750D01*
G75*
G02*
X94000000Y-147008000I243750J0D01*
G01*
G37*
G36*
G01*
X94000000Y-145133000D02*
X94912500Y-145133000D01*
G75*
G02*
X95156250Y-145376750I0J-243750D01*
G01*
X95156250Y-145864250D01*
G75*
G02*
X94912500Y-146108000I-243750J0D01*
G01*
X94000000Y-146108000D01*
G75*
G02*
X93756250Y-145864250I0J243750D01*
G01*
X93756250Y-145376750D01*
G75*
G02*
X94000000Y-145133000I243750J0D01*
G01*
G37*
%TD*%
%TO.C,C13*%
G36*
G01*
X94000000Y-127958000D02*
X94912500Y-127958000D01*
G75*
G02*
X95156250Y-128201750I0J-243750D01*
G01*
X95156250Y-128689250D01*
G75*
G02*
X94912500Y-128933000I-243750J0D01*
G01*
X94000000Y-128933000D01*
G75*
G02*
X93756250Y-128689250I0J243750D01*
G01*
X93756250Y-128201750D01*
G75*
G02*
X94000000Y-127958000I243750J0D01*
G01*
G37*
G36*
G01*
X94000000Y-126083000D02*
X94912500Y-126083000D01*
G75*
G02*
X95156250Y-126326750I0J-243750D01*
G01*
X95156250Y-126814250D01*
G75*
G02*
X94912500Y-127058000I-243750J0D01*
G01*
X94000000Y-127058000D01*
G75*
G02*
X93756250Y-126814250I0J243750D01*
G01*
X93756250Y-126326750D01*
G75*
G02*
X94000000Y-126083000I243750J0D01*
G01*
G37*
%TD*%
%TO.C,C12*%
G36*
G01*
X94000000Y-108908000D02*
X94912500Y-108908000D01*
G75*
G02*
X95156250Y-109151750I0J-243750D01*
G01*
X95156250Y-109639250D01*
G75*
G02*
X94912500Y-109883000I-243750J0D01*
G01*
X94000000Y-109883000D01*
G75*
G02*
X93756250Y-109639250I0J243750D01*
G01*
X93756250Y-109151750D01*
G75*
G02*
X94000000Y-108908000I243750J0D01*
G01*
G37*
G36*
G01*
X94000000Y-107033000D02*
X94912500Y-107033000D01*
G75*
G02*
X95156250Y-107276750I0J-243750D01*
G01*
X95156250Y-107764250D01*
G75*
G02*
X94912500Y-108008000I-243750J0D01*
G01*
X94000000Y-108008000D01*
G75*
G02*
X93756250Y-107764250I0J243750D01*
G01*
X93756250Y-107276750D01*
G75*
G02*
X94000000Y-107033000I243750J0D01*
G01*
G37*
%TD*%
%TO.C,C11*%
G36*
G01*
X94000000Y-89858000D02*
X94912500Y-89858000D01*
G75*
G02*
X95156250Y-90101750I0J-243750D01*
G01*
X95156250Y-90589250D01*
G75*
G02*
X94912500Y-90833000I-243750J0D01*
G01*
X94000000Y-90833000D01*
G75*
G02*
X93756250Y-90589250I0J243750D01*
G01*
X93756250Y-90101750D01*
G75*
G02*
X94000000Y-89858000I243750J0D01*
G01*
G37*
G36*
G01*
X94000000Y-87983000D02*
X94912500Y-87983000D01*
G75*
G02*
X95156250Y-88226750I0J-243750D01*
G01*
X95156250Y-88714250D01*
G75*
G02*
X94912500Y-88958000I-243750J0D01*
G01*
X94000000Y-88958000D01*
G75*
G02*
X93756250Y-88714250I0J243750D01*
G01*
X93756250Y-88226750D01*
G75*
G02*
X94000000Y-87983000I243750J0D01*
G01*
G37*
%TD*%
%TO.C,C10*%
G36*
G01*
X74950000Y-147008000D02*
X75862500Y-147008000D01*
G75*
G02*
X76106250Y-147251750I0J-243750D01*
G01*
X76106250Y-147739250D01*
G75*
G02*
X75862500Y-147983000I-243750J0D01*
G01*
X74950000Y-147983000D01*
G75*
G02*
X74706250Y-147739250I0J243750D01*
G01*
X74706250Y-147251750D01*
G75*
G02*
X74950000Y-147008000I243750J0D01*
G01*
G37*
G36*
G01*
X74950000Y-145133000D02*
X75862500Y-145133000D01*
G75*
G02*
X76106250Y-145376750I0J-243750D01*
G01*
X76106250Y-145864250D01*
G75*
G02*
X75862500Y-146108000I-243750J0D01*
G01*
X74950000Y-146108000D01*
G75*
G02*
X74706250Y-145864250I0J243750D01*
G01*
X74706250Y-145376750D01*
G75*
G02*
X74950000Y-145133000I243750J0D01*
G01*
G37*
%TD*%
%TO.C,C9*%
G36*
G01*
X74950000Y-127958000D02*
X75862500Y-127958000D01*
G75*
G02*
X76106250Y-128201750I0J-243750D01*
G01*
X76106250Y-128689250D01*
G75*
G02*
X75862500Y-128933000I-243750J0D01*
G01*
X74950000Y-128933000D01*
G75*
G02*
X74706250Y-128689250I0J243750D01*
G01*
X74706250Y-128201750D01*
G75*
G02*
X74950000Y-127958000I243750J0D01*
G01*
G37*
G36*
G01*
X74950000Y-126083000D02*
X75862500Y-126083000D01*
G75*
G02*
X76106250Y-126326750I0J-243750D01*
G01*
X76106250Y-126814250D01*
G75*
G02*
X75862500Y-127058000I-243750J0D01*
G01*
X74950000Y-127058000D01*
G75*
G02*
X74706250Y-126814250I0J243750D01*
G01*
X74706250Y-126326750D01*
G75*
G02*
X74950000Y-126083000I243750J0D01*
G01*
G37*
%TD*%
%TO.C,C8*%
G36*
G01*
X74950000Y-108908000D02*
X75862500Y-108908000D01*
G75*
G02*
X76106250Y-109151750I0J-243750D01*
G01*
X76106250Y-109639250D01*
G75*
G02*
X75862500Y-109883000I-243750J0D01*
G01*
X74950000Y-109883000D01*
G75*
G02*
X74706250Y-109639250I0J243750D01*
G01*
X74706250Y-109151750D01*
G75*
G02*
X74950000Y-108908000I243750J0D01*
G01*
G37*
G36*
G01*
X74950000Y-107033000D02*
X75862500Y-107033000D01*
G75*
G02*
X76106250Y-107276750I0J-243750D01*
G01*
X76106250Y-107764250D01*
G75*
G02*
X75862500Y-108008000I-243750J0D01*
G01*
X74950000Y-108008000D01*
G75*
G02*
X74706250Y-107764250I0J243750D01*
G01*
X74706250Y-107276750D01*
G75*
G02*
X74950000Y-107033000I243750J0D01*
G01*
G37*
%TD*%
%TO.C,C7*%
G36*
G01*
X74950000Y-87983000D02*
X75862500Y-87983000D01*
G75*
G02*
X76106250Y-88226750I0J-243750D01*
G01*
X76106250Y-88714250D01*
G75*
G02*
X75862500Y-88958000I-243750J0D01*
G01*
X74950000Y-88958000D01*
G75*
G02*
X74706250Y-88714250I0J243750D01*
G01*
X74706250Y-88226750D01*
G75*
G02*
X74950000Y-87983000I243750J0D01*
G01*
G37*
G36*
G01*
X74950000Y-89858000D02*
X75862500Y-89858000D01*
G75*
G02*
X76106250Y-90101750I0J-243750D01*
G01*
X76106250Y-90589250D01*
G75*
G02*
X75862500Y-90833000I-243750J0D01*
G01*
X74950000Y-90833000D01*
G75*
G02*
X74706250Y-90589250I0J243750D01*
G01*
X74706250Y-90101750D01*
G75*
G02*
X74950000Y-89858000I243750J0D01*
G01*
G37*
%TD*%
%TO.C,C6*%
G36*
G01*
X65425000Y-165804000D02*
X66337500Y-165804000D01*
G75*
G02*
X66581250Y-166047750I0J-243750D01*
G01*
X66581250Y-166535250D01*
G75*
G02*
X66337500Y-166779000I-243750J0D01*
G01*
X65425000Y-166779000D01*
G75*
G02*
X65181250Y-166535250I0J243750D01*
G01*
X65181250Y-166047750D01*
G75*
G02*
X65425000Y-165804000I243750J0D01*
G01*
G37*
G36*
G01*
X65425000Y-163929000D02*
X66337500Y-163929000D01*
G75*
G02*
X66581250Y-164172750I0J-243750D01*
G01*
X66581250Y-164660250D01*
G75*
G02*
X66337500Y-164904000I-243750J0D01*
G01*
X65425000Y-164904000D01*
G75*
G02*
X65181250Y-164660250I0J243750D01*
G01*
X65181250Y-164172750D01*
G75*
G02*
X65425000Y-163929000I243750J0D01*
G01*
G37*
%TD*%
%TO.C,C5*%
G36*
G01*
X55900000Y-147008000D02*
X56812500Y-147008000D01*
G75*
G02*
X57056250Y-147251750I0J-243750D01*
G01*
X57056250Y-147739250D01*
G75*
G02*
X56812500Y-147983000I-243750J0D01*
G01*
X55900000Y-147983000D01*
G75*
G02*
X55656250Y-147739250I0J243750D01*
G01*
X55656250Y-147251750D01*
G75*
G02*
X55900000Y-147008000I243750J0D01*
G01*
G37*
G36*
G01*
X55900000Y-145133000D02*
X56812500Y-145133000D01*
G75*
G02*
X57056250Y-145376750I0J-243750D01*
G01*
X57056250Y-145864250D01*
G75*
G02*
X56812500Y-146108000I-243750J0D01*
G01*
X55900000Y-146108000D01*
G75*
G02*
X55656250Y-145864250I0J243750D01*
G01*
X55656250Y-145376750D01*
G75*
G02*
X55900000Y-145133000I243750J0D01*
G01*
G37*
%TD*%
%TO.C,C4*%
G36*
G01*
X55900000Y-127958000D02*
X56812500Y-127958000D01*
G75*
G02*
X57056250Y-128201750I0J-243750D01*
G01*
X57056250Y-128689250D01*
G75*
G02*
X56812500Y-128933000I-243750J0D01*
G01*
X55900000Y-128933000D01*
G75*
G02*
X55656250Y-128689250I0J243750D01*
G01*
X55656250Y-128201750D01*
G75*
G02*
X55900000Y-127958000I243750J0D01*
G01*
G37*
G36*
G01*
X55900000Y-126083000D02*
X56812500Y-126083000D01*
G75*
G02*
X57056250Y-126326750I0J-243750D01*
G01*
X57056250Y-126814250D01*
G75*
G02*
X56812500Y-127058000I-243750J0D01*
G01*
X55900000Y-127058000D01*
G75*
G02*
X55656250Y-126814250I0J243750D01*
G01*
X55656250Y-126326750D01*
G75*
G02*
X55900000Y-126083000I243750J0D01*
G01*
G37*
%TD*%
%TO.C,C3*%
G36*
G01*
X56693750Y-108908000D02*
X57606250Y-108908000D01*
G75*
G02*
X57850000Y-109151750I0J-243750D01*
G01*
X57850000Y-109639250D01*
G75*
G02*
X57606250Y-109883000I-243750J0D01*
G01*
X56693750Y-109883000D01*
G75*
G02*
X56450000Y-109639250I0J243750D01*
G01*
X56450000Y-109151750D01*
G75*
G02*
X56693750Y-108908000I243750J0D01*
G01*
G37*
G36*
G01*
X56693750Y-107033000D02*
X57606250Y-107033000D01*
G75*
G02*
X57850000Y-107276750I0J-243750D01*
G01*
X57850000Y-107764250D01*
G75*
G02*
X57606250Y-108008000I-243750J0D01*
G01*
X56693750Y-108008000D01*
G75*
G02*
X56450000Y-107764250I0J243750D01*
G01*
X56450000Y-107276750D01*
G75*
G02*
X56693750Y-107033000I243750J0D01*
G01*
G37*
%TD*%
%TO.C,C2*%
G36*
G01*
X56439750Y-89858000D02*
X57352250Y-89858000D01*
G75*
G02*
X57596000Y-90101750I0J-243750D01*
G01*
X57596000Y-90589250D01*
G75*
G02*
X57352250Y-90833000I-243750J0D01*
G01*
X56439750Y-90833000D01*
G75*
G02*
X56196000Y-90589250I0J243750D01*
G01*
X56196000Y-90101750D01*
G75*
G02*
X56439750Y-89858000I243750J0D01*
G01*
G37*
G36*
G01*
X56439750Y-87983000D02*
X57352250Y-87983000D01*
G75*
G02*
X57596000Y-88226750I0J-243750D01*
G01*
X57596000Y-88714250D01*
G75*
G02*
X57352250Y-88958000I-243750J0D01*
G01*
X56439750Y-88958000D01*
G75*
G02*
X56196000Y-88714250I0J243750D01*
G01*
X56196000Y-88226750D01*
G75*
G02*
X56439750Y-87983000I243750J0D01*
G01*
G37*
%TD*%
%TO.C,C1*%
G36*
G01*
X56693750Y-60043000D02*
X57606250Y-60043000D01*
G75*
G02*
X57850000Y-60286750I0J-243750D01*
G01*
X57850000Y-60774250D01*
G75*
G02*
X57606250Y-61018000I-243750J0D01*
G01*
X56693750Y-61018000D01*
G75*
G02*
X56450000Y-60774250I0J243750D01*
G01*
X56450000Y-60286750D01*
G75*
G02*
X56693750Y-60043000I243750J0D01*
G01*
G37*
G36*
G01*
X56693750Y-61918000D02*
X57606250Y-61918000D01*
G75*
G02*
X57850000Y-62161750I0J-243750D01*
G01*
X57850000Y-62649250D01*
G75*
G02*
X57606250Y-62893000I-243750J0D01*
G01*
X56693750Y-62893000D01*
G75*
G02*
X56450000Y-62649250I0J243750D01*
G01*
X56450000Y-62161750D01*
G75*
G02*
X56693750Y-61918000I243750J0D01*
G01*
G37*
%TD*%
M02*
