%TF.GenerationSoftware,KiCad,Pcbnew,(5.1.6)-1*%
%TF.CreationDate,2021-03-03T01:18:26-05:00*%
%TF.ProjectId,Numpadulator,4e756d70-6164-4756-9c61-746f722e6b69,rev?*%
%TF.SameCoordinates,Original*%
%TF.FileFunction,Legend,Bot*%
%TF.FilePolarity,Positive*%
%FSLAX46Y46*%
G04 Gerber Fmt 4.6, Leading zero omitted, Abs format (unit mm)*
G04 Created by KiCad (PCBNEW (5.1.6)-1) date 2021-03-03 01:18:26*
%MOMM*%
%LPD*%
G01*
G04 APERTURE LIST*
%ADD10C,0.120000*%
%ADD11C,0.203200*%
%ADD12C,0.150000*%
G04 APERTURE END LIST*
D10*
%TO.C,C24*%
X129846000Y-121661422D02*
X129846000Y-122178578D01*
X131266000Y-121661422D02*
X131266000Y-122178578D01*
%TO.C,C23*%
X115876000Y-162047422D02*
X115876000Y-162564578D01*
X117296000Y-162047422D02*
X117296000Y-162564578D01*
%TO.C,C22*%
X117550000Y-67060578D02*
X117550000Y-66543422D01*
X116130000Y-67060578D02*
X116130000Y-66543422D01*
%TO.C,C21*%
X60654000Y-66806578D02*
X60654000Y-66289422D01*
X59234000Y-66806578D02*
X59234000Y-66289422D01*
%TO.C,C20*%
X59431422Y-162508000D02*
X59948578Y-162508000D01*
X59431422Y-161088000D02*
X59948578Y-161088000D01*
%TO.C,C19*%
X59177422Y-113994000D02*
X59694578Y-113994000D01*
X59177422Y-112574000D02*
X59694578Y-112574000D01*
%TO.C,D28*%
X123600000Y-160356000D02*
X117700000Y-160356000D01*
X123600000Y-164256000D02*
X117700000Y-164256000D01*
X117700000Y-164256000D02*
X117700000Y-163181000D01*
%TO.C,D27*%
X51914000Y-162732000D02*
X57814000Y-162732000D01*
X51914000Y-158832000D02*
X57814000Y-158832000D01*
X57814000Y-158832000D02*
X57814000Y-159907000D01*
%TO.C,D26*%
X126590000Y-119806000D02*
X132490000Y-119806000D01*
X126590000Y-115906000D02*
X132490000Y-115906000D01*
X132490000Y-115906000D02*
X132490000Y-116981000D01*
%TO.C,D25*%
X57814000Y-110572000D02*
X57814000Y-111647000D01*
X51914000Y-110572000D02*
X57814000Y-110572000D01*
X51914000Y-114472000D02*
X57814000Y-114472000D01*
%TO.C,D24*%
X123600000Y-66376000D02*
X117700000Y-66376000D01*
X123600000Y-70276000D02*
X117700000Y-70276000D01*
X117700000Y-70276000D02*
X117700000Y-69201000D01*
%TO.C,D23*%
X66704000Y-66376000D02*
X60804000Y-66376000D01*
X66704000Y-70276000D02*
X60804000Y-70276000D01*
X60804000Y-70276000D02*
X60804000Y-69201000D01*
%TO.C,R1*%
X73862000Y-37587422D02*
X73862000Y-38104578D01*
X72442000Y-37587422D02*
X72442000Y-38104578D01*
%TO.C,SW16*%
X118950000Y-87387500D02*
X118650000Y-87387500D01*
X118650000Y-87387500D02*
X118650000Y-87687500D01*
%TO.C,SW2*%
X61800000Y-87387500D02*
X61500000Y-87387500D01*
X61500000Y-87387500D02*
X61500000Y-87687500D01*
%TO.C,SW1*%
X61800000Y-59384000D02*
X61500000Y-59384000D01*
X61500000Y-59384000D02*
X61500000Y-59684000D01*
%TO.C,SW12*%
X99900000Y-106437500D02*
X99600000Y-106437500D01*
X99600000Y-106437500D02*
X99600000Y-106737500D01*
%TO.C,SW15*%
X99900000Y-163587500D02*
X99600000Y-163587500D01*
X99600000Y-163587500D02*
X99600000Y-163887500D01*
%TO.C,SW14*%
X99900000Y-144537500D02*
X99600000Y-144537500D01*
X99600000Y-144537500D02*
X99600000Y-144837500D01*
%TO.C,SW13*%
X99900000Y-125487500D02*
X99600000Y-125487500D01*
X99600000Y-125487500D02*
X99600000Y-125787500D01*
%TO.C,SW11*%
X99900000Y-87387500D02*
X99600000Y-87387500D01*
X99600000Y-87387500D02*
X99600000Y-87687500D01*
%TO.C,SW10*%
X80850000Y-144537500D02*
X80550000Y-144537500D01*
X80550000Y-144537500D02*
X80550000Y-144837500D01*
%TO.C,SW9*%
X80850000Y-125487500D02*
X80550000Y-125487500D01*
X80550000Y-125487500D02*
X80550000Y-125787500D01*
%TO.C,SW8*%
X80850000Y-106437500D02*
X80550000Y-106437500D01*
X80550000Y-106437500D02*
X80550000Y-106737500D01*
%TO.C,SW7*%
X80850000Y-87387500D02*
X80550000Y-87387500D01*
X80550000Y-87387500D02*
X80550000Y-87687500D01*
%TO.C,SW5*%
X61800000Y-144537500D02*
X61500000Y-144537500D01*
X61500000Y-144537500D02*
X61500000Y-144837500D01*
%TO.C,SW4*%
X61800000Y-125487500D02*
X61500000Y-125487500D01*
X61500000Y-125487500D02*
X61500000Y-125787500D01*
%TO.C,SW3*%
X61800000Y-106437500D02*
X61500000Y-106437500D01*
X61500000Y-106437500D02*
X61500000Y-106737500D01*
%TO.C,D22*%
X118650000Y-154156000D02*
X118650000Y-154456000D01*
X118950000Y-154156000D02*
X118650000Y-154156000D01*
%TO.C,D21*%
X118650000Y-116056000D02*
X118650000Y-116356000D01*
X118950000Y-116056000D02*
X118650000Y-116056000D01*
%TO.C,D20*%
X71325000Y-163300000D02*
X71025000Y-163300000D01*
X71025000Y-163300000D02*
X71025000Y-163600000D01*
D11*
%TO.C,U1*%
X95758000Y-40259000D02*
X95758000Y-32956500D01*
X87122000Y-32956500D02*
X87122000Y-40259000D01*
X87122000Y-40259000D02*
X95758000Y-40259000D01*
X95758000Y-32956500D02*
X87122000Y-32956500D01*
X91440000Y-48387000D02*
X96393000Y-53340000D01*
X96393000Y-53340000D02*
X91440000Y-58293000D01*
X91440000Y-58293000D02*
X86487000Y-53340000D01*
X86487000Y-53340000D02*
X91440000Y-48387000D01*
X96520000Y-34290000D02*
X100330000Y-34290000D01*
X100330000Y-34290000D02*
X100330000Y-36830000D01*
X86360000Y-34290000D02*
X82550000Y-34290000D01*
X82550000Y-34290000D02*
X82550000Y-36830000D01*
X82550000Y-67310000D02*
X100330000Y-67310000D01*
X87122000Y-32956500D02*
G75*
G03*
X95758000Y-32956500I4318000J24145875D01*
G01*
D10*
%TO.C,D19*%
X117681250Y-58447500D02*
X117681250Y-54547500D01*
X115681250Y-58447500D02*
X115681250Y-54547500D01*
X117681250Y-58447500D02*
X115681250Y-58447500D01*
%TO.C,D18*%
X129270000Y-153254000D02*
X129270000Y-149354000D01*
X127270000Y-153254000D02*
X127270000Y-149354000D01*
X129270000Y-153254000D02*
X127270000Y-153254000D01*
%TO.C,D17*%
X129524000Y-114518000D02*
X129524000Y-110618000D01*
X127524000Y-114518000D02*
X127524000Y-110618000D01*
X129524000Y-114518000D02*
X127524000Y-114518000D01*
%TO.C,D16*%
X129587500Y-86387500D02*
X129587500Y-82487500D01*
X127587500Y-86387500D02*
X127587500Y-82487500D01*
X129587500Y-86387500D02*
X127587500Y-86387500D01*
%TO.C,D15*%
X109712000Y-166080000D02*
X109712000Y-162180000D01*
X107712000Y-166080000D02*
X107712000Y-162180000D01*
X109712000Y-166080000D02*
X107712000Y-166080000D01*
%TO.C,D14*%
X110220000Y-144998000D02*
X110220000Y-141098000D01*
X108220000Y-144998000D02*
X108220000Y-141098000D01*
X110220000Y-144998000D02*
X108220000Y-144998000D01*
%TO.C,D13*%
X109458000Y-128106000D02*
X109458000Y-124206000D01*
X107458000Y-128106000D02*
X107458000Y-124206000D01*
X109458000Y-128106000D02*
X107458000Y-128106000D01*
%TO.C,D12*%
X110220000Y-106898000D02*
X110220000Y-102998000D01*
X108220000Y-106898000D02*
X108220000Y-102998000D01*
X110220000Y-106898000D02*
X108220000Y-106898000D01*
%TO.C,D11*%
X110537500Y-86387500D02*
X110537500Y-82487500D01*
X108537500Y-86387500D02*
X108537500Y-82487500D01*
X110537500Y-86387500D02*
X108537500Y-86387500D01*
%TO.C,D10*%
X91487500Y-143537500D02*
X91487500Y-139637500D01*
X89487500Y-143537500D02*
X89487500Y-139637500D01*
X91487500Y-143537500D02*
X89487500Y-143537500D01*
%TO.C,D9*%
X91487500Y-124487500D02*
X91487500Y-120587500D01*
X89487500Y-124487500D02*
X89487500Y-120587500D01*
X91487500Y-124487500D02*
X89487500Y-124487500D01*
%TO.C,D8*%
X91487500Y-105437500D02*
X91487500Y-101537500D01*
X89487500Y-105437500D02*
X89487500Y-101537500D01*
X91487500Y-105437500D02*
X89487500Y-105437500D01*
%TO.C,D7*%
X91487500Y-86387500D02*
X91487500Y-82487500D01*
X89487500Y-86387500D02*
X89487500Y-82487500D01*
X91487500Y-86387500D02*
X89487500Y-86387500D01*
%TO.C,D6*%
X81962500Y-162587500D02*
X81962500Y-158687500D01*
X79962500Y-162587500D02*
X79962500Y-158687500D01*
X81962500Y-162587500D02*
X79962500Y-162587500D01*
%TO.C,D5*%
X72437500Y-143537500D02*
X72437500Y-139637500D01*
X70437500Y-143537500D02*
X70437500Y-139637500D01*
X72437500Y-143537500D02*
X70437500Y-143537500D01*
%TO.C,D4*%
X72437500Y-124487500D02*
X72437500Y-120587500D01*
X70437500Y-124487500D02*
X70437500Y-120587500D01*
X72437500Y-124487500D02*
X70437500Y-124487500D01*
%TO.C,D3*%
X72437500Y-105437500D02*
X72437500Y-101537500D01*
X70437500Y-105437500D02*
X70437500Y-101537500D01*
X72437500Y-105437500D02*
X70437500Y-105437500D01*
%TO.C,D2*%
X72437500Y-86387500D02*
X72437500Y-82487500D01*
X70437500Y-86387500D02*
X70437500Y-82487500D01*
X72437500Y-86387500D02*
X70437500Y-86387500D01*
%TO.C,D1*%
X72437500Y-58447500D02*
X72437500Y-54547500D01*
X70437500Y-58447500D02*
X70437500Y-54547500D01*
X72437500Y-58447500D02*
X70437500Y-58447500D01*
%TO.C,C18*%
X115772000Y-155697422D02*
X115772000Y-156214578D01*
X114352000Y-155697422D02*
X114352000Y-156214578D01*
%TO.C,C17*%
X116026000Y-117343422D02*
X116026000Y-117860578D01*
X114606000Y-117343422D02*
X114606000Y-117860578D01*
%TO.C,C16*%
X114216250Y-89149422D02*
X114216250Y-89666578D01*
X112796250Y-89149422D02*
X112796250Y-89666578D01*
%TO.C,C15*%
X95166250Y-165349422D02*
X95166250Y-165866578D01*
X93746250Y-165349422D02*
X93746250Y-165866578D01*
%TO.C,C14*%
X95166250Y-146299422D02*
X95166250Y-146816578D01*
X93746250Y-146299422D02*
X93746250Y-146816578D01*
%TO.C,C13*%
X95166250Y-127249422D02*
X95166250Y-127766578D01*
X93746250Y-127249422D02*
X93746250Y-127766578D01*
%TO.C,C12*%
X95166250Y-108199422D02*
X95166250Y-108716578D01*
X93746250Y-108199422D02*
X93746250Y-108716578D01*
%TO.C,C11*%
X95166250Y-89149422D02*
X95166250Y-89666578D01*
X93746250Y-89149422D02*
X93746250Y-89666578D01*
%TO.C,C10*%
X76116250Y-146299422D02*
X76116250Y-146816578D01*
X74696250Y-146299422D02*
X74696250Y-146816578D01*
%TO.C,C9*%
X76116250Y-127249422D02*
X76116250Y-127766578D01*
X74696250Y-127249422D02*
X74696250Y-127766578D01*
%TO.C,C8*%
X76116250Y-108199422D02*
X76116250Y-108716578D01*
X74696250Y-108199422D02*
X74696250Y-108716578D01*
%TO.C,C7*%
X74696250Y-89149422D02*
X74696250Y-89666578D01*
X76116250Y-89149422D02*
X76116250Y-89666578D01*
%TO.C,C6*%
X66591250Y-165095422D02*
X66591250Y-165612578D01*
X65171250Y-165095422D02*
X65171250Y-165612578D01*
%TO.C,C5*%
X57066250Y-146299422D02*
X57066250Y-146816578D01*
X55646250Y-146299422D02*
X55646250Y-146816578D01*
%TO.C,C4*%
X57066250Y-127249422D02*
X57066250Y-127766578D01*
X55646250Y-127249422D02*
X55646250Y-127766578D01*
%TO.C,C3*%
X57860000Y-108199422D02*
X57860000Y-108716578D01*
X56440000Y-108199422D02*
X56440000Y-108716578D01*
%TO.C,C2*%
X57606000Y-89149422D02*
X57606000Y-89666578D01*
X56186000Y-89149422D02*
X56186000Y-89666578D01*
%TO.C,C1*%
X56440000Y-61209422D02*
X56440000Y-61726578D01*
X57860000Y-61209422D02*
X57860000Y-61726578D01*
%TO.C,C24*%
D12*
X129263142Y-121277142D02*
X129310761Y-121229523D01*
X129358380Y-121086666D01*
X129358380Y-120991428D01*
X129310761Y-120848571D01*
X129215523Y-120753333D01*
X129120285Y-120705714D01*
X128929809Y-120658095D01*
X128786952Y-120658095D01*
X128596476Y-120705714D01*
X128501238Y-120753333D01*
X128406000Y-120848571D01*
X128358380Y-120991428D01*
X128358380Y-121086666D01*
X128406000Y-121229523D01*
X128453619Y-121277142D01*
X128453619Y-121658095D02*
X128406000Y-121705714D01*
X128358380Y-121800952D01*
X128358380Y-122039047D01*
X128406000Y-122134285D01*
X128453619Y-122181904D01*
X128548857Y-122229523D01*
X128644095Y-122229523D01*
X128786952Y-122181904D01*
X129358380Y-121610476D01*
X129358380Y-122229523D01*
X128691714Y-123086666D02*
X129358380Y-123086666D01*
X128310761Y-122848571D02*
X129025047Y-122610476D01*
X129025047Y-123229523D01*
%TO.C,C23*%
X115293142Y-161663142D02*
X115340761Y-161615523D01*
X115388380Y-161472666D01*
X115388380Y-161377428D01*
X115340761Y-161234571D01*
X115245523Y-161139333D01*
X115150285Y-161091714D01*
X114959809Y-161044095D01*
X114816952Y-161044095D01*
X114626476Y-161091714D01*
X114531238Y-161139333D01*
X114436000Y-161234571D01*
X114388380Y-161377428D01*
X114388380Y-161472666D01*
X114436000Y-161615523D01*
X114483619Y-161663142D01*
X114483619Y-162044095D02*
X114436000Y-162091714D01*
X114388380Y-162186952D01*
X114388380Y-162425047D01*
X114436000Y-162520285D01*
X114483619Y-162567904D01*
X114578857Y-162615523D01*
X114674095Y-162615523D01*
X114816952Y-162567904D01*
X115388380Y-161996476D01*
X115388380Y-162615523D01*
X114388380Y-162948857D02*
X114388380Y-163567904D01*
X114769333Y-163234571D01*
X114769333Y-163377428D01*
X114816952Y-163472666D01*
X114864571Y-163520285D01*
X114959809Y-163567904D01*
X115197904Y-163567904D01*
X115293142Y-163520285D01*
X115340761Y-163472666D01*
X115388380Y-163377428D01*
X115388380Y-163091714D01*
X115340761Y-162996476D01*
X115293142Y-162948857D01*
%TO.C,C22*%
X118847142Y-66159142D02*
X118894761Y-66111523D01*
X118942380Y-65968666D01*
X118942380Y-65873428D01*
X118894761Y-65730571D01*
X118799523Y-65635333D01*
X118704285Y-65587714D01*
X118513809Y-65540095D01*
X118370952Y-65540095D01*
X118180476Y-65587714D01*
X118085238Y-65635333D01*
X117990000Y-65730571D01*
X117942380Y-65873428D01*
X117942380Y-65968666D01*
X117990000Y-66111523D01*
X118037619Y-66159142D01*
X118037619Y-66540095D02*
X117990000Y-66587714D01*
X117942380Y-66682952D01*
X117942380Y-66921047D01*
X117990000Y-67016285D01*
X118037619Y-67063904D01*
X118132857Y-67111523D01*
X118228095Y-67111523D01*
X118370952Y-67063904D01*
X118942380Y-66492476D01*
X118942380Y-67111523D01*
X118037619Y-67492476D02*
X117990000Y-67540095D01*
X117942380Y-67635333D01*
X117942380Y-67873428D01*
X117990000Y-67968666D01*
X118037619Y-68016285D01*
X118132857Y-68063904D01*
X118228095Y-68063904D01*
X118370952Y-68016285D01*
X118942380Y-67444857D01*
X118942380Y-68063904D01*
%TO.C,C21*%
X61951142Y-65905142D02*
X61998761Y-65857523D01*
X62046380Y-65714666D01*
X62046380Y-65619428D01*
X61998761Y-65476571D01*
X61903523Y-65381333D01*
X61808285Y-65333714D01*
X61617809Y-65286095D01*
X61474952Y-65286095D01*
X61284476Y-65333714D01*
X61189238Y-65381333D01*
X61094000Y-65476571D01*
X61046380Y-65619428D01*
X61046380Y-65714666D01*
X61094000Y-65857523D01*
X61141619Y-65905142D01*
X61141619Y-66286095D02*
X61094000Y-66333714D01*
X61046380Y-66428952D01*
X61046380Y-66667047D01*
X61094000Y-66762285D01*
X61141619Y-66809904D01*
X61236857Y-66857523D01*
X61332095Y-66857523D01*
X61474952Y-66809904D01*
X62046380Y-66238476D01*
X62046380Y-66857523D01*
X62046380Y-67809904D02*
X62046380Y-67238476D01*
X62046380Y-67524190D02*
X61046380Y-67524190D01*
X61189238Y-67428952D01*
X61284476Y-67333714D01*
X61332095Y-67238476D01*
%TO.C,C20*%
X60332857Y-163805142D02*
X60380476Y-163852761D01*
X60523333Y-163900380D01*
X60618571Y-163900380D01*
X60761428Y-163852761D01*
X60856666Y-163757523D01*
X60904285Y-163662285D01*
X60951904Y-163471809D01*
X60951904Y-163328952D01*
X60904285Y-163138476D01*
X60856666Y-163043238D01*
X60761428Y-162948000D01*
X60618571Y-162900380D01*
X60523333Y-162900380D01*
X60380476Y-162948000D01*
X60332857Y-162995619D01*
X59951904Y-162995619D02*
X59904285Y-162948000D01*
X59809047Y-162900380D01*
X59570952Y-162900380D01*
X59475714Y-162948000D01*
X59428095Y-162995619D01*
X59380476Y-163090857D01*
X59380476Y-163186095D01*
X59428095Y-163328952D01*
X59999523Y-163900380D01*
X59380476Y-163900380D01*
X58761428Y-162900380D02*
X58666190Y-162900380D01*
X58570952Y-162948000D01*
X58523333Y-162995619D01*
X58475714Y-163090857D01*
X58428095Y-163281333D01*
X58428095Y-163519428D01*
X58475714Y-163709904D01*
X58523333Y-163805142D01*
X58570952Y-163852761D01*
X58666190Y-163900380D01*
X58761428Y-163900380D01*
X58856666Y-163852761D01*
X58904285Y-163805142D01*
X58951904Y-163709904D01*
X58999523Y-163519428D01*
X58999523Y-163281333D01*
X58951904Y-163090857D01*
X58904285Y-162995619D01*
X58856666Y-162948000D01*
X58761428Y-162900380D01*
%TO.C,C19*%
X60078857Y-115291142D02*
X60126476Y-115338761D01*
X60269333Y-115386380D01*
X60364571Y-115386380D01*
X60507428Y-115338761D01*
X60602666Y-115243523D01*
X60650285Y-115148285D01*
X60697904Y-114957809D01*
X60697904Y-114814952D01*
X60650285Y-114624476D01*
X60602666Y-114529238D01*
X60507428Y-114434000D01*
X60364571Y-114386380D01*
X60269333Y-114386380D01*
X60126476Y-114434000D01*
X60078857Y-114481619D01*
X59126476Y-115386380D02*
X59697904Y-115386380D01*
X59412190Y-115386380D02*
X59412190Y-114386380D01*
X59507428Y-114529238D01*
X59602666Y-114624476D01*
X59697904Y-114672095D01*
X58650285Y-115386380D02*
X58459809Y-115386380D01*
X58364571Y-115338761D01*
X58316952Y-115291142D01*
X58221714Y-115148285D01*
X58174095Y-114957809D01*
X58174095Y-114576857D01*
X58221714Y-114481619D01*
X58269333Y-114434000D01*
X58364571Y-114386380D01*
X58555047Y-114386380D01*
X58650285Y-114434000D01*
X58697904Y-114481619D01*
X58745523Y-114576857D01*
X58745523Y-114814952D01*
X58697904Y-114910190D01*
X58650285Y-114957809D01*
X58555047Y-115005428D01*
X58364571Y-115005428D01*
X58269333Y-114957809D01*
X58221714Y-114910190D01*
X58174095Y-114814952D01*
%TO.C,D28*%
X121864285Y-160008380D02*
X121864285Y-159008380D01*
X121626190Y-159008380D01*
X121483333Y-159056000D01*
X121388095Y-159151238D01*
X121340476Y-159246476D01*
X121292857Y-159436952D01*
X121292857Y-159579809D01*
X121340476Y-159770285D01*
X121388095Y-159865523D01*
X121483333Y-159960761D01*
X121626190Y-160008380D01*
X121864285Y-160008380D01*
X120911904Y-159103619D02*
X120864285Y-159056000D01*
X120769047Y-159008380D01*
X120530952Y-159008380D01*
X120435714Y-159056000D01*
X120388095Y-159103619D01*
X120340476Y-159198857D01*
X120340476Y-159294095D01*
X120388095Y-159436952D01*
X120959523Y-160008380D01*
X120340476Y-160008380D01*
X119769047Y-159436952D02*
X119864285Y-159389333D01*
X119911904Y-159341714D01*
X119959523Y-159246476D01*
X119959523Y-159198857D01*
X119911904Y-159103619D01*
X119864285Y-159056000D01*
X119769047Y-159008380D01*
X119578571Y-159008380D01*
X119483333Y-159056000D01*
X119435714Y-159103619D01*
X119388095Y-159198857D01*
X119388095Y-159246476D01*
X119435714Y-159341714D01*
X119483333Y-159389333D01*
X119578571Y-159436952D01*
X119769047Y-159436952D01*
X119864285Y-159484571D01*
X119911904Y-159532190D01*
X119959523Y-159627428D01*
X119959523Y-159817904D01*
X119911904Y-159913142D01*
X119864285Y-159960761D01*
X119769047Y-160008380D01*
X119578571Y-160008380D01*
X119483333Y-159960761D01*
X119435714Y-159913142D01*
X119388095Y-159817904D01*
X119388095Y-159627428D01*
X119435714Y-159532190D01*
X119483333Y-159484571D01*
X119578571Y-159436952D01*
X123864285Y-161883380D02*
X124435714Y-161883380D01*
X124150000Y-161883380D02*
X124150000Y-160883380D01*
X124245238Y-161026238D01*
X124340476Y-161121476D01*
X124435714Y-161169095D01*
%TO.C,D27*%
X56078285Y-163984380D02*
X56078285Y-162984380D01*
X55840190Y-162984380D01*
X55697333Y-163032000D01*
X55602095Y-163127238D01*
X55554476Y-163222476D01*
X55506857Y-163412952D01*
X55506857Y-163555809D01*
X55554476Y-163746285D01*
X55602095Y-163841523D01*
X55697333Y-163936761D01*
X55840190Y-163984380D01*
X56078285Y-163984380D01*
X55125904Y-163079619D02*
X55078285Y-163032000D01*
X54983047Y-162984380D01*
X54744952Y-162984380D01*
X54649714Y-163032000D01*
X54602095Y-163079619D01*
X54554476Y-163174857D01*
X54554476Y-163270095D01*
X54602095Y-163412952D01*
X55173523Y-163984380D01*
X54554476Y-163984380D01*
X54221142Y-162984380D02*
X53554476Y-162984380D01*
X53983047Y-163984380D01*
X51078285Y-162109380D02*
X51649714Y-162109380D01*
X51364000Y-162109380D02*
X51364000Y-161109380D01*
X51459238Y-161252238D01*
X51554476Y-161347476D01*
X51649714Y-161395095D01*
%TO.C,D26*%
X130754285Y-121058380D02*
X130754285Y-120058380D01*
X130516190Y-120058380D01*
X130373333Y-120106000D01*
X130278095Y-120201238D01*
X130230476Y-120296476D01*
X130182857Y-120486952D01*
X130182857Y-120629809D01*
X130230476Y-120820285D01*
X130278095Y-120915523D01*
X130373333Y-121010761D01*
X130516190Y-121058380D01*
X130754285Y-121058380D01*
X129801904Y-120153619D02*
X129754285Y-120106000D01*
X129659047Y-120058380D01*
X129420952Y-120058380D01*
X129325714Y-120106000D01*
X129278095Y-120153619D01*
X129230476Y-120248857D01*
X129230476Y-120344095D01*
X129278095Y-120486952D01*
X129849523Y-121058380D01*
X129230476Y-121058380D01*
X128373333Y-120058380D02*
X128563809Y-120058380D01*
X128659047Y-120106000D01*
X128706666Y-120153619D01*
X128801904Y-120296476D01*
X128849523Y-120486952D01*
X128849523Y-120867904D01*
X128801904Y-120963142D01*
X128754285Y-121010761D01*
X128659047Y-121058380D01*
X128468571Y-121058380D01*
X128373333Y-121010761D01*
X128325714Y-120963142D01*
X128278095Y-120867904D01*
X128278095Y-120629809D01*
X128325714Y-120534571D01*
X128373333Y-120486952D01*
X128468571Y-120439333D01*
X128659047Y-120439333D01*
X128754285Y-120486952D01*
X128801904Y-120534571D01*
X128849523Y-120629809D01*
X125754285Y-119183380D02*
X126325714Y-119183380D01*
X126040000Y-119183380D02*
X126040000Y-118183380D01*
X126135238Y-118326238D01*
X126230476Y-118421476D01*
X126325714Y-118469095D01*
%TO.C,D25*%
X56078285Y-115724380D02*
X56078285Y-114724380D01*
X55840190Y-114724380D01*
X55697333Y-114772000D01*
X55602095Y-114867238D01*
X55554476Y-114962476D01*
X55506857Y-115152952D01*
X55506857Y-115295809D01*
X55554476Y-115486285D01*
X55602095Y-115581523D01*
X55697333Y-115676761D01*
X55840190Y-115724380D01*
X56078285Y-115724380D01*
X55125904Y-114819619D02*
X55078285Y-114772000D01*
X54983047Y-114724380D01*
X54744952Y-114724380D01*
X54649714Y-114772000D01*
X54602095Y-114819619D01*
X54554476Y-114914857D01*
X54554476Y-115010095D01*
X54602095Y-115152952D01*
X55173523Y-115724380D01*
X54554476Y-115724380D01*
X53649714Y-114724380D02*
X54125904Y-114724380D01*
X54173523Y-115200571D01*
X54125904Y-115152952D01*
X54030666Y-115105333D01*
X53792571Y-115105333D01*
X53697333Y-115152952D01*
X53649714Y-115200571D01*
X53602095Y-115295809D01*
X53602095Y-115533904D01*
X53649714Y-115629142D01*
X53697333Y-115676761D01*
X53792571Y-115724380D01*
X54030666Y-115724380D01*
X54125904Y-115676761D01*
X54173523Y-115629142D01*
X51078285Y-113849380D02*
X51649714Y-113849380D01*
X51364000Y-113849380D02*
X51364000Y-112849380D01*
X51459238Y-112992238D01*
X51554476Y-113087476D01*
X51649714Y-113135095D01*
%TO.C,D24*%
X121864285Y-66028380D02*
X121864285Y-65028380D01*
X121626190Y-65028380D01*
X121483333Y-65076000D01*
X121388095Y-65171238D01*
X121340476Y-65266476D01*
X121292857Y-65456952D01*
X121292857Y-65599809D01*
X121340476Y-65790285D01*
X121388095Y-65885523D01*
X121483333Y-65980761D01*
X121626190Y-66028380D01*
X121864285Y-66028380D01*
X120911904Y-65123619D02*
X120864285Y-65076000D01*
X120769047Y-65028380D01*
X120530952Y-65028380D01*
X120435714Y-65076000D01*
X120388095Y-65123619D01*
X120340476Y-65218857D01*
X120340476Y-65314095D01*
X120388095Y-65456952D01*
X120959523Y-66028380D01*
X120340476Y-66028380D01*
X119483333Y-65361714D02*
X119483333Y-66028380D01*
X119721428Y-64980761D02*
X119959523Y-65695047D01*
X119340476Y-65695047D01*
X123864285Y-67903380D02*
X124435714Y-67903380D01*
X124150000Y-67903380D02*
X124150000Y-66903380D01*
X124245238Y-67046238D01*
X124340476Y-67141476D01*
X124435714Y-67189095D01*
%TO.C,D23*%
X64968285Y-66028380D02*
X64968285Y-65028380D01*
X64730190Y-65028380D01*
X64587333Y-65076000D01*
X64492095Y-65171238D01*
X64444476Y-65266476D01*
X64396857Y-65456952D01*
X64396857Y-65599809D01*
X64444476Y-65790285D01*
X64492095Y-65885523D01*
X64587333Y-65980761D01*
X64730190Y-66028380D01*
X64968285Y-66028380D01*
X64015904Y-65123619D02*
X63968285Y-65076000D01*
X63873047Y-65028380D01*
X63634952Y-65028380D01*
X63539714Y-65076000D01*
X63492095Y-65123619D01*
X63444476Y-65218857D01*
X63444476Y-65314095D01*
X63492095Y-65456952D01*
X64063523Y-66028380D01*
X63444476Y-66028380D01*
X63111142Y-65028380D02*
X62492095Y-65028380D01*
X62825428Y-65409333D01*
X62682571Y-65409333D01*
X62587333Y-65456952D01*
X62539714Y-65504571D01*
X62492095Y-65599809D01*
X62492095Y-65837904D01*
X62539714Y-65933142D01*
X62587333Y-65980761D01*
X62682571Y-66028380D01*
X62968285Y-66028380D01*
X63063523Y-65980761D01*
X63111142Y-65933142D01*
X66968285Y-67903380D02*
X67539714Y-67903380D01*
X67254000Y-67903380D02*
X67254000Y-66903380D01*
X67349238Y-67046238D01*
X67444476Y-67141476D01*
X67539714Y-67189095D01*
%TO.C,R1*%
X71954380Y-37679333D02*
X71478190Y-37346000D01*
X71954380Y-37107904D02*
X70954380Y-37107904D01*
X70954380Y-37488857D01*
X71002000Y-37584095D01*
X71049619Y-37631714D01*
X71144857Y-37679333D01*
X71287714Y-37679333D01*
X71382952Y-37631714D01*
X71430571Y-37584095D01*
X71478190Y-37488857D01*
X71478190Y-37107904D01*
X71954380Y-38631714D02*
X71954380Y-38060285D01*
X71954380Y-38346000D02*
X70954380Y-38346000D01*
X71097238Y-38250761D01*
X71192476Y-38155523D01*
X71240095Y-38060285D01*
%TO.C,MX2*%
X121935714Y-116276380D02*
X121935714Y-115276380D01*
X121602380Y-115990666D01*
X121269047Y-115276380D01*
X121269047Y-116276380D01*
X120888095Y-115276380D02*
X120221428Y-116276380D01*
X120221428Y-115276380D02*
X120888095Y-116276380D01*
X119888095Y-115371619D02*
X119840476Y-115324000D01*
X119745238Y-115276380D01*
X119507142Y-115276380D01*
X119411904Y-115324000D01*
X119364285Y-115371619D01*
X119316666Y-115466857D01*
X119316666Y-115562095D01*
X119364285Y-115704952D01*
X119935714Y-116276380D01*
X119316666Y-116276380D01*
%TO.C,MX3*%
X121935714Y-154376380D02*
X121935714Y-153376380D01*
X121602380Y-154090666D01*
X121269047Y-153376380D01*
X121269047Y-154376380D01*
X120888095Y-153376380D02*
X120221428Y-154376380D01*
X120221428Y-153376380D02*
X120888095Y-154376380D01*
X119935714Y-153376380D02*
X119316666Y-153376380D01*
X119650000Y-153757333D01*
X119507142Y-153757333D01*
X119411904Y-153804952D01*
X119364285Y-153852571D01*
X119316666Y-153947809D01*
X119316666Y-154185904D01*
X119364285Y-154281142D01*
X119411904Y-154328761D01*
X119507142Y-154376380D01*
X119792857Y-154376380D01*
X119888095Y-154328761D01*
X119935714Y-154281142D01*
%TO.C,MX1*%
X74310714Y-163837880D02*
X74310714Y-162837880D01*
X73977380Y-163552166D01*
X73644047Y-162837880D01*
X73644047Y-163837880D01*
X73263095Y-162837880D02*
X72596428Y-163837880D01*
X72596428Y-162837880D02*
X73263095Y-163837880D01*
X71691666Y-163837880D02*
X72263095Y-163837880D01*
X71977380Y-163837880D02*
X71977380Y-162837880D01*
X72072619Y-162980738D01*
X72167857Y-163075976D01*
X72263095Y-163123595D01*
%TO.C,D22*%
X121864285Y-153808380D02*
X121864285Y-152808380D01*
X121626190Y-152808380D01*
X121483333Y-152856000D01*
X121388095Y-152951238D01*
X121340476Y-153046476D01*
X121292857Y-153236952D01*
X121292857Y-153379809D01*
X121340476Y-153570285D01*
X121388095Y-153665523D01*
X121483333Y-153760761D01*
X121626190Y-153808380D01*
X121864285Y-153808380D01*
X120911904Y-152903619D02*
X120864285Y-152856000D01*
X120769047Y-152808380D01*
X120530952Y-152808380D01*
X120435714Y-152856000D01*
X120388095Y-152903619D01*
X120340476Y-152998857D01*
X120340476Y-153094095D01*
X120388095Y-153236952D01*
X120959523Y-153808380D01*
X120340476Y-153808380D01*
X119959523Y-152903619D02*
X119911904Y-152856000D01*
X119816666Y-152808380D01*
X119578571Y-152808380D01*
X119483333Y-152856000D01*
X119435714Y-152903619D01*
X119388095Y-152998857D01*
X119388095Y-153094095D01*
X119435714Y-153236952D01*
X120007142Y-153808380D01*
X119388095Y-153808380D01*
%TO.C,D21*%
X121864285Y-115708380D02*
X121864285Y-114708380D01*
X121626190Y-114708380D01*
X121483333Y-114756000D01*
X121388095Y-114851238D01*
X121340476Y-114946476D01*
X121292857Y-115136952D01*
X121292857Y-115279809D01*
X121340476Y-115470285D01*
X121388095Y-115565523D01*
X121483333Y-115660761D01*
X121626190Y-115708380D01*
X121864285Y-115708380D01*
X120911904Y-114803619D02*
X120864285Y-114756000D01*
X120769047Y-114708380D01*
X120530952Y-114708380D01*
X120435714Y-114756000D01*
X120388095Y-114803619D01*
X120340476Y-114898857D01*
X120340476Y-114994095D01*
X120388095Y-115136952D01*
X120959523Y-115708380D01*
X120340476Y-115708380D01*
X119388095Y-115708380D02*
X119959523Y-115708380D01*
X119673809Y-115708380D02*
X119673809Y-114708380D01*
X119769047Y-114851238D01*
X119864285Y-114946476D01*
X119959523Y-114994095D01*
%TO.C,D20*%
X74239285Y-162952380D02*
X74239285Y-161952380D01*
X74001190Y-161952380D01*
X73858333Y-162000000D01*
X73763095Y-162095238D01*
X73715476Y-162190476D01*
X73667857Y-162380952D01*
X73667857Y-162523809D01*
X73715476Y-162714285D01*
X73763095Y-162809523D01*
X73858333Y-162904761D01*
X74001190Y-162952380D01*
X74239285Y-162952380D01*
X73286904Y-162047619D02*
X73239285Y-162000000D01*
X73144047Y-161952380D01*
X72905952Y-161952380D01*
X72810714Y-162000000D01*
X72763095Y-162047619D01*
X72715476Y-162142857D01*
X72715476Y-162238095D01*
X72763095Y-162380952D01*
X73334523Y-162952380D01*
X72715476Y-162952380D01*
X72096428Y-161952380D02*
X72001190Y-161952380D01*
X71905952Y-162000000D01*
X71858333Y-162047619D01*
X71810714Y-162142857D01*
X71763095Y-162333333D01*
X71763095Y-162571428D01*
X71810714Y-162761904D01*
X71858333Y-162857142D01*
X71905952Y-162904761D01*
X72001190Y-162952380D01*
X72096428Y-162952380D01*
X72191666Y-162904761D01*
X72239285Y-162857142D01*
X72286904Y-162761904D01*
X72334523Y-162571428D01*
X72334523Y-162333333D01*
X72286904Y-162142857D01*
X72239285Y-162047619D01*
X72191666Y-162000000D01*
X72096428Y-161952380D01*
%TO.C,U1*%
X92407619Y-50104523D02*
X92407619Y-51132619D01*
X92347142Y-51253571D01*
X92286666Y-51314047D01*
X92165714Y-51374523D01*
X91923809Y-51374523D01*
X91802857Y-51314047D01*
X91742380Y-51253571D01*
X91681904Y-51132619D01*
X91681904Y-50104523D01*
X90411904Y-51374523D02*
X91137619Y-51374523D01*
X90774761Y-51374523D02*
X90774761Y-50104523D01*
X90895714Y-50285952D01*
X91016666Y-50406904D01*
X91137619Y-50467380D01*
X97638809Y-51374523D02*
X97638809Y-50104523D01*
X97155000Y-50104523D01*
X97034047Y-50165000D01*
X96973571Y-50225476D01*
X96913095Y-50346428D01*
X96913095Y-50527857D01*
X96973571Y-50648809D01*
X97034047Y-50709285D01*
X97155000Y-50769761D01*
X97638809Y-50769761D01*
X95643095Y-51374523D02*
X96066428Y-50769761D01*
X96368809Y-51374523D02*
X96368809Y-50104523D01*
X95885000Y-50104523D01*
X95764047Y-50165000D01*
X95703571Y-50225476D01*
X95643095Y-50346428D01*
X95643095Y-50527857D01*
X95703571Y-50648809D01*
X95764047Y-50709285D01*
X95885000Y-50769761D01*
X96368809Y-50769761D01*
X94856904Y-50104523D02*
X94615000Y-50104523D01*
X94494047Y-50165000D01*
X94373095Y-50285952D01*
X94312619Y-50527857D01*
X94312619Y-50951190D01*
X94373095Y-51193095D01*
X94494047Y-51314047D01*
X94615000Y-51374523D01*
X94856904Y-51374523D01*
X94977857Y-51314047D01*
X95098809Y-51193095D01*
X95159285Y-50951190D01*
X95159285Y-50527857D01*
X95098809Y-50285952D01*
X94977857Y-50165000D01*
X94856904Y-50104523D01*
X94070714Y-51495476D02*
X93103095Y-51495476D01*
X92800714Y-51374523D02*
X92800714Y-50104523D01*
X92377380Y-51011666D01*
X91954047Y-50104523D01*
X91954047Y-51374523D01*
X91349285Y-51374523D02*
X91349285Y-50104523D01*
X90018809Y-51253571D02*
X90079285Y-51314047D01*
X90260714Y-51374523D01*
X90381666Y-51374523D01*
X90563095Y-51314047D01*
X90684047Y-51193095D01*
X90744523Y-51072142D01*
X90805000Y-50830238D01*
X90805000Y-50648809D01*
X90744523Y-50406904D01*
X90684047Y-50285952D01*
X90563095Y-50165000D01*
X90381666Y-50104523D01*
X90260714Y-50104523D01*
X90079285Y-50165000D01*
X90018809Y-50225476D01*
X88748809Y-51374523D02*
X89172142Y-50769761D01*
X89474523Y-51374523D02*
X89474523Y-50104523D01*
X88990714Y-50104523D01*
X88869761Y-50165000D01*
X88809285Y-50225476D01*
X88748809Y-50346428D01*
X88748809Y-50527857D01*
X88809285Y-50648809D01*
X88869761Y-50709285D01*
X88990714Y-50769761D01*
X89474523Y-50769761D01*
X87962619Y-50104523D02*
X87720714Y-50104523D01*
X87599761Y-50165000D01*
X87478809Y-50285952D01*
X87418333Y-50527857D01*
X87418333Y-50951190D01*
X87478809Y-51193095D01*
X87599761Y-51314047D01*
X87720714Y-51374523D01*
X87962619Y-51374523D01*
X88083571Y-51314047D01*
X88204523Y-51193095D01*
X88265000Y-50951190D01*
X88265000Y-50527857D01*
X88204523Y-50285952D01*
X88083571Y-50165000D01*
X87962619Y-50104523D01*
X87176428Y-51495476D02*
X86208809Y-51495476D01*
X85180714Y-51253571D02*
X85241190Y-51314047D01*
X85422619Y-51374523D01*
X85543571Y-51374523D01*
X85725000Y-51314047D01*
X85845952Y-51193095D01*
X85906428Y-51072142D01*
X85966904Y-50830238D01*
X85966904Y-50648809D01*
X85906428Y-50406904D01*
X85845952Y-50285952D01*
X85725000Y-50165000D01*
X85543571Y-50104523D01*
X85422619Y-50104523D01*
X85241190Y-50165000D01*
X85180714Y-50225476D01*
%TO.C,D19*%
X119133630Y-54983214D02*
X118133630Y-54983214D01*
X118133630Y-55221309D01*
X118181250Y-55364166D01*
X118276488Y-55459404D01*
X118371726Y-55507023D01*
X118562202Y-55554642D01*
X118705059Y-55554642D01*
X118895535Y-55507023D01*
X118990773Y-55459404D01*
X119086011Y-55364166D01*
X119133630Y-55221309D01*
X119133630Y-54983214D01*
X119133630Y-56507023D02*
X119133630Y-55935595D01*
X119133630Y-56221309D02*
X118133630Y-56221309D01*
X118276488Y-56126071D01*
X118371726Y-56030833D01*
X118419345Y-55935595D01*
X119133630Y-56983214D02*
X119133630Y-57173690D01*
X119086011Y-57268928D01*
X119038392Y-57316547D01*
X118895535Y-57411785D01*
X118705059Y-57459404D01*
X118324107Y-57459404D01*
X118228869Y-57411785D01*
X118181250Y-57364166D01*
X118133630Y-57268928D01*
X118133630Y-57078452D01*
X118181250Y-56983214D01*
X118228869Y-56935595D01*
X118324107Y-56887976D01*
X118562202Y-56887976D01*
X118657440Y-56935595D01*
X118705059Y-56983214D01*
X118752678Y-57078452D01*
X118752678Y-57268928D01*
X118705059Y-57364166D01*
X118657440Y-57411785D01*
X118562202Y-57459404D01*
%TO.C,D18*%
X130722380Y-149789714D02*
X129722380Y-149789714D01*
X129722380Y-150027809D01*
X129770000Y-150170666D01*
X129865238Y-150265904D01*
X129960476Y-150313523D01*
X130150952Y-150361142D01*
X130293809Y-150361142D01*
X130484285Y-150313523D01*
X130579523Y-150265904D01*
X130674761Y-150170666D01*
X130722380Y-150027809D01*
X130722380Y-149789714D01*
X130722380Y-151313523D02*
X130722380Y-150742095D01*
X130722380Y-151027809D02*
X129722380Y-151027809D01*
X129865238Y-150932571D01*
X129960476Y-150837333D01*
X130008095Y-150742095D01*
X130150952Y-151884952D02*
X130103333Y-151789714D01*
X130055714Y-151742095D01*
X129960476Y-151694476D01*
X129912857Y-151694476D01*
X129817619Y-151742095D01*
X129770000Y-151789714D01*
X129722380Y-151884952D01*
X129722380Y-152075428D01*
X129770000Y-152170666D01*
X129817619Y-152218285D01*
X129912857Y-152265904D01*
X129960476Y-152265904D01*
X130055714Y-152218285D01*
X130103333Y-152170666D01*
X130150952Y-152075428D01*
X130150952Y-151884952D01*
X130198571Y-151789714D01*
X130246190Y-151742095D01*
X130341428Y-151694476D01*
X130531904Y-151694476D01*
X130627142Y-151742095D01*
X130674761Y-151789714D01*
X130722380Y-151884952D01*
X130722380Y-152075428D01*
X130674761Y-152170666D01*
X130627142Y-152218285D01*
X130531904Y-152265904D01*
X130341428Y-152265904D01*
X130246190Y-152218285D01*
X130198571Y-152170666D01*
X130150952Y-152075428D01*
%TO.C,D17*%
X130976380Y-111053714D02*
X129976380Y-111053714D01*
X129976380Y-111291809D01*
X130024000Y-111434666D01*
X130119238Y-111529904D01*
X130214476Y-111577523D01*
X130404952Y-111625142D01*
X130547809Y-111625142D01*
X130738285Y-111577523D01*
X130833523Y-111529904D01*
X130928761Y-111434666D01*
X130976380Y-111291809D01*
X130976380Y-111053714D01*
X130976380Y-112577523D02*
X130976380Y-112006095D01*
X130976380Y-112291809D02*
X129976380Y-112291809D01*
X130119238Y-112196571D01*
X130214476Y-112101333D01*
X130262095Y-112006095D01*
X129976380Y-112910857D02*
X129976380Y-113577523D01*
X130976380Y-113148952D01*
%TO.C,D16*%
X131039880Y-82923214D02*
X130039880Y-82923214D01*
X130039880Y-83161309D01*
X130087500Y-83304166D01*
X130182738Y-83399404D01*
X130277976Y-83447023D01*
X130468452Y-83494642D01*
X130611309Y-83494642D01*
X130801785Y-83447023D01*
X130897023Y-83399404D01*
X130992261Y-83304166D01*
X131039880Y-83161309D01*
X131039880Y-82923214D01*
X131039880Y-84447023D02*
X131039880Y-83875595D01*
X131039880Y-84161309D02*
X130039880Y-84161309D01*
X130182738Y-84066071D01*
X130277976Y-83970833D01*
X130325595Y-83875595D01*
X130039880Y-85304166D02*
X130039880Y-85113690D01*
X130087500Y-85018452D01*
X130135119Y-84970833D01*
X130277976Y-84875595D01*
X130468452Y-84827976D01*
X130849404Y-84827976D01*
X130944642Y-84875595D01*
X130992261Y-84923214D01*
X131039880Y-85018452D01*
X131039880Y-85208928D01*
X130992261Y-85304166D01*
X130944642Y-85351785D01*
X130849404Y-85399404D01*
X130611309Y-85399404D01*
X130516071Y-85351785D01*
X130468452Y-85304166D01*
X130420833Y-85208928D01*
X130420833Y-85018452D01*
X130468452Y-84923214D01*
X130516071Y-84875595D01*
X130611309Y-84827976D01*
%TO.C,D15*%
X111164380Y-162615714D02*
X110164380Y-162615714D01*
X110164380Y-162853809D01*
X110212000Y-162996666D01*
X110307238Y-163091904D01*
X110402476Y-163139523D01*
X110592952Y-163187142D01*
X110735809Y-163187142D01*
X110926285Y-163139523D01*
X111021523Y-163091904D01*
X111116761Y-162996666D01*
X111164380Y-162853809D01*
X111164380Y-162615714D01*
X111164380Y-164139523D02*
X111164380Y-163568095D01*
X111164380Y-163853809D02*
X110164380Y-163853809D01*
X110307238Y-163758571D01*
X110402476Y-163663333D01*
X110450095Y-163568095D01*
X110164380Y-165044285D02*
X110164380Y-164568095D01*
X110640571Y-164520476D01*
X110592952Y-164568095D01*
X110545333Y-164663333D01*
X110545333Y-164901428D01*
X110592952Y-164996666D01*
X110640571Y-165044285D01*
X110735809Y-165091904D01*
X110973904Y-165091904D01*
X111069142Y-165044285D01*
X111116761Y-164996666D01*
X111164380Y-164901428D01*
X111164380Y-164663333D01*
X111116761Y-164568095D01*
X111069142Y-164520476D01*
%TO.C,D14*%
X111672380Y-141533714D02*
X110672380Y-141533714D01*
X110672380Y-141771809D01*
X110720000Y-141914666D01*
X110815238Y-142009904D01*
X110910476Y-142057523D01*
X111100952Y-142105142D01*
X111243809Y-142105142D01*
X111434285Y-142057523D01*
X111529523Y-142009904D01*
X111624761Y-141914666D01*
X111672380Y-141771809D01*
X111672380Y-141533714D01*
X111672380Y-143057523D02*
X111672380Y-142486095D01*
X111672380Y-142771809D02*
X110672380Y-142771809D01*
X110815238Y-142676571D01*
X110910476Y-142581333D01*
X110958095Y-142486095D01*
X111005714Y-143914666D02*
X111672380Y-143914666D01*
X110624761Y-143676571D02*
X111339047Y-143438476D01*
X111339047Y-144057523D01*
%TO.C,D13*%
X110910380Y-124641714D02*
X109910380Y-124641714D01*
X109910380Y-124879809D01*
X109958000Y-125022666D01*
X110053238Y-125117904D01*
X110148476Y-125165523D01*
X110338952Y-125213142D01*
X110481809Y-125213142D01*
X110672285Y-125165523D01*
X110767523Y-125117904D01*
X110862761Y-125022666D01*
X110910380Y-124879809D01*
X110910380Y-124641714D01*
X110910380Y-126165523D02*
X110910380Y-125594095D01*
X110910380Y-125879809D02*
X109910380Y-125879809D01*
X110053238Y-125784571D01*
X110148476Y-125689333D01*
X110196095Y-125594095D01*
X109910380Y-126498857D02*
X109910380Y-127117904D01*
X110291333Y-126784571D01*
X110291333Y-126927428D01*
X110338952Y-127022666D01*
X110386571Y-127070285D01*
X110481809Y-127117904D01*
X110719904Y-127117904D01*
X110815142Y-127070285D01*
X110862761Y-127022666D01*
X110910380Y-126927428D01*
X110910380Y-126641714D01*
X110862761Y-126546476D01*
X110815142Y-126498857D01*
%TO.C,D12*%
X111672380Y-103433714D02*
X110672380Y-103433714D01*
X110672380Y-103671809D01*
X110720000Y-103814666D01*
X110815238Y-103909904D01*
X110910476Y-103957523D01*
X111100952Y-104005142D01*
X111243809Y-104005142D01*
X111434285Y-103957523D01*
X111529523Y-103909904D01*
X111624761Y-103814666D01*
X111672380Y-103671809D01*
X111672380Y-103433714D01*
X111672380Y-104957523D02*
X111672380Y-104386095D01*
X111672380Y-104671809D02*
X110672380Y-104671809D01*
X110815238Y-104576571D01*
X110910476Y-104481333D01*
X110958095Y-104386095D01*
X110767619Y-105338476D02*
X110720000Y-105386095D01*
X110672380Y-105481333D01*
X110672380Y-105719428D01*
X110720000Y-105814666D01*
X110767619Y-105862285D01*
X110862857Y-105909904D01*
X110958095Y-105909904D01*
X111100952Y-105862285D01*
X111672380Y-105290857D01*
X111672380Y-105909904D01*
%TO.C,D11*%
X111989880Y-82923214D02*
X110989880Y-82923214D01*
X110989880Y-83161309D01*
X111037500Y-83304166D01*
X111132738Y-83399404D01*
X111227976Y-83447023D01*
X111418452Y-83494642D01*
X111561309Y-83494642D01*
X111751785Y-83447023D01*
X111847023Y-83399404D01*
X111942261Y-83304166D01*
X111989880Y-83161309D01*
X111989880Y-82923214D01*
X111989880Y-84447023D02*
X111989880Y-83875595D01*
X111989880Y-84161309D02*
X110989880Y-84161309D01*
X111132738Y-84066071D01*
X111227976Y-83970833D01*
X111275595Y-83875595D01*
X111989880Y-85399404D02*
X111989880Y-84827976D01*
X111989880Y-85113690D02*
X110989880Y-85113690D01*
X111132738Y-85018452D01*
X111227976Y-84923214D01*
X111275595Y-84827976D01*
%TO.C,D10*%
X92939880Y-140073214D02*
X91939880Y-140073214D01*
X91939880Y-140311309D01*
X91987500Y-140454166D01*
X92082738Y-140549404D01*
X92177976Y-140597023D01*
X92368452Y-140644642D01*
X92511309Y-140644642D01*
X92701785Y-140597023D01*
X92797023Y-140549404D01*
X92892261Y-140454166D01*
X92939880Y-140311309D01*
X92939880Y-140073214D01*
X92939880Y-141597023D02*
X92939880Y-141025595D01*
X92939880Y-141311309D02*
X91939880Y-141311309D01*
X92082738Y-141216071D01*
X92177976Y-141120833D01*
X92225595Y-141025595D01*
X91939880Y-142216071D02*
X91939880Y-142311309D01*
X91987500Y-142406547D01*
X92035119Y-142454166D01*
X92130357Y-142501785D01*
X92320833Y-142549404D01*
X92558928Y-142549404D01*
X92749404Y-142501785D01*
X92844642Y-142454166D01*
X92892261Y-142406547D01*
X92939880Y-142311309D01*
X92939880Y-142216071D01*
X92892261Y-142120833D01*
X92844642Y-142073214D01*
X92749404Y-142025595D01*
X92558928Y-141977976D01*
X92320833Y-141977976D01*
X92130357Y-142025595D01*
X92035119Y-142073214D01*
X91987500Y-142120833D01*
X91939880Y-142216071D01*
%TO.C,D9*%
X92939880Y-121499404D02*
X91939880Y-121499404D01*
X91939880Y-121737500D01*
X91987500Y-121880357D01*
X92082738Y-121975595D01*
X92177976Y-122023214D01*
X92368452Y-122070833D01*
X92511309Y-122070833D01*
X92701785Y-122023214D01*
X92797023Y-121975595D01*
X92892261Y-121880357D01*
X92939880Y-121737500D01*
X92939880Y-121499404D01*
X92939880Y-122547023D02*
X92939880Y-122737500D01*
X92892261Y-122832738D01*
X92844642Y-122880357D01*
X92701785Y-122975595D01*
X92511309Y-123023214D01*
X92130357Y-123023214D01*
X92035119Y-122975595D01*
X91987500Y-122927976D01*
X91939880Y-122832738D01*
X91939880Y-122642261D01*
X91987500Y-122547023D01*
X92035119Y-122499404D01*
X92130357Y-122451785D01*
X92368452Y-122451785D01*
X92463690Y-122499404D01*
X92511309Y-122547023D01*
X92558928Y-122642261D01*
X92558928Y-122832738D01*
X92511309Y-122927976D01*
X92463690Y-122975595D01*
X92368452Y-123023214D01*
%TO.C,D8*%
X92939880Y-102449404D02*
X91939880Y-102449404D01*
X91939880Y-102687500D01*
X91987500Y-102830357D01*
X92082738Y-102925595D01*
X92177976Y-102973214D01*
X92368452Y-103020833D01*
X92511309Y-103020833D01*
X92701785Y-102973214D01*
X92797023Y-102925595D01*
X92892261Y-102830357D01*
X92939880Y-102687500D01*
X92939880Y-102449404D01*
X92368452Y-103592261D02*
X92320833Y-103497023D01*
X92273214Y-103449404D01*
X92177976Y-103401785D01*
X92130357Y-103401785D01*
X92035119Y-103449404D01*
X91987500Y-103497023D01*
X91939880Y-103592261D01*
X91939880Y-103782738D01*
X91987500Y-103877976D01*
X92035119Y-103925595D01*
X92130357Y-103973214D01*
X92177976Y-103973214D01*
X92273214Y-103925595D01*
X92320833Y-103877976D01*
X92368452Y-103782738D01*
X92368452Y-103592261D01*
X92416071Y-103497023D01*
X92463690Y-103449404D01*
X92558928Y-103401785D01*
X92749404Y-103401785D01*
X92844642Y-103449404D01*
X92892261Y-103497023D01*
X92939880Y-103592261D01*
X92939880Y-103782738D01*
X92892261Y-103877976D01*
X92844642Y-103925595D01*
X92749404Y-103973214D01*
X92558928Y-103973214D01*
X92463690Y-103925595D01*
X92416071Y-103877976D01*
X92368452Y-103782738D01*
%TO.C,D7*%
X92939880Y-83399404D02*
X91939880Y-83399404D01*
X91939880Y-83637500D01*
X91987500Y-83780357D01*
X92082738Y-83875595D01*
X92177976Y-83923214D01*
X92368452Y-83970833D01*
X92511309Y-83970833D01*
X92701785Y-83923214D01*
X92797023Y-83875595D01*
X92892261Y-83780357D01*
X92939880Y-83637500D01*
X92939880Y-83399404D01*
X91939880Y-84304166D02*
X91939880Y-84970833D01*
X92939880Y-84542261D01*
%TO.C,D6*%
X83414880Y-159599404D02*
X82414880Y-159599404D01*
X82414880Y-159837500D01*
X82462500Y-159980357D01*
X82557738Y-160075595D01*
X82652976Y-160123214D01*
X82843452Y-160170833D01*
X82986309Y-160170833D01*
X83176785Y-160123214D01*
X83272023Y-160075595D01*
X83367261Y-159980357D01*
X83414880Y-159837500D01*
X83414880Y-159599404D01*
X82414880Y-161027976D02*
X82414880Y-160837500D01*
X82462500Y-160742261D01*
X82510119Y-160694642D01*
X82652976Y-160599404D01*
X82843452Y-160551785D01*
X83224404Y-160551785D01*
X83319642Y-160599404D01*
X83367261Y-160647023D01*
X83414880Y-160742261D01*
X83414880Y-160932738D01*
X83367261Y-161027976D01*
X83319642Y-161075595D01*
X83224404Y-161123214D01*
X82986309Y-161123214D01*
X82891071Y-161075595D01*
X82843452Y-161027976D01*
X82795833Y-160932738D01*
X82795833Y-160742261D01*
X82843452Y-160647023D01*
X82891071Y-160599404D01*
X82986309Y-160551785D01*
%TO.C,D5*%
X73889880Y-140549404D02*
X72889880Y-140549404D01*
X72889880Y-140787500D01*
X72937500Y-140930357D01*
X73032738Y-141025595D01*
X73127976Y-141073214D01*
X73318452Y-141120833D01*
X73461309Y-141120833D01*
X73651785Y-141073214D01*
X73747023Y-141025595D01*
X73842261Y-140930357D01*
X73889880Y-140787500D01*
X73889880Y-140549404D01*
X72889880Y-142025595D02*
X72889880Y-141549404D01*
X73366071Y-141501785D01*
X73318452Y-141549404D01*
X73270833Y-141644642D01*
X73270833Y-141882738D01*
X73318452Y-141977976D01*
X73366071Y-142025595D01*
X73461309Y-142073214D01*
X73699404Y-142073214D01*
X73794642Y-142025595D01*
X73842261Y-141977976D01*
X73889880Y-141882738D01*
X73889880Y-141644642D01*
X73842261Y-141549404D01*
X73794642Y-141501785D01*
%TO.C,D4*%
X73889880Y-121499404D02*
X72889880Y-121499404D01*
X72889880Y-121737500D01*
X72937500Y-121880357D01*
X73032738Y-121975595D01*
X73127976Y-122023214D01*
X73318452Y-122070833D01*
X73461309Y-122070833D01*
X73651785Y-122023214D01*
X73747023Y-121975595D01*
X73842261Y-121880357D01*
X73889880Y-121737500D01*
X73889880Y-121499404D01*
X73223214Y-122927976D02*
X73889880Y-122927976D01*
X72842261Y-122689880D02*
X73556547Y-122451785D01*
X73556547Y-123070833D01*
%TO.C,D3*%
X73889880Y-102449404D02*
X72889880Y-102449404D01*
X72889880Y-102687500D01*
X72937500Y-102830357D01*
X73032738Y-102925595D01*
X73127976Y-102973214D01*
X73318452Y-103020833D01*
X73461309Y-103020833D01*
X73651785Y-102973214D01*
X73747023Y-102925595D01*
X73842261Y-102830357D01*
X73889880Y-102687500D01*
X73889880Y-102449404D01*
X72889880Y-103354166D02*
X72889880Y-103973214D01*
X73270833Y-103639880D01*
X73270833Y-103782738D01*
X73318452Y-103877976D01*
X73366071Y-103925595D01*
X73461309Y-103973214D01*
X73699404Y-103973214D01*
X73794642Y-103925595D01*
X73842261Y-103877976D01*
X73889880Y-103782738D01*
X73889880Y-103497023D01*
X73842261Y-103401785D01*
X73794642Y-103354166D01*
%TO.C,D2*%
X73889880Y-83399404D02*
X72889880Y-83399404D01*
X72889880Y-83637500D01*
X72937500Y-83780357D01*
X73032738Y-83875595D01*
X73127976Y-83923214D01*
X73318452Y-83970833D01*
X73461309Y-83970833D01*
X73651785Y-83923214D01*
X73747023Y-83875595D01*
X73842261Y-83780357D01*
X73889880Y-83637500D01*
X73889880Y-83399404D01*
X72985119Y-84351785D02*
X72937500Y-84399404D01*
X72889880Y-84494642D01*
X72889880Y-84732738D01*
X72937500Y-84827976D01*
X72985119Y-84875595D01*
X73080357Y-84923214D01*
X73175595Y-84923214D01*
X73318452Y-84875595D01*
X73889880Y-84304166D01*
X73889880Y-84923214D01*
%TO.C,D1*%
X73889880Y-55459404D02*
X72889880Y-55459404D01*
X72889880Y-55697500D01*
X72937500Y-55840357D01*
X73032738Y-55935595D01*
X73127976Y-55983214D01*
X73318452Y-56030833D01*
X73461309Y-56030833D01*
X73651785Y-55983214D01*
X73747023Y-55935595D01*
X73842261Y-55840357D01*
X73889880Y-55697500D01*
X73889880Y-55459404D01*
X73889880Y-56983214D02*
X73889880Y-56411785D01*
X73889880Y-56697500D02*
X72889880Y-56697500D01*
X73032738Y-56602261D01*
X73127976Y-56507023D01*
X73175595Y-56411785D01*
%TO.C,C18*%
X113769142Y-155313142D02*
X113816761Y-155265523D01*
X113864380Y-155122666D01*
X113864380Y-155027428D01*
X113816761Y-154884571D01*
X113721523Y-154789333D01*
X113626285Y-154741714D01*
X113435809Y-154694095D01*
X113292952Y-154694095D01*
X113102476Y-154741714D01*
X113007238Y-154789333D01*
X112912000Y-154884571D01*
X112864380Y-155027428D01*
X112864380Y-155122666D01*
X112912000Y-155265523D01*
X112959619Y-155313142D01*
X113864380Y-156265523D02*
X113864380Y-155694095D01*
X113864380Y-155979809D02*
X112864380Y-155979809D01*
X113007238Y-155884571D01*
X113102476Y-155789333D01*
X113150095Y-155694095D01*
X113292952Y-156836952D02*
X113245333Y-156741714D01*
X113197714Y-156694095D01*
X113102476Y-156646476D01*
X113054857Y-156646476D01*
X112959619Y-156694095D01*
X112912000Y-156741714D01*
X112864380Y-156836952D01*
X112864380Y-157027428D01*
X112912000Y-157122666D01*
X112959619Y-157170285D01*
X113054857Y-157217904D01*
X113102476Y-157217904D01*
X113197714Y-157170285D01*
X113245333Y-157122666D01*
X113292952Y-157027428D01*
X113292952Y-156836952D01*
X113340571Y-156741714D01*
X113388190Y-156694095D01*
X113483428Y-156646476D01*
X113673904Y-156646476D01*
X113769142Y-156694095D01*
X113816761Y-156741714D01*
X113864380Y-156836952D01*
X113864380Y-157027428D01*
X113816761Y-157122666D01*
X113769142Y-157170285D01*
X113673904Y-157217904D01*
X113483428Y-157217904D01*
X113388190Y-157170285D01*
X113340571Y-157122666D01*
X113292952Y-157027428D01*
%TO.C,C17*%
X114023142Y-116959142D02*
X114070761Y-116911523D01*
X114118380Y-116768666D01*
X114118380Y-116673428D01*
X114070761Y-116530571D01*
X113975523Y-116435333D01*
X113880285Y-116387714D01*
X113689809Y-116340095D01*
X113546952Y-116340095D01*
X113356476Y-116387714D01*
X113261238Y-116435333D01*
X113166000Y-116530571D01*
X113118380Y-116673428D01*
X113118380Y-116768666D01*
X113166000Y-116911523D01*
X113213619Y-116959142D01*
X114118380Y-117911523D02*
X114118380Y-117340095D01*
X114118380Y-117625809D02*
X113118380Y-117625809D01*
X113261238Y-117530571D01*
X113356476Y-117435333D01*
X113404095Y-117340095D01*
X113118380Y-118244857D02*
X113118380Y-118911523D01*
X114118380Y-118482952D01*
%TO.C,C16*%
X112213392Y-88765142D02*
X112261011Y-88717523D01*
X112308630Y-88574666D01*
X112308630Y-88479428D01*
X112261011Y-88336571D01*
X112165773Y-88241333D01*
X112070535Y-88193714D01*
X111880059Y-88146095D01*
X111737202Y-88146095D01*
X111546726Y-88193714D01*
X111451488Y-88241333D01*
X111356250Y-88336571D01*
X111308630Y-88479428D01*
X111308630Y-88574666D01*
X111356250Y-88717523D01*
X111403869Y-88765142D01*
X112308630Y-89717523D02*
X112308630Y-89146095D01*
X112308630Y-89431809D02*
X111308630Y-89431809D01*
X111451488Y-89336571D01*
X111546726Y-89241333D01*
X111594345Y-89146095D01*
X111308630Y-90574666D02*
X111308630Y-90384190D01*
X111356250Y-90288952D01*
X111403869Y-90241333D01*
X111546726Y-90146095D01*
X111737202Y-90098476D01*
X112118154Y-90098476D01*
X112213392Y-90146095D01*
X112261011Y-90193714D01*
X112308630Y-90288952D01*
X112308630Y-90479428D01*
X112261011Y-90574666D01*
X112213392Y-90622285D01*
X112118154Y-90669904D01*
X111880059Y-90669904D01*
X111784821Y-90622285D01*
X111737202Y-90574666D01*
X111689583Y-90479428D01*
X111689583Y-90288952D01*
X111737202Y-90193714D01*
X111784821Y-90146095D01*
X111880059Y-90098476D01*
%TO.C,C15*%
X93163392Y-164965142D02*
X93211011Y-164917523D01*
X93258630Y-164774666D01*
X93258630Y-164679428D01*
X93211011Y-164536571D01*
X93115773Y-164441333D01*
X93020535Y-164393714D01*
X92830059Y-164346095D01*
X92687202Y-164346095D01*
X92496726Y-164393714D01*
X92401488Y-164441333D01*
X92306250Y-164536571D01*
X92258630Y-164679428D01*
X92258630Y-164774666D01*
X92306250Y-164917523D01*
X92353869Y-164965142D01*
X93258630Y-165917523D02*
X93258630Y-165346095D01*
X93258630Y-165631809D02*
X92258630Y-165631809D01*
X92401488Y-165536571D01*
X92496726Y-165441333D01*
X92544345Y-165346095D01*
X92258630Y-166822285D02*
X92258630Y-166346095D01*
X92734821Y-166298476D01*
X92687202Y-166346095D01*
X92639583Y-166441333D01*
X92639583Y-166679428D01*
X92687202Y-166774666D01*
X92734821Y-166822285D01*
X92830059Y-166869904D01*
X93068154Y-166869904D01*
X93163392Y-166822285D01*
X93211011Y-166774666D01*
X93258630Y-166679428D01*
X93258630Y-166441333D01*
X93211011Y-166346095D01*
X93163392Y-166298476D01*
%TO.C,C14*%
X93163392Y-145915142D02*
X93211011Y-145867523D01*
X93258630Y-145724666D01*
X93258630Y-145629428D01*
X93211011Y-145486571D01*
X93115773Y-145391333D01*
X93020535Y-145343714D01*
X92830059Y-145296095D01*
X92687202Y-145296095D01*
X92496726Y-145343714D01*
X92401488Y-145391333D01*
X92306250Y-145486571D01*
X92258630Y-145629428D01*
X92258630Y-145724666D01*
X92306250Y-145867523D01*
X92353869Y-145915142D01*
X93258630Y-146867523D02*
X93258630Y-146296095D01*
X93258630Y-146581809D02*
X92258630Y-146581809D01*
X92401488Y-146486571D01*
X92496726Y-146391333D01*
X92544345Y-146296095D01*
X92591964Y-147724666D02*
X93258630Y-147724666D01*
X92211011Y-147486571D02*
X92925297Y-147248476D01*
X92925297Y-147867523D01*
%TO.C,C13*%
X93163392Y-126865142D02*
X93211011Y-126817523D01*
X93258630Y-126674666D01*
X93258630Y-126579428D01*
X93211011Y-126436571D01*
X93115773Y-126341333D01*
X93020535Y-126293714D01*
X92830059Y-126246095D01*
X92687202Y-126246095D01*
X92496726Y-126293714D01*
X92401488Y-126341333D01*
X92306250Y-126436571D01*
X92258630Y-126579428D01*
X92258630Y-126674666D01*
X92306250Y-126817523D01*
X92353869Y-126865142D01*
X93258630Y-127817523D02*
X93258630Y-127246095D01*
X93258630Y-127531809D02*
X92258630Y-127531809D01*
X92401488Y-127436571D01*
X92496726Y-127341333D01*
X92544345Y-127246095D01*
X92258630Y-128150857D02*
X92258630Y-128769904D01*
X92639583Y-128436571D01*
X92639583Y-128579428D01*
X92687202Y-128674666D01*
X92734821Y-128722285D01*
X92830059Y-128769904D01*
X93068154Y-128769904D01*
X93163392Y-128722285D01*
X93211011Y-128674666D01*
X93258630Y-128579428D01*
X93258630Y-128293714D01*
X93211011Y-128198476D01*
X93163392Y-128150857D01*
%TO.C,C12*%
X93163392Y-107815142D02*
X93211011Y-107767523D01*
X93258630Y-107624666D01*
X93258630Y-107529428D01*
X93211011Y-107386571D01*
X93115773Y-107291333D01*
X93020535Y-107243714D01*
X92830059Y-107196095D01*
X92687202Y-107196095D01*
X92496726Y-107243714D01*
X92401488Y-107291333D01*
X92306250Y-107386571D01*
X92258630Y-107529428D01*
X92258630Y-107624666D01*
X92306250Y-107767523D01*
X92353869Y-107815142D01*
X93258630Y-108767523D02*
X93258630Y-108196095D01*
X93258630Y-108481809D02*
X92258630Y-108481809D01*
X92401488Y-108386571D01*
X92496726Y-108291333D01*
X92544345Y-108196095D01*
X92353869Y-109148476D02*
X92306250Y-109196095D01*
X92258630Y-109291333D01*
X92258630Y-109529428D01*
X92306250Y-109624666D01*
X92353869Y-109672285D01*
X92449107Y-109719904D01*
X92544345Y-109719904D01*
X92687202Y-109672285D01*
X93258630Y-109100857D01*
X93258630Y-109719904D01*
%TO.C,C11*%
X93163392Y-88765142D02*
X93211011Y-88717523D01*
X93258630Y-88574666D01*
X93258630Y-88479428D01*
X93211011Y-88336571D01*
X93115773Y-88241333D01*
X93020535Y-88193714D01*
X92830059Y-88146095D01*
X92687202Y-88146095D01*
X92496726Y-88193714D01*
X92401488Y-88241333D01*
X92306250Y-88336571D01*
X92258630Y-88479428D01*
X92258630Y-88574666D01*
X92306250Y-88717523D01*
X92353869Y-88765142D01*
X93258630Y-89717523D02*
X93258630Y-89146095D01*
X93258630Y-89431809D02*
X92258630Y-89431809D01*
X92401488Y-89336571D01*
X92496726Y-89241333D01*
X92544345Y-89146095D01*
X93258630Y-90669904D02*
X93258630Y-90098476D01*
X93258630Y-90384190D02*
X92258630Y-90384190D01*
X92401488Y-90288952D01*
X92496726Y-90193714D01*
X92544345Y-90098476D01*
%TO.C,C10*%
X74113392Y-145915142D02*
X74161011Y-145867523D01*
X74208630Y-145724666D01*
X74208630Y-145629428D01*
X74161011Y-145486571D01*
X74065773Y-145391333D01*
X73970535Y-145343714D01*
X73780059Y-145296095D01*
X73637202Y-145296095D01*
X73446726Y-145343714D01*
X73351488Y-145391333D01*
X73256250Y-145486571D01*
X73208630Y-145629428D01*
X73208630Y-145724666D01*
X73256250Y-145867523D01*
X73303869Y-145915142D01*
X74208630Y-146867523D02*
X74208630Y-146296095D01*
X74208630Y-146581809D02*
X73208630Y-146581809D01*
X73351488Y-146486571D01*
X73446726Y-146391333D01*
X73494345Y-146296095D01*
X73208630Y-147486571D02*
X73208630Y-147581809D01*
X73256250Y-147677047D01*
X73303869Y-147724666D01*
X73399107Y-147772285D01*
X73589583Y-147819904D01*
X73827678Y-147819904D01*
X74018154Y-147772285D01*
X74113392Y-147724666D01*
X74161011Y-147677047D01*
X74208630Y-147581809D01*
X74208630Y-147486571D01*
X74161011Y-147391333D01*
X74113392Y-147343714D01*
X74018154Y-147296095D01*
X73827678Y-147248476D01*
X73589583Y-147248476D01*
X73399107Y-147296095D01*
X73303869Y-147343714D01*
X73256250Y-147391333D01*
X73208630Y-147486571D01*
%TO.C,C9*%
X74113392Y-127341333D02*
X74161011Y-127293714D01*
X74208630Y-127150857D01*
X74208630Y-127055619D01*
X74161011Y-126912761D01*
X74065773Y-126817523D01*
X73970535Y-126769904D01*
X73780059Y-126722285D01*
X73637202Y-126722285D01*
X73446726Y-126769904D01*
X73351488Y-126817523D01*
X73256250Y-126912761D01*
X73208630Y-127055619D01*
X73208630Y-127150857D01*
X73256250Y-127293714D01*
X73303869Y-127341333D01*
X74208630Y-127817523D02*
X74208630Y-128008000D01*
X74161011Y-128103238D01*
X74113392Y-128150857D01*
X73970535Y-128246095D01*
X73780059Y-128293714D01*
X73399107Y-128293714D01*
X73303869Y-128246095D01*
X73256250Y-128198476D01*
X73208630Y-128103238D01*
X73208630Y-127912761D01*
X73256250Y-127817523D01*
X73303869Y-127769904D01*
X73399107Y-127722285D01*
X73637202Y-127722285D01*
X73732440Y-127769904D01*
X73780059Y-127817523D01*
X73827678Y-127912761D01*
X73827678Y-128103238D01*
X73780059Y-128198476D01*
X73732440Y-128246095D01*
X73637202Y-128293714D01*
%TO.C,C8*%
X74113392Y-108291333D02*
X74161011Y-108243714D01*
X74208630Y-108100857D01*
X74208630Y-108005619D01*
X74161011Y-107862761D01*
X74065773Y-107767523D01*
X73970535Y-107719904D01*
X73780059Y-107672285D01*
X73637202Y-107672285D01*
X73446726Y-107719904D01*
X73351488Y-107767523D01*
X73256250Y-107862761D01*
X73208630Y-108005619D01*
X73208630Y-108100857D01*
X73256250Y-108243714D01*
X73303869Y-108291333D01*
X73637202Y-108862761D02*
X73589583Y-108767523D01*
X73541964Y-108719904D01*
X73446726Y-108672285D01*
X73399107Y-108672285D01*
X73303869Y-108719904D01*
X73256250Y-108767523D01*
X73208630Y-108862761D01*
X73208630Y-109053238D01*
X73256250Y-109148476D01*
X73303869Y-109196095D01*
X73399107Y-109243714D01*
X73446726Y-109243714D01*
X73541964Y-109196095D01*
X73589583Y-109148476D01*
X73637202Y-109053238D01*
X73637202Y-108862761D01*
X73684821Y-108767523D01*
X73732440Y-108719904D01*
X73827678Y-108672285D01*
X74018154Y-108672285D01*
X74113392Y-108719904D01*
X74161011Y-108767523D01*
X74208630Y-108862761D01*
X74208630Y-109053238D01*
X74161011Y-109148476D01*
X74113392Y-109196095D01*
X74018154Y-109243714D01*
X73827678Y-109243714D01*
X73732440Y-109196095D01*
X73684821Y-109148476D01*
X73637202Y-109053238D01*
%TO.C,C7*%
X74113392Y-89241333D02*
X74161011Y-89193714D01*
X74208630Y-89050857D01*
X74208630Y-88955619D01*
X74161011Y-88812761D01*
X74065773Y-88717523D01*
X73970535Y-88669904D01*
X73780059Y-88622285D01*
X73637202Y-88622285D01*
X73446726Y-88669904D01*
X73351488Y-88717523D01*
X73256250Y-88812761D01*
X73208630Y-88955619D01*
X73208630Y-89050857D01*
X73256250Y-89193714D01*
X73303869Y-89241333D01*
X73208630Y-89574666D02*
X73208630Y-90241333D01*
X74208630Y-89812761D01*
%TO.C,C6*%
X64588392Y-165187333D02*
X64636011Y-165139714D01*
X64683630Y-164996857D01*
X64683630Y-164901619D01*
X64636011Y-164758761D01*
X64540773Y-164663523D01*
X64445535Y-164615904D01*
X64255059Y-164568285D01*
X64112202Y-164568285D01*
X63921726Y-164615904D01*
X63826488Y-164663523D01*
X63731250Y-164758761D01*
X63683630Y-164901619D01*
X63683630Y-164996857D01*
X63731250Y-165139714D01*
X63778869Y-165187333D01*
X63683630Y-166044476D02*
X63683630Y-165854000D01*
X63731250Y-165758761D01*
X63778869Y-165711142D01*
X63921726Y-165615904D01*
X64112202Y-165568285D01*
X64493154Y-165568285D01*
X64588392Y-165615904D01*
X64636011Y-165663523D01*
X64683630Y-165758761D01*
X64683630Y-165949238D01*
X64636011Y-166044476D01*
X64588392Y-166092095D01*
X64493154Y-166139714D01*
X64255059Y-166139714D01*
X64159821Y-166092095D01*
X64112202Y-166044476D01*
X64064583Y-165949238D01*
X64064583Y-165758761D01*
X64112202Y-165663523D01*
X64159821Y-165615904D01*
X64255059Y-165568285D01*
%TO.C,C5*%
X55063392Y-146391333D02*
X55111011Y-146343714D01*
X55158630Y-146200857D01*
X55158630Y-146105619D01*
X55111011Y-145962761D01*
X55015773Y-145867523D01*
X54920535Y-145819904D01*
X54730059Y-145772285D01*
X54587202Y-145772285D01*
X54396726Y-145819904D01*
X54301488Y-145867523D01*
X54206250Y-145962761D01*
X54158630Y-146105619D01*
X54158630Y-146200857D01*
X54206250Y-146343714D01*
X54253869Y-146391333D01*
X54158630Y-147296095D02*
X54158630Y-146819904D01*
X54634821Y-146772285D01*
X54587202Y-146819904D01*
X54539583Y-146915142D01*
X54539583Y-147153238D01*
X54587202Y-147248476D01*
X54634821Y-147296095D01*
X54730059Y-147343714D01*
X54968154Y-147343714D01*
X55063392Y-147296095D01*
X55111011Y-147248476D01*
X55158630Y-147153238D01*
X55158630Y-146915142D01*
X55111011Y-146819904D01*
X55063392Y-146772285D01*
%TO.C,C4*%
X55063392Y-127341333D02*
X55111011Y-127293714D01*
X55158630Y-127150857D01*
X55158630Y-127055619D01*
X55111011Y-126912761D01*
X55015773Y-126817523D01*
X54920535Y-126769904D01*
X54730059Y-126722285D01*
X54587202Y-126722285D01*
X54396726Y-126769904D01*
X54301488Y-126817523D01*
X54206250Y-126912761D01*
X54158630Y-127055619D01*
X54158630Y-127150857D01*
X54206250Y-127293714D01*
X54253869Y-127341333D01*
X54491964Y-128198476D02*
X55158630Y-128198476D01*
X54111011Y-127960380D02*
X54825297Y-127722285D01*
X54825297Y-128341333D01*
%TO.C,C3*%
X55857142Y-108291333D02*
X55904761Y-108243714D01*
X55952380Y-108100857D01*
X55952380Y-108005619D01*
X55904761Y-107862761D01*
X55809523Y-107767523D01*
X55714285Y-107719904D01*
X55523809Y-107672285D01*
X55380952Y-107672285D01*
X55190476Y-107719904D01*
X55095238Y-107767523D01*
X55000000Y-107862761D01*
X54952380Y-108005619D01*
X54952380Y-108100857D01*
X55000000Y-108243714D01*
X55047619Y-108291333D01*
X54952380Y-108624666D02*
X54952380Y-109243714D01*
X55333333Y-108910380D01*
X55333333Y-109053238D01*
X55380952Y-109148476D01*
X55428571Y-109196095D01*
X55523809Y-109243714D01*
X55761904Y-109243714D01*
X55857142Y-109196095D01*
X55904761Y-109148476D01*
X55952380Y-109053238D01*
X55952380Y-108767523D01*
X55904761Y-108672285D01*
X55857142Y-108624666D01*
%TO.C,C2*%
X55603142Y-89241333D02*
X55650761Y-89193714D01*
X55698380Y-89050857D01*
X55698380Y-88955619D01*
X55650761Y-88812761D01*
X55555523Y-88717523D01*
X55460285Y-88669904D01*
X55269809Y-88622285D01*
X55126952Y-88622285D01*
X54936476Y-88669904D01*
X54841238Y-88717523D01*
X54746000Y-88812761D01*
X54698380Y-88955619D01*
X54698380Y-89050857D01*
X54746000Y-89193714D01*
X54793619Y-89241333D01*
X54793619Y-89622285D02*
X54746000Y-89669904D01*
X54698380Y-89765142D01*
X54698380Y-90003238D01*
X54746000Y-90098476D01*
X54793619Y-90146095D01*
X54888857Y-90193714D01*
X54984095Y-90193714D01*
X55126952Y-90146095D01*
X55698380Y-89574666D01*
X55698380Y-90193714D01*
%TO.C,C1*%
X55857142Y-61301333D02*
X55904761Y-61253714D01*
X55952380Y-61110857D01*
X55952380Y-61015619D01*
X55904761Y-60872761D01*
X55809523Y-60777523D01*
X55714285Y-60729904D01*
X55523809Y-60682285D01*
X55380952Y-60682285D01*
X55190476Y-60729904D01*
X55095238Y-60777523D01*
X55000000Y-60872761D01*
X54952380Y-61015619D01*
X54952380Y-61110857D01*
X55000000Y-61253714D01*
X55047619Y-61301333D01*
X55952380Y-62253714D02*
X55952380Y-61682285D01*
X55952380Y-61968000D02*
X54952380Y-61968000D01*
X55095238Y-61872761D01*
X55190476Y-61777523D01*
X55238095Y-61682285D01*
%TD*%
M02*
