M48
; DRILL file {KiCad (5.1.6)-1} date 03/03/21 00:48:31
; FORMAT={-:-/ absolute / inch / decimal}
; #@! TF.CreationDate,2021-03-03T00:48:31-05:00
; #@! TF.GenerationSoftware,Kicad,Pcbnew,(5.1.6)-1
FMAT,2
INCH
T1C0.0157
T2C0.0394
T3C0.0433
T4C0.0787
T5C0.0669
T6C0.0689
T7C0.1063
T8C0.1181
T9C0.1200
T10C0.1570
T11C0.1575
%
G90
G05
T1
X2.08Y-2.12
X2.08Y-3.21
X2.08Y-3.96
X2.08Y-4.71
X2.08Y-5.46
X2.08Y-6.21
X2.13Y-1.8
X2.13Y-2.38
X2.13Y-3.48
X2.13Y-4.23
X2.13Y-4.52
X2.13Y-4.98
X2.13Y-5.73
X2.13Y-6.47
X2.1638Y-6.5461
X2.28Y-2.66
X2.31Y-6.29
X2.4Y-3.6
X2.4Y-4.35
X2.4Y-5.14
X2.4Y-5.85
X2.41Y-3.03
X2.48Y-1.4
X2.5Y-3.0
X2.53Y-2.97
X2.56Y-2.94
X2.59Y-2.91
X2.62Y-2.88
X2.79Y-4.23
X2.79Y-4.98
X2.79Y-5.73
X2.8Y-3.47
X2.85Y-3.18
X2.85Y-3.54
X2.85Y-3.76
X2.85Y-3.93
X2.85Y-4.29
X2.85Y-4.54
X2.85Y-4.68
X2.85Y-5.08
X2.85Y-5.24
X2.85Y-5.43
X2.88Y-1.63
X2.88Y-2.38
X2.9089Y-2.05
X2.98Y-2.05
X2.98Y-2.1
X3.02Y-2.2
X3.06Y-2.3
X3.1Y-2.4
X3.13Y-2.5
X3.14Y-6.47
X3.15Y-1.94
X3.15Y-3.64
X3.15Y-4.39
X3.15Y-5.1
X3.15Y-5.89
X3.43Y-3.6
X3.44Y-4.35
X3.44Y-5.14
X3.45Y-5.85
X3.51Y-6.62
X3.6Y-3.18
X3.6Y-3.55
X3.6Y-3.76
X3.6Y-3.93
X3.6Y-4.29
X3.6Y-4.52
X3.6Y-4.68
X3.6Y-5.04
X3.6Y-5.27
X3.6Y-5.43
X3.6Y-5.85
X3.9Y-3.6
X3.9Y-4.44
X3.9Y-5.14
X3.9Y-5.85
X3.99Y-2.67
X4.03Y-1.44
X4.03Y-2.06
X4.06Y-1.4
X4.06Y-2.27
X4.07Y-2.58
X4.1Y-2.06
X4.1Y-2.32
X4.14Y-2.37
X4.18Y-2.43
X4.18Y-4.39
X4.19Y-3.64
X4.19Y-6.48
X4.2Y-5.1
X4.2Y-5.89
X4.28Y-6.56
X4.35Y-3.18
X4.35Y-3.53
X4.35Y-3.78
X4.35Y-4.51
X4.35Y-4.68
X4.38Y-1.44
X4.38Y-2.21
X4.42Y-4.19
X4.52Y-6.47
X4.54Y-5.63
X4.54Y-6.27
X4.57Y-4.83
X4.59Y-3.83
X4.59Y-6.69
X4.65Y-3.64
X4.65Y-4.73
X4.69Y-6.48
X4.69Y-6.65
X4.86Y-4.54
X4.9064Y-4.73
X4.94Y-3.6
X4.96Y-6.11
X5.03Y-2.03
X5.03Y-4.77
X5.07Y-4.8
X5.1Y-3.0
X5.1Y-3.45
X5.13Y-2.97
X5.13Y-4.15
X5.16Y-2.94
X5.16Y-5.02
X5.19Y-2.91
X5.19Y-5.57
X5.19Y-6.01
X5.22Y-2.88
T2
X3.275Y-2.75
X3.375Y-2.75
X3.475Y-2.75
X3.575Y-2.75
X3.675Y-2.75
X3.775Y-2.75
X3.875Y-2.75
X3.975Y-2.75
T3
X4.4644Y-2.1116
X4.4644Y-2.3084
X5.0353Y-2.1116
X5.0353Y-2.21
X5.0353Y-2.3084
T5
X3.05Y-3.3125
X3.45Y-3.3125
X2.3Y-4.0625
X2.7Y-4.0625
X3.8Y-4.8125
X4.2Y-4.8125
X3.05Y-4.0625
X3.45Y-4.0625
X2.3Y-2.21
X2.7Y-2.21
X3.8Y-3.3125
X4.2Y-3.3125
X4.55Y-3.3125
X4.95Y-3.3125
X2.3Y-4.8125
X2.7Y-4.8125
X3.8Y-6.3125
X4.2Y-6.3125
X3.05Y-4.8125
X3.45Y-4.8125
X2.3Y-5.5625
X2.7Y-5.5625
X2.3Y-3.3125
X2.7Y-3.3125
X3.8Y-4.0625
X4.2Y-4.0625
X3.8Y-5.5625
X4.2Y-5.5625
X3.05Y-5.5625
X3.45Y-5.5625
T6
X2.675Y-6.3125
X3.075Y-6.3125
X4.55Y-5.94
X4.95Y-5.94
X4.55Y-4.44
X4.95Y-4.44
T7
X3.055Y-1.59
X3.055Y-2.75
X4.195Y-1.59
X4.195Y-2.75
T8
X3.1Y-3.9625
X3.35Y-3.8625
X2.35Y-2.11
X2.6Y-2.01
X3.85Y-3.2125
X4.1Y-3.1125
X4.6Y-3.2125
X4.85Y-3.1125
X2.35Y-4.7125
X2.6Y-4.6125
X3.85Y-6.2125
X4.1Y-6.1125
X2.725Y-6.2125
X2.975Y-6.1125
X3.1Y-4.7125
X3.35Y-4.6125
X2.35Y-5.4625
X2.6Y-5.3625
X4.6Y-5.84
X4.85Y-5.74
X2.35Y-3.2125
X2.6Y-3.1125
X3.85Y-3.9625
X4.1Y-3.8625
X3.85Y-5.4625
X4.1Y-5.3625
X3.1Y-5.4625
X3.35Y-5.3625
X4.6Y-4.34
X4.85Y-4.24
X3.1Y-3.2125
X3.35Y-3.1125
X2.35Y-3.9625
X2.6Y-3.8625
X3.85Y-4.7125
X4.1Y-4.6125
T9
X2.405Y-6.0375
X3.345Y-6.0375
X5.025Y-5.47
X5.025Y-6.41
X5.025Y-3.97
X5.025Y-4.91
T10
X2.405Y-6.6375
X2.875Y-6.3125
X3.345Y-6.6375
X4.425Y-5.47
X4.425Y-6.41
X4.75Y-5.94
X4.425Y-3.97
X4.425Y-4.91
X4.75Y-4.44
T11
X3.25Y-3.3125
X2.5Y-4.0625
X4.0Y-4.8125
X3.25Y-4.0625
X2.5Y-2.21
X4.0Y-3.3125
X4.75Y-3.3125
X2.5Y-4.8125
X4.0Y-6.3125
X3.25Y-4.8125
X2.5Y-5.5625
X2.5Y-3.3125
X4.0Y-4.0625
X4.0Y-5.5625
X3.25Y-5.5625
T4
G00X4.7243Y-1.9856
M15
G01X4.7557Y-1.9856
M16
G05
G00X4.7243Y-2.4344
M15
G01X4.7557Y-2.4344
M16
G05
T0
M30
