%TF.GenerationSoftware,KiCad,Pcbnew,(5.1.6)-1*%
%TF.CreationDate,2021-02-05T01:20:54-05:00*%
%TF.ProjectId,Numpadulator,4e756d70-6164-4756-9c61-746f722e6b69,rev?*%
%TF.SameCoordinates,Original*%
%TF.FileFunction,Copper,L1,Top*%
%TF.FilePolarity,Positive*%
%FSLAX46Y46*%
G04 Gerber Fmt 4.6, Leading zero omitted, Abs format (unit mm)*
G04 Created by KiCad (PCBNEW (5.1.6)-1) date 2021-02-05 01:20:54*
%MOMM*%
%LPD*%
G01*
G04 APERTURE LIST*
%TA.AperFunction,ComponentPad*%
%ADD10O,6.000000X3.000000*%
%TD*%
%TA.AperFunction,ComponentPad*%
%ADD11C,1.650000*%
%TD*%
%TA.AperFunction,ComponentPad*%
%ADD12R,1.650000X1.650000*%
%TD*%
%TA.AperFunction,ComponentPad*%
%ADD13C,1.700000*%
%TD*%
%TA.AperFunction,ComponentPad*%
%ADD14R,1.700000X1.700000*%
%TD*%
%TA.AperFunction,ViaPad*%
%ADD15C,0.800000*%
%TD*%
%TA.AperFunction,Conductor*%
%ADD16C,0.381000*%
%TD*%
%TA.AperFunction,Conductor*%
%ADD17C,0.254000*%
%TD*%
G04 APERTURE END LIST*
D10*
%TO.P,SW19,2*%
%TO.N,N/C*%
X120396000Y-50434000D03*
%TO.P,SW19,1*%
X120396000Y-61834000D03*
D11*
%TO.P,SW19,B*%
%TO.N,ROTB*%
X127896000Y-53634000D03*
%TO.P,SW19,C*%
%TO.N,GND*%
X127896000Y-56134000D03*
%TO.P,SW19,A*%
%TO.N,ROTA*%
X127896000Y-58634000D03*
%TO.P,SW19,S2*%
%TO.N,Net-(D19-Pad2)*%
X113396000Y-53634000D03*
D12*
%TO.P,SW19,S1*%
%TO.N,COL3*%
X113396000Y-58634000D03*
%TD*%
D13*
%TO.P,U2,8*%
%TO.N,GND*%
X83185000Y-69850000D03*
%TO.P,U2,7*%
%TO.N,VCC*%
X85725000Y-69850000D03*
%TO.P,U2,6*%
%TO.N,Net-(U2-Pad6)*%
X88265000Y-69850000D03*
%TO.P,U2,5*%
%TO.N,Net-(U2-Pad5)*%
X90805000Y-69850000D03*
%TO.P,U2,4*%
%TO.N,Net-(U2-Pad4)*%
X93345000Y-69850000D03*
%TO.P,U2,3*%
%TO.N,Net-(U2-Pad3)*%
X95885000Y-69850000D03*
%TO.P,U2,2*%
%TO.N,SCL*%
X98425000Y-69850000D03*
D14*
%TO.P,U2,1*%
%TO.N,SDA*%
X100965000Y-69850000D03*
%TD*%
D15*
%TO.N,VCC*%
X54102000Y-45720000D03*
X54102000Y-60452000D03*
X54102000Y-90424000D03*
X54102000Y-109474000D03*
X54102000Y-128524000D03*
X54102000Y-147574000D03*
X54102000Y-165354000D03*
%TO.N,ROW1*%
X75692000Y-53340000D03*
X63500000Y-76200000D03*
X129540000Y-76200000D03*
X129540000Y-87630000D03*
%TO.N,ROW2*%
X76708000Y-55880000D03*
X64262000Y-75438000D03*
X130302000Y-75438000D03*
X112268000Y-106426000D03*
%TO.N,ROW3*%
X77724000Y-58420000D03*
X65024000Y-74676000D03*
X131064000Y-74676000D03*
X131064000Y-127508000D03*
%TO.N,ROW4*%
X78740000Y-60960000D03*
X65786000Y-73914000D03*
X131826000Y-73914000D03*
X131826000Y-120650000D03*
X119380000Y-126492000D03*
X119380000Y-141478000D03*
%TO.N,ROW5*%
X79502000Y-63500000D03*
X66548000Y-73152000D03*
X132588000Y-73152000D03*
X132588000Y-165354000D03*
%TO.N,COL0*%
X52832000Y-45720000D03*
X52832000Y-53848000D03*
X52832000Y-81534000D03*
X52832000Y-100584000D03*
X52832000Y-119634000D03*
X52832000Y-138684000D03*
X52832000Y-157734000D03*
X103124000Y-57658000D03*
X103124000Y-35560000D03*
%TO.N,Net-(SW1-Pad2)*%
X60960000Y-63754000D03*
X71120000Y-88138000D03*
%TO.N,LED*%
X73152000Y-36322000D03*
X73152000Y-60452000D03*
%TO.N,Net-(SW2-Pad2)*%
X60960000Y-91440000D03*
X87122000Y-91440000D03*
%TO.N,Net-(SW3-Pad2)*%
X60960000Y-110490000D03*
X87376000Y-110490000D03*
%TO.N,Net-(SW16-Pad2)*%
X118110000Y-92456000D03*
X70866000Y-107442000D03*
%TO.N,Net-(SW4-Pad2)*%
X60960000Y-130556000D03*
X87376000Y-130556000D03*
%TO.N,Net-(SW10-Pad4)*%
X60960000Y-148590000D03*
X87630000Y-148590000D03*
%TO.N,Net-(SW13-Pad2)*%
X99060000Y-130556000D03*
X70866000Y-145542000D03*
%TO.N,COL1*%
X106172000Y-61722000D03*
X72390000Y-89916000D03*
X72390000Y-95504000D03*
X72390000Y-108966000D03*
X72390000Y-115316000D03*
X72390000Y-118872000D03*
X72390000Y-99822000D03*
X72390000Y-129032000D03*
X72390000Y-133096000D03*
X72390000Y-137922000D03*
X72390000Y-80772000D03*
%TO.N,Net-(SW11-Pad4)*%
X80010000Y-92456000D03*
X106426000Y-92456000D03*
%TO.N,Net-(SW12-Pad4)*%
X80010000Y-111506000D03*
X106172000Y-111506000D03*
%TO.N,Net-(SW13-Pad4)*%
X80010000Y-129540000D03*
X106680000Y-129540000D03*
%TO.N,Net-(SW10-Pad2)*%
X80010000Y-149606000D03*
X106680000Y-149606000D03*
%TO.N,COL2*%
X105156000Y-60198000D03*
X91440000Y-80772000D03*
X91440000Y-90170000D03*
X91440000Y-95504000D03*
X91440000Y-99822000D03*
X91440000Y-108966000D03*
X91440000Y-114808000D03*
X91440000Y-118872000D03*
X91440000Y-128016000D03*
X91440000Y-133858000D03*
X91440000Y-137922000D03*
X91440000Y-148590000D03*
%TO.N,Net-(SW11-Pad2)*%
X99060000Y-91440000D03*
X125476000Y-91440000D03*
%TO.N,COL3*%
X104140000Y-58928000D03*
X110490000Y-80772000D03*
X110490000Y-89662000D03*
X110490000Y-96012000D03*
X110490000Y-118872000D03*
X110490000Y-114554000D03*
X118364000Y-96012000D03*
X115316000Y-134366000D03*
%TO.N,Net-(D20-Pad4)*%
X79756000Y-164338000D03*
X113030000Y-115824000D03*
%TO.N,Net-(D21-Pad2)*%
X70866000Y-126492000D03*
X113792000Y-146050000D03*
%TO.N,Net-(D21-Pad4)*%
X99060000Y-112776000D03*
X118110000Y-153416000D03*
%TO.N,Net-(D22-Pad4)*%
X99060000Y-148590000D03*
X116840000Y-125857000D03*
%TD*%
D16*
%TO.N,VCC*%
X54102000Y-45720000D02*
X54102000Y-60198000D01*
X54102000Y-60198000D02*
X54102000Y-60452000D01*
X54102000Y-125984000D02*
X54102000Y-128524000D01*
X54102000Y-106934000D02*
X54102000Y-109474000D01*
X54102000Y-87884000D02*
X54102000Y-88392000D01*
X54102000Y-88392000D02*
X54102000Y-90424000D01*
X54102000Y-87122000D02*
X54102000Y-87884000D01*
X54102000Y-106172000D02*
X54102000Y-106934000D01*
X54102000Y-125222000D02*
X54102000Y-125984000D01*
X54102000Y-163068000D02*
X54102000Y-163068000D01*
X54102000Y-144272000D02*
X54102000Y-145034000D01*
X54102000Y-145034000D02*
X54102000Y-147574000D01*
X54102000Y-149200962D02*
X54102000Y-163068000D01*
X54102000Y-60452000D02*
X54102000Y-87122000D01*
X54102000Y-90424000D02*
X54102000Y-106172000D01*
X54102000Y-109474000D02*
X54102000Y-125222000D01*
X54102000Y-128524000D02*
X54102000Y-144272000D01*
X54102000Y-147574000D02*
X54102000Y-149200962D01*
X54102000Y-163068000D02*
X54102000Y-165354000D01*
D17*
%TO.N,ROW1*%
X63500000Y-71179962D02*
X63500000Y-76200000D01*
X75692000Y-53340000D02*
X75692000Y-58987962D01*
X75692000Y-58987962D02*
X63500000Y-71179962D01*
X129540000Y-76200000D02*
X129540000Y-87630000D01*
%TO.N,ROW2*%
X76708000Y-55880000D02*
X76708000Y-59182000D01*
X76708000Y-59182000D02*
X64262000Y-71628000D01*
X64262000Y-71628000D02*
X64262000Y-75438000D01*
X112268000Y-105977962D02*
X112268000Y-106426000D01*
X130302000Y-75438000D02*
X130302000Y-87943962D01*
X130302000Y-87943962D02*
X112268000Y-105977962D01*
%TO.N,ROW3*%
X77724000Y-58420000D02*
X77724000Y-59182000D01*
X77724000Y-59182000D02*
X65024000Y-71882000D01*
X65024000Y-71882000D02*
X65024000Y-74676000D01*
X131064000Y-74676000D02*
X131064000Y-127508000D01*
%TO.N,ROW4*%
X78740000Y-60960000D02*
X76962000Y-60960000D01*
X76962000Y-60960000D02*
X65786000Y-72136000D01*
X65786000Y-72136000D02*
X65786000Y-73914000D01*
X131826000Y-73914000D02*
X131826000Y-120650000D01*
X119380000Y-126492000D02*
X119380000Y-141478000D01*
%TO.N,ROW5*%
X79502000Y-63500000D02*
X75438000Y-63500000D01*
X75438000Y-63500000D02*
X66548000Y-72390000D01*
X66548000Y-72390000D02*
X66548000Y-73152000D01*
X132588000Y-73152000D02*
X132588000Y-165354000D01*
%TO.N,COL0*%
X52832000Y-45720000D02*
X52832000Y-53848000D01*
X52832000Y-53848000D02*
X52832000Y-81534000D01*
X52832000Y-81534000D02*
X52832000Y-100584000D01*
X52832000Y-100584000D02*
X52832000Y-119634000D01*
X52832000Y-119634000D02*
X52832000Y-138684000D01*
X52832000Y-138684000D02*
X52832000Y-157734000D01*
X103124000Y-57658000D02*
X103124000Y-35560000D01*
%TO.N,Net-(SW1-Pad2)*%
X60960000Y-76962000D02*
X60960000Y-73406000D01*
X60960000Y-73406000D02*
X60960000Y-63754000D01*
X71120000Y-88138000D02*
X71120000Y-76962000D01*
X71120000Y-76962000D02*
X60960000Y-76962000D01*
%TO.N,LED*%
X73152000Y-36322000D02*
X73152000Y-60452000D01*
%TO.N,Net-(SW2-Pad2)*%
X60960000Y-91440000D02*
X87122000Y-91440000D01*
%TO.N,Net-(SW3-Pad2)*%
X60960000Y-110490000D02*
X87376000Y-110490000D01*
%TO.N,Net-(SW16-Pad2)*%
X118110000Y-92456000D02*
X118110000Y-94234000D01*
X118110000Y-94234000D02*
X70866000Y-94234000D01*
X70866000Y-94234000D02*
X70866000Y-107442000D01*
%TO.N,Net-(SW4-Pad2)*%
X60960000Y-130556000D02*
X87376000Y-130556000D01*
%TO.N,Net-(SW10-Pad4)*%
X60960000Y-148590000D02*
X87630000Y-148590000D01*
%TO.N,Net-(SW13-Pad2)*%
X99060000Y-130556000D02*
X99060000Y-131572000D01*
X99060000Y-131572000D02*
X70866000Y-131572000D01*
X70866000Y-131572000D02*
X70866000Y-145542000D01*
%TO.N,COL1*%
X72390000Y-81534000D02*
X72390000Y-89916000D01*
X72527239Y-108828761D02*
X72390000Y-108966000D01*
X72390000Y-115316000D02*
X72390000Y-118872000D01*
X72390000Y-95504000D02*
X72390000Y-99822000D01*
X72390000Y-99822000D02*
X72390000Y-108966000D01*
X72390000Y-118872000D02*
X72390000Y-129032000D01*
X72390000Y-133096000D02*
X72390000Y-137922000D01*
X72390000Y-80772000D02*
X72390000Y-81534000D01*
X72390000Y-71882000D02*
X72390000Y-80772000D01*
X106172000Y-61722000D02*
X106172000Y-64516000D01*
X103124000Y-67564000D02*
X103124000Y-70866000D01*
X103124000Y-70866000D02*
X102108000Y-71882000D01*
X106172000Y-64516000D02*
X103124000Y-67564000D01*
X102108000Y-71882000D02*
X72390000Y-71882000D01*
%TO.N,Net-(SW11-Pad4)*%
X80010000Y-92456000D02*
X106426000Y-92456000D01*
%TO.N,Net-(SW12-Pad4)*%
X80010000Y-111506000D02*
X106172000Y-111506000D01*
%TO.N,Net-(SW13-Pad4)*%
X80010000Y-129540000D02*
X106680000Y-129540000D01*
%TO.N,Net-(SW10-Pad2)*%
X80010000Y-149606000D02*
X106680000Y-149606000D01*
%TO.N,COL2*%
X91440000Y-80772000D02*
X91440000Y-90170000D01*
X91440000Y-95504000D02*
X91440000Y-99822000D01*
X91440000Y-99822000D02*
X91440000Y-108966000D01*
X91440000Y-114808000D02*
X91440000Y-118872000D01*
X91440000Y-118872000D02*
X91440000Y-128016000D01*
X91440000Y-133858000D02*
X91440000Y-137922000D01*
X91440000Y-137922000D02*
X91440000Y-148590000D01*
X107188000Y-60960000D02*
X106426000Y-60198000D01*
X107188000Y-64516000D02*
X107188000Y-60960000D01*
X91440000Y-72644000D02*
X102362000Y-72644000D01*
X91440000Y-80772000D02*
X91440000Y-72644000D01*
X103886000Y-67818000D02*
X107188000Y-64516000D01*
X102362000Y-72644000D02*
X103886000Y-71120000D01*
X106426000Y-60198000D02*
X105156000Y-60198000D01*
X103886000Y-71120000D02*
X103886000Y-67818000D01*
%TO.N,Net-(SW11-Pad2)*%
X99060000Y-91440000D02*
X125476000Y-91440000D01*
%TO.N,COL3*%
X110490000Y-80772000D02*
X110490000Y-89662000D01*
X110490000Y-72390000D02*
X110490000Y-80772000D01*
X110490000Y-62992000D02*
X110490000Y-72390000D01*
X104140000Y-58928000D02*
X106426000Y-58928000D01*
X106426000Y-58928000D02*
X110490000Y-62992000D01*
X110490000Y-118872000D02*
X115316000Y-123698000D01*
X115316000Y-123698000D02*
X115316000Y-126746000D01*
X110490000Y-96012000D02*
X109728000Y-96774000D01*
X109728000Y-96774000D02*
X109728000Y-102870000D01*
X109728000Y-102870000D02*
X110490000Y-103632000D01*
X110490000Y-103632000D02*
X110490000Y-114554000D01*
X110490000Y-96012000D02*
X118364000Y-96012000D01*
X115316000Y-126746000D02*
X115316000Y-134366000D01*
%TO.N,Net-(D20-Pad4)*%
X125984000Y-146050000D02*
X128778000Y-146050000D01*
X128778000Y-146050000D02*
X128778000Y-159766000D01*
X128778000Y-159766000D02*
X115824000Y-159766000D01*
X115824000Y-159766000D02*
X106680000Y-150622000D01*
X106680000Y-150622000D02*
X79756000Y-150622000D01*
X79756000Y-150622000D02*
X79756000Y-164338000D01*
X125984000Y-146050000D02*
X125984000Y-129286000D01*
X113030000Y-116018038D02*
X113030000Y-115824000D01*
X125984000Y-129286000D02*
X125984000Y-128972038D01*
X125984000Y-128972038D02*
X113030000Y-116018038D01*
%TO.N,Net-(D21-Pad2)*%
X106934000Y-113538000D02*
X70866000Y-113538000D01*
X70866000Y-113538000D02*
X70866000Y-126492000D01*
X106934000Y-113538000D02*
X117729000Y-124333000D01*
X117729000Y-124333000D02*
X117729000Y-137795000D01*
X117729000Y-137795000D02*
X113284000Y-142240000D01*
X113284000Y-142240000D02*
X113284000Y-145542000D01*
X113284000Y-145542000D02*
X113792000Y-146050000D01*
%TO.N,Net-(D21-Pad4)*%
X107636038Y-112776000D02*
X118364000Y-123503962D01*
X99060000Y-112776000D02*
X107636038Y-112776000D01*
X118110000Y-138684000D02*
X118110000Y-153416000D01*
X118364000Y-123503962D02*
X118364000Y-137922000D01*
X118110000Y-138176000D02*
X118110000Y-138684000D01*
X118364000Y-137922000D02*
X118110000Y-138176000D01*
%TO.N,Net-(D22-Pad4)*%
X112776000Y-148590000D02*
X99060000Y-148590000D01*
X112776000Y-141928434D02*
X112776000Y-148590000D01*
X116840000Y-137864434D02*
X112776000Y-141928434D01*
X116840000Y-125857000D02*
X116840000Y-137864434D01*
%TD*%
M02*
