M48
; DRILL file {KiCad (5.1.6)-1} date 02/05/21 01:21:02
; FORMAT={-:-/ absolute / inch / decimal}
; #@! TF.CreationDate,2021-02-05T01:21:02-05:00
; #@! TF.GenerationSoftware,Kicad,Pcbnew,(5.1.6)-1
FMAT,2
INCH
T1C0.0157
T2C0.0394
T3C0.0433
T4C0.0787
T5C0.0669
T6C0.0689
T7C0.1063
T8C0.1181
T9C0.1200
T10C0.1570
T11C0.1575
%
G90
G05
T1
X2.08Y-1.8
X2.08Y-2.12
X2.08Y-3.21
X2.08Y-3.96
X2.08Y-4.71
X2.08Y-5.46
X2.08Y-6.21
X2.13Y-1.8
X2.13Y-2.38
X2.13Y-3.56
X2.13Y-4.31
X2.13Y-5.06
X2.13Y-5.81
X2.13Y-6.51
X2.4Y-2.51
X2.4Y-3.6
X2.4Y-4.35
X2.4Y-5.14
X2.4Y-5.85
X2.5Y-3.0
X2.53Y-2.97
X2.56Y-2.94
X2.59Y-2.91
X2.62Y-2.88
X2.79Y-4.23
X2.79Y-4.98
X2.79Y-5.73
X2.8Y-3.47
X2.85Y-3.18
X2.85Y-3.54
X2.85Y-3.76
X2.85Y-3.93
X2.85Y-4.29
X2.85Y-4.54
X2.85Y-4.68
X2.85Y-5.08
X2.85Y-5.24
X2.85Y-5.43
X2.88Y-1.43
X2.88Y-2.38
X2.98Y-2.1
X3.02Y-2.2
X3.06Y-2.3
X3.1Y-2.4
X3.13Y-2.5
X3.14Y-6.47
X3.15Y-3.64
X3.15Y-4.39
X3.15Y-5.1
X3.15Y-5.89
X3.43Y-3.6
X3.44Y-4.35
X3.44Y-5.14
X3.45Y-5.85
X3.6Y-3.18
X3.6Y-3.55
X3.6Y-3.76
X3.6Y-3.93
X3.6Y-4.29
X3.6Y-4.52
X3.6Y-4.68
X3.6Y-5.04
X3.6Y-5.27
X3.6Y-5.43
X3.6Y-5.85
X3.9Y-3.6
X3.9Y-4.44
X3.9Y-5.14
X3.9Y-5.85
X4.06Y-1.4
X4.06Y-2.27
X4.1Y-2.32
X4.14Y-2.37
X4.18Y-2.43
X4.18Y-4.39
X4.19Y-3.64
X4.2Y-5.1
X4.2Y-5.89
X4.35Y-3.18
X4.35Y-3.53
X4.35Y-3.78
X4.35Y-4.51
X4.35Y-4.68
X4.42Y-4.19
X4.45Y-4.56
X4.48Y-5.75
X4.54Y-5.29
X4.6Y-4.955
X4.65Y-3.64
X4.65Y-6.04
X4.66Y-3.78
X4.7Y-4.98
X4.7Y-5.57
X4.94Y-3.6
X5.1Y-3.0
X5.1Y-3.45
X5.13Y-2.97
X5.16Y-2.94
X5.16Y-5.02
X5.19Y-2.91
X5.19Y-4.75
X5.22Y-2.88
X5.22Y-6.51
T2
X3.275Y-2.75
X3.375Y-2.75
X3.475Y-2.75
X3.575Y-2.75
X3.675Y-2.75
X3.775Y-2.75
X3.875Y-2.75
X3.975Y-2.75
T3
X4.4644Y-2.1116
X4.4644Y-2.3084
X5.0353Y-2.1116
X5.0353Y-2.21
X5.0353Y-2.3084
T5
X3.8Y-5.5625
X4.2Y-5.5625
X3.8Y-4.0625
X4.2Y-4.0625
X3.8Y-3.3125
X4.2Y-3.3125
X2.3Y-2.21
X2.7Y-2.21
X2.3Y-5.5625
X2.7Y-5.5625
X3.8Y-4.8125
X4.2Y-4.8125
X2.3Y-4.0625
X2.7Y-4.0625
X4.55Y-3.3125
X4.95Y-3.3125
X3.05Y-4.0625
X3.45Y-4.0625
X2.3Y-3.3125
X2.7Y-3.3125
X3.05Y-3.3125
X3.45Y-3.3125
X3.05Y-4.8125
X3.45Y-4.8125
X2.3Y-4.8125
X2.7Y-4.8125
X3.8Y-6.3125
X4.2Y-6.3125
X3.05Y-5.5625
X3.45Y-5.5625
T6
X2.675Y-6.3125
X3.075Y-6.3125
X4.75Y-5.7375
X4.75Y-6.1375
X4.75Y-4.2375
X4.75Y-4.6375
T7
X3.055Y-1.59
X3.055Y-2.75
X4.195Y-1.59
X4.195Y-2.75
T8
X3.85Y-4.7125
X4.1Y-4.6125
X4.85Y-4.2875
X4.95Y-4.5375
X2.35Y-3.9625
X2.6Y-3.8625
X4.6Y-3.2125
X4.85Y-3.1125
X3.1Y-3.9625
X3.35Y-3.8625
X2.35Y-3.2125
X2.6Y-3.1125
X3.1Y-3.2125
X3.35Y-3.1125
X3.1Y-4.7125
X3.35Y-4.6125
X2.35Y-4.7125
X2.6Y-4.6125
X2.725Y-6.2125
X2.975Y-6.1125
X3.85Y-6.2125
X4.1Y-6.1125
X3.1Y-5.4625
X3.35Y-5.3625
X3.85Y-5.4625
X4.1Y-5.3625
X3.85Y-3.9625
X4.1Y-3.8625
X3.85Y-3.2125
X4.1Y-3.1125
X2.35Y-2.11
X2.6Y-2.01
X2.35Y-5.4625
X2.6Y-5.3625
X4.85Y-5.7875
X4.95Y-6.0375
T9
X3.345Y-6.0375
X5.025Y-5.4675
X5.025Y-6.4075
X5.025Y-3.9675
X5.025Y-4.9075
X2.405Y-6.0375
T10
X2.405Y-6.6375
X2.875Y-6.3125
X3.345Y-6.6375
X4.425Y-5.4675
X4.425Y-6.4075
X4.75Y-5.9375
X4.425Y-3.9675
X4.425Y-4.9075
X4.75Y-4.4375
T11
X4.0Y-4.8125
X2.5Y-4.0625
X4.75Y-3.3125
X3.25Y-4.0625
X2.5Y-3.3125
X3.25Y-3.3125
X3.25Y-4.8125
X2.5Y-4.8125
X4.0Y-6.3125
X3.25Y-5.5625
X4.0Y-5.5625
X4.0Y-4.0625
X4.0Y-3.3125
X2.5Y-2.21
X2.5Y-5.5625
T4
G00X4.7243Y-1.9856
M15
G01X4.7557Y-1.9856
M16
G05
G00X4.7243Y-2.4344
M15
G01X4.7557Y-2.4344
M16
G05
T0
M30
