%TF.GenerationSoftware,KiCad,Pcbnew,(5.1.6)-1*%
%TF.CreationDate,2021-03-03T00:47:03-05:00*%
%TF.ProjectId,Numpadulator,4e756d70-6164-4756-9c61-746f722e6b69,rev?*%
%TF.SameCoordinates,Original*%
%TF.FileFunction,Profile,NP*%
%FSLAX46Y46*%
G04 Gerber Fmt 4.6, Leading zero omitted, Abs format (unit mm)*
G04 Created by KiCad (PCBNEW (5.1.6)-1) date 2021-03-03 00:47:03*
%MOMM*%
%LPD*%
G01*
G04 APERTURE LIST*
%TA.AperFunction,Profile*%
%ADD10C,0.050000*%
%TD*%
%TA.AperFunction,Profile*%
%ADD11C,0.010000*%
%TD*%
G04 APERTURE END LIST*
D10*
X133350000Y-171450000D02*
G75*
G02*
X132080000Y-172720000I-1270000J0D01*
G01*
X130810000Y-172720000D02*
X132080000Y-172720000D01*
X132080000Y-34290000D02*
G75*
G02*
X133350000Y-35560000I0J-1270000D01*
G01*
X130810000Y-34290000D02*
X132080000Y-34290000D01*
X133350000Y-157480000D02*
X133350000Y-35560000D01*
X133350000Y-157480000D02*
X133350000Y-171450000D01*
X50800000Y-35560000D02*
X50800000Y-52578000D01*
X53340000Y-34290000D02*
X52070000Y-34290000D01*
X50800000Y-35560000D02*
G75*
G02*
X52070000Y-34290000I1270000J0D01*
G01*
X50800000Y-171450000D02*
X50800000Y-52578000D01*
X101600000Y-34290000D02*
X53340000Y-34290000D01*
X127508000Y-34290000D02*
X130810000Y-34290000D01*
X101600000Y-34290000D02*
X127508000Y-34290000D01*
X52070000Y-172720000D02*
X130810000Y-172720000D01*
X52070000Y-172720000D02*
G75*
G02*
X50800000Y-171450000I0J1270000D01*
G01*
D11*
%TO.C,SW16*%
X122350000Y-90687500D02*
X118950000Y-90687500D01*
X118950000Y-90687500D02*
X118950000Y-87687500D01*
X118950000Y-87687500D02*
X122350000Y-87687500D01*
X122350000Y-87687500D02*
X122350000Y-90687500D01*
%TO.C,SW2*%
X65200000Y-90687500D02*
X61800000Y-90687500D01*
X61800000Y-90687500D02*
X61800000Y-87687500D01*
X61800000Y-87687500D02*
X65200000Y-87687500D01*
X65200000Y-87687500D02*
X65200000Y-90687500D01*
%TO.C,SW1*%
X65200000Y-62684000D02*
X61800000Y-62684000D01*
X61800000Y-62684000D02*
X61800000Y-59684000D01*
X61800000Y-59684000D02*
X65200000Y-59684000D01*
X65200000Y-59684000D02*
X65200000Y-62684000D01*
%TO.C,SW12*%
X103300000Y-109737500D02*
X99900000Y-109737500D01*
X99900000Y-109737500D02*
X99900000Y-106737500D01*
X99900000Y-106737500D02*
X103300000Y-106737500D01*
X103300000Y-106737500D02*
X103300000Y-109737500D01*
%TO.C,SW15*%
X103300000Y-166887500D02*
X99900000Y-166887500D01*
X99900000Y-166887500D02*
X99900000Y-163887500D01*
X99900000Y-163887500D02*
X103300000Y-163887500D01*
X103300000Y-163887500D02*
X103300000Y-166887500D01*
%TO.C,SW14*%
X103300000Y-147837500D02*
X99900000Y-147837500D01*
X99900000Y-147837500D02*
X99900000Y-144837500D01*
X99900000Y-144837500D02*
X103300000Y-144837500D01*
X103300000Y-144837500D02*
X103300000Y-147837500D01*
%TO.C,SW13*%
X103300000Y-128787500D02*
X99900000Y-128787500D01*
X99900000Y-128787500D02*
X99900000Y-125787500D01*
X99900000Y-125787500D02*
X103300000Y-125787500D01*
X103300000Y-125787500D02*
X103300000Y-128787500D01*
%TO.C,SW11*%
X103300000Y-90687500D02*
X99900000Y-90687500D01*
X99900000Y-90687500D02*
X99900000Y-87687500D01*
X99900000Y-87687500D02*
X103300000Y-87687500D01*
X103300000Y-87687500D02*
X103300000Y-90687500D01*
%TO.C,SW10*%
X84250000Y-147837500D02*
X80850000Y-147837500D01*
X80850000Y-147837500D02*
X80850000Y-144837500D01*
X80850000Y-144837500D02*
X84250000Y-144837500D01*
X84250000Y-144837500D02*
X84250000Y-147837500D01*
%TO.C,SW9*%
X84250000Y-128787500D02*
X80850000Y-128787500D01*
X80850000Y-128787500D02*
X80850000Y-125787500D01*
X80850000Y-125787500D02*
X84250000Y-125787500D01*
X84250000Y-125787500D02*
X84250000Y-128787500D01*
%TO.C,SW8*%
X84250000Y-109737500D02*
X80850000Y-109737500D01*
X80850000Y-109737500D02*
X80850000Y-106737500D01*
X80850000Y-106737500D02*
X84250000Y-106737500D01*
X84250000Y-106737500D02*
X84250000Y-109737500D01*
%TO.C,SW7*%
X84250000Y-90687500D02*
X80850000Y-90687500D01*
X80850000Y-90687500D02*
X80850000Y-87687500D01*
X80850000Y-87687500D02*
X84250000Y-87687500D01*
X84250000Y-87687500D02*
X84250000Y-90687500D01*
%TO.C,SW5*%
X65200000Y-147837500D02*
X61800000Y-147837500D01*
X61800000Y-147837500D02*
X61800000Y-144837500D01*
X61800000Y-144837500D02*
X65200000Y-144837500D01*
X65200000Y-144837500D02*
X65200000Y-147837500D01*
%TO.C,SW4*%
X65200000Y-128787500D02*
X61800000Y-128787500D01*
X61800000Y-128787500D02*
X61800000Y-125787500D01*
X61800000Y-125787500D02*
X65200000Y-125787500D01*
X65200000Y-125787500D02*
X65200000Y-128787500D01*
%TO.C,SW3*%
X65200000Y-109737500D02*
X61800000Y-109737500D01*
X61800000Y-109737500D02*
X61800000Y-106737500D01*
X61800000Y-106737500D02*
X65200000Y-106737500D01*
X65200000Y-106737500D02*
X65200000Y-109737500D01*
%TO.C,D22*%
X122350000Y-157456000D02*
X118950000Y-157456000D01*
X118950000Y-157456000D02*
X118950000Y-154456000D01*
X118950000Y-154456000D02*
X122350000Y-154456000D01*
X122350000Y-154456000D02*
X122350000Y-157456000D01*
%TO.C,D21*%
X122350000Y-119356000D02*
X118950000Y-119356000D01*
X118950000Y-119356000D02*
X118950000Y-116356000D01*
X118950000Y-116356000D02*
X122350000Y-116356000D01*
X122350000Y-116356000D02*
X122350000Y-119356000D01*
%TO.C,D20*%
X74725000Y-166600000D02*
X71325000Y-166600000D01*
X71325000Y-166600000D02*
X71325000Y-163600000D01*
X71325000Y-163600000D02*
X74725000Y-163600000D01*
X74725000Y-163600000D02*
X74725000Y-166600000D01*
%TD*%
M02*
