%TF.GenerationSoftware,KiCad,Pcbnew,(5.1.6)-1*%
%TF.CreationDate,2021-02-05T01:20:54-05:00*%
%TF.ProjectId,Numpadulator,4e756d70-6164-4756-9c61-746f722e6b69,rev?*%
%TF.SameCoordinates,Original*%
%TF.FileFunction,Soldermask,Bot*%
%TF.FilePolarity,Negative*%
%FSLAX46Y46*%
G04 Gerber Fmt 4.6, Leading zero omitted, Abs format (unit mm)*
G04 Created by KiCad (PCBNEW (5.1.6)-1) date 2021-02-05 01:20:54*
%MOMM*%
%LPD*%
G01*
G04 APERTURE LIST*
%ADD10C,1.800000*%
%ADD11R,1.900000X1.000000*%
%ADD12R,2.650000X2.600000*%
%ADD13C,3.100000*%
%ADD14C,4.100000*%
%ADD15O,6.100000X3.100000*%
%ADD16C,1.750000*%
%ADD17R,1.750000X1.750000*%
%ADD18C,4.087800*%
%ADD19C,3.148000*%
%ADD20R,2.600000X2.650000*%
%ADD21C,1.850000*%
%ADD22R,1.000000X1.900000*%
%ADD23R,1.800000X1.800000*%
%ADD24C,2.800000*%
%ADD25R,1.300000X1.000000*%
%ADD26R,1.000000X1.300000*%
G04 APERTURE END LIST*
D10*
%TO.C,SW16*%
X125730000Y-84137500D03*
X115570000Y-84137500D03*
D11*
X123250000Y-88437500D03*
X123250000Y-89937500D03*
X118050000Y-89937500D03*
X118050000Y-88437500D03*
D12*
X126665000Y-79057500D03*
X113240000Y-81597500D03*
D13*
X123190000Y-79057500D03*
X116840000Y-81597500D03*
D14*
X120650000Y-84137500D03*
%TD*%
D10*
%TO.C,SW2*%
X68580000Y-84137500D03*
X58420000Y-84137500D03*
D11*
X66100000Y-88437500D03*
X66100000Y-89937500D03*
X60900000Y-89937500D03*
X60900000Y-88437500D03*
D12*
X69515000Y-79057500D03*
X56090000Y-81597500D03*
D13*
X66040000Y-79057500D03*
X59690000Y-81597500D03*
D14*
X63500000Y-84137500D03*
%TD*%
D10*
%TO.C,SW1*%
X68580000Y-56134000D03*
X58420000Y-56134000D03*
D11*
X66100000Y-60434000D03*
X66100000Y-61934000D03*
X60900000Y-61934000D03*
X60900000Y-60434000D03*
D12*
X69515000Y-51054000D03*
X56090000Y-53594000D03*
D13*
X66040000Y-51054000D03*
X59690000Y-53594000D03*
D14*
X63500000Y-56134000D03*
%TD*%
D10*
%TO.C,SW12*%
X106680000Y-103187500D03*
X96520000Y-103187500D03*
D11*
X104200000Y-107487500D03*
X104200000Y-108987500D03*
X99000000Y-108987500D03*
X99000000Y-107487500D03*
D12*
X107615000Y-98107500D03*
X94190000Y-100647500D03*
D13*
X104140000Y-98107500D03*
X97790000Y-100647500D03*
D14*
X101600000Y-103187500D03*
%TD*%
D15*
%TO.C,SW19*%
X120396000Y-50434000D03*
X120396000Y-61834000D03*
D16*
X127896000Y-53634000D03*
X127896000Y-56134000D03*
X127896000Y-58634000D03*
X113396000Y-53634000D03*
D17*
X113396000Y-58634000D03*
%TD*%
D18*
%TO.C,MX3*%
X112395000Y-100774500D03*
X112395000Y-124650500D03*
D19*
X127635000Y-100774500D03*
X127635000Y-124650500D03*
D20*
X125730000Y-118554500D03*
X123190000Y-105627500D03*
D21*
X120650000Y-117792500D03*
X120650000Y-107632500D03*
D13*
X123190000Y-108902500D03*
D18*
X120650000Y-112712500D03*
D13*
X125730000Y-115252500D03*
%TD*%
D18*
%TO.C,MX2*%
X112395000Y-138874500D03*
X112395000Y-162750500D03*
D19*
X127635000Y-138874500D03*
X127635000Y-162750500D03*
D20*
X125730000Y-156654500D03*
X123190000Y-143727500D03*
D21*
X120650000Y-155892500D03*
X120650000Y-145732500D03*
D13*
X123190000Y-147002500D03*
D18*
X120650000Y-150812500D03*
D13*
X125730000Y-153352500D03*
%TD*%
D18*
%TO.C,MX1*%
X61087000Y-168592500D03*
X84963000Y-168592500D03*
D19*
X61087000Y-153352500D03*
X84963000Y-153352500D03*
D12*
X78867000Y-155257500D03*
X65940000Y-157797500D03*
D21*
X78105000Y-160337500D03*
X67945000Y-160337500D03*
D13*
X69215000Y-157797500D03*
D18*
X73025000Y-160337500D03*
D13*
X75565000Y-155257500D03*
%TD*%
D10*
%TO.C,SW15*%
X106680000Y-160337500D03*
X96520000Y-160337500D03*
D11*
X104200000Y-164637500D03*
X104200000Y-166137500D03*
X99000000Y-166137500D03*
X99000000Y-164637500D03*
D12*
X107615000Y-155257500D03*
X94190000Y-157797500D03*
D13*
X104140000Y-155257500D03*
X97790000Y-157797500D03*
D14*
X101600000Y-160337500D03*
%TD*%
D10*
%TO.C,SW14*%
X106680000Y-141287500D03*
X96520000Y-141287500D03*
D11*
X104200000Y-145587500D03*
X104200000Y-147087500D03*
X99000000Y-147087500D03*
X99000000Y-145587500D03*
D12*
X107615000Y-136207500D03*
X94190000Y-138747500D03*
D13*
X104140000Y-136207500D03*
X97790000Y-138747500D03*
D14*
X101600000Y-141287500D03*
%TD*%
D10*
%TO.C,SW13*%
X106680000Y-122237500D03*
X96520000Y-122237500D03*
D11*
X104200000Y-126537500D03*
X104200000Y-128037500D03*
X99000000Y-128037500D03*
X99000000Y-126537500D03*
D12*
X107615000Y-117157500D03*
X94190000Y-119697500D03*
D13*
X104140000Y-117157500D03*
X97790000Y-119697500D03*
D14*
X101600000Y-122237500D03*
%TD*%
D10*
%TO.C,SW11*%
X106680000Y-84137500D03*
X96520000Y-84137500D03*
D11*
X104200000Y-88437500D03*
X104200000Y-89937500D03*
X99000000Y-89937500D03*
X99000000Y-88437500D03*
D12*
X107615000Y-79057500D03*
X94190000Y-81597500D03*
D13*
X104140000Y-79057500D03*
X97790000Y-81597500D03*
D14*
X101600000Y-84137500D03*
%TD*%
D10*
%TO.C,SW10*%
X87630000Y-141287500D03*
X77470000Y-141287500D03*
D11*
X85150000Y-145587500D03*
X85150000Y-147087500D03*
X79950000Y-147087500D03*
X79950000Y-145587500D03*
D12*
X88565000Y-136207500D03*
X75140000Y-138747500D03*
D13*
X85090000Y-136207500D03*
X78740000Y-138747500D03*
D14*
X82550000Y-141287500D03*
%TD*%
D10*
%TO.C,SW9*%
X87630000Y-122237500D03*
X77470000Y-122237500D03*
D11*
X85150000Y-126537500D03*
X85150000Y-128037500D03*
X79950000Y-128037500D03*
X79950000Y-126537500D03*
D12*
X88565000Y-117157500D03*
X75140000Y-119697500D03*
D13*
X85090000Y-117157500D03*
X78740000Y-119697500D03*
D14*
X82550000Y-122237500D03*
%TD*%
D10*
%TO.C,SW8*%
X87630000Y-103187500D03*
X77470000Y-103187500D03*
D11*
X85150000Y-107487500D03*
X85150000Y-108987500D03*
X79950000Y-108987500D03*
X79950000Y-107487500D03*
D12*
X88565000Y-98107500D03*
X75140000Y-100647500D03*
D13*
X85090000Y-98107500D03*
X78740000Y-100647500D03*
D14*
X82550000Y-103187500D03*
%TD*%
D10*
%TO.C,SW7*%
X87630000Y-84137500D03*
X77470000Y-84137500D03*
D11*
X85150000Y-88437500D03*
X85150000Y-89937500D03*
X79950000Y-89937500D03*
X79950000Y-88437500D03*
D12*
X88565000Y-79057500D03*
X75140000Y-81597500D03*
D13*
X85090000Y-79057500D03*
X78740000Y-81597500D03*
D14*
X82550000Y-84137500D03*
%TD*%
D10*
%TO.C,SW5*%
X68580000Y-141287500D03*
X58420000Y-141287500D03*
D11*
X66100000Y-145587500D03*
X66100000Y-147087500D03*
X60900000Y-147087500D03*
X60900000Y-145587500D03*
D12*
X69515000Y-136207500D03*
X56090000Y-138747500D03*
D13*
X66040000Y-136207500D03*
X59690000Y-138747500D03*
D14*
X63500000Y-141287500D03*
%TD*%
D10*
%TO.C,SW4*%
X68580000Y-122237500D03*
X58420000Y-122237500D03*
D11*
X66100000Y-126537500D03*
X66100000Y-128037500D03*
X60900000Y-128037500D03*
X60900000Y-126537500D03*
D12*
X69515000Y-117157500D03*
X56090000Y-119697500D03*
D13*
X66040000Y-117157500D03*
X59690000Y-119697500D03*
D14*
X63500000Y-122237500D03*
%TD*%
D10*
%TO.C,SW3*%
X68580000Y-103187500D03*
X58420000Y-103187500D03*
D11*
X66100000Y-107487500D03*
X66100000Y-108987500D03*
X60900000Y-108987500D03*
X60900000Y-107487500D03*
D12*
X69515000Y-98107500D03*
X56090000Y-100647500D03*
D13*
X66040000Y-98107500D03*
X59690000Y-100647500D03*
D14*
X63500000Y-103187500D03*
%TD*%
D22*
%TO.C,D22*%
X116637500Y-110112500D03*
X115137500Y-110112500D03*
X115137500Y-115312500D03*
X116637500Y-115312500D03*
%TD*%
%TO.C,D21*%
X116637500Y-148212500D03*
X115137500Y-148212500D03*
X115137500Y-153412500D03*
X116637500Y-153412500D03*
%TD*%
D11*
%TO.C,D20*%
X70425000Y-164350000D03*
X70425000Y-165850000D03*
X75625000Y-165850000D03*
X75625000Y-164350000D03*
%TD*%
D10*
%TO.C,U2*%
X83185000Y-69850000D03*
X85725000Y-69850000D03*
X88265000Y-69850000D03*
X90805000Y-69850000D03*
X93345000Y-69850000D03*
X95885000Y-69850000D03*
X98425000Y-69850000D03*
D23*
X100965000Y-69850000D03*
D24*
X77597000Y-69850000D03*
X106553000Y-40386000D03*
X77597000Y-40386000D03*
X106553000Y-69850000D03*
%TD*%
%TO.C,U1*%
G36*
G01*
X101701600Y-38100000D02*
X101701600Y-38100000D01*
G75*
G02*
X100965000Y-38836600I-736600J0D01*
G01*
X99695000Y-38836600D01*
G75*
G02*
X98958400Y-38100000I0J736600D01*
G01*
X98958400Y-38100000D01*
G75*
G02*
X99695000Y-37363400I736600J0D01*
G01*
X100965000Y-37363400D01*
G75*
G02*
X101701600Y-38100000I0J-736600D01*
G01*
G37*
G36*
G01*
X101701600Y-40640000D02*
X101701600Y-40640000D01*
G75*
G02*
X100965000Y-41376600I-736600J0D01*
G01*
X99695000Y-41376600D01*
G75*
G02*
X98958400Y-40640000I0J736600D01*
G01*
X98958400Y-40640000D01*
G75*
G02*
X99695000Y-39903400I736600J0D01*
G01*
X100965000Y-39903400D01*
G75*
G02*
X101701600Y-40640000I0J-736600D01*
G01*
G37*
G36*
G01*
X101701600Y-43180000D02*
X101701600Y-43180000D01*
G75*
G02*
X100965000Y-43916600I-736600J0D01*
G01*
X99695000Y-43916600D01*
G75*
G02*
X98958400Y-43180000I0J736600D01*
G01*
X98958400Y-43180000D01*
G75*
G02*
X99695000Y-42443400I736600J0D01*
G01*
X100965000Y-42443400D01*
G75*
G02*
X101701600Y-43180000I0J-736600D01*
G01*
G37*
G36*
G01*
X101701600Y-45720000D02*
X101701600Y-45720000D01*
G75*
G02*
X100965000Y-46456600I-736600J0D01*
G01*
X99695000Y-46456600D01*
G75*
G02*
X98958400Y-45720000I0J736600D01*
G01*
X98958400Y-45720000D01*
G75*
G02*
X99695000Y-44983400I736600J0D01*
G01*
X100965000Y-44983400D01*
G75*
G02*
X101701600Y-45720000I0J-736600D01*
G01*
G37*
G36*
G01*
X101701600Y-48260000D02*
X101701600Y-48260000D01*
G75*
G02*
X100965000Y-48996600I-736600J0D01*
G01*
X99695000Y-48996600D01*
G75*
G02*
X98958400Y-48260000I0J736600D01*
G01*
X98958400Y-48260000D01*
G75*
G02*
X99695000Y-47523400I736600J0D01*
G01*
X100965000Y-47523400D01*
G75*
G02*
X101701600Y-48260000I0J-736600D01*
G01*
G37*
G36*
G01*
X101701600Y-50800000D02*
X101701600Y-50800000D01*
G75*
G02*
X100965000Y-51536600I-736600J0D01*
G01*
X99695000Y-51536600D01*
G75*
G02*
X98958400Y-50800000I0J736600D01*
G01*
X98958400Y-50800000D01*
G75*
G02*
X99695000Y-50063400I736600J0D01*
G01*
X100965000Y-50063400D01*
G75*
G02*
X101701600Y-50800000I0J-736600D01*
G01*
G37*
G36*
G01*
X101701600Y-53340000D02*
X101701600Y-53340000D01*
G75*
G02*
X100965000Y-54076600I-736600J0D01*
G01*
X99695000Y-54076600D01*
G75*
G02*
X98958400Y-53340000I0J736600D01*
G01*
X98958400Y-53340000D01*
G75*
G02*
X99695000Y-52603400I736600J0D01*
G01*
X100965000Y-52603400D01*
G75*
G02*
X101701600Y-53340000I0J-736600D01*
G01*
G37*
G36*
G01*
X101701600Y-55880000D02*
X101701600Y-55880000D01*
G75*
G02*
X100965000Y-56616600I-736600J0D01*
G01*
X99695000Y-56616600D01*
G75*
G02*
X98958400Y-55880000I0J736600D01*
G01*
X98958400Y-55880000D01*
G75*
G02*
X99695000Y-55143400I736600J0D01*
G01*
X100965000Y-55143400D01*
G75*
G02*
X101701600Y-55880000I0J-736600D01*
G01*
G37*
G36*
G01*
X101701600Y-58420000D02*
X101701600Y-58420000D01*
G75*
G02*
X100965000Y-59156600I-736600J0D01*
G01*
X99695000Y-59156600D01*
G75*
G02*
X98958400Y-58420000I0J736600D01*
G01*
X98958400Y-58420000D01*
G75*
G02*
X99695000Y-57683400I736600J0D01*
G01*
X100965000Y-57683400D01*
G75*
G02*
X101701600Y-58420000I0J-736600D01*
G01*
G37*
G36*
G01*
X101701600Y-60960000D02*
X101701600Y-60960000D01*
G75*
G02*
X100965000Y-61696600I-736600J0D01*
G01*
X99695000Y-61696600D01*
G75*
G02*
X98958400Y-60960000I0J736600D01*
G01*
X98958400Y-60960000D01*
G75*
G02*
X99695000Y-60223400I736600J0D01*
G01*
X100965000Y-60223400D01*
G75*
G02*
X101701600Y-60960000I0J-736600D01*
G01*
G37*
G36*
G01*
X101701600Y-63500000D02*
X101701600Y-63500000D01*
G75*
G02*
X100965000Y-64236600I-736600J0D01*
G01*
X99695000Y-64236600D01*
G75*
G02*
X98958400Y-63500000I0J736600D01*
G01*
X98958400Y-63500000D01*
G75*
G02*
X99695000Y-62763400I736600J0D01*
G01*
X100965000Y-62763400D01*
G75*
G02*
X101701600Y-63500000I0J-736600D01*
G01*
G37*
G36*
G01*
X101701600Y-66040000D02*
X101701600Y-66040000D01*
G75*
G02*
X100965000Y-66776600I-736600J0D01*
G01*
X99695000Y-66776600D01*
G75*
G02*
X98958400Y-66040000I0J736600D01*
G01*
X98958400Y-66040000D01*
G75*
G02*
X99695000Y-65303400I736600J0D01*
G01*
X100965000Y-65303400D01*
G75*
G02*
X101701600Y-66040000I0J-736600D01*
G01*
G37*
G36*
G01*
X83921600Y-66040000D02*
X83921600Y-66040000D01*
G75*
G02*
X83185000Y-66776600I-736600J0D01*
G01*
X81915000Y-66776600D01*
G75*
G02*
X81178400Y-66040000I0J736600D01*
G01*
X81178400Y-66040000D01*
G75*
G02*
X81915000Y-65303400I736600J0D01*
G01*
X83185000Y-65303400D01*
G75*
G02*
X83921600Y-66040000I0J-736600D01*
G01*
G37*
G36*
G01*
X83921600Y-63500000D02*
X83921600Y-63500000D01*
G75*
G02*
X83185000Y-64236600I-736600J0D01*
G01*
X81915000Y-64236600D01*
G75*
G02*
X81178400Y-63500000I0J736600D01*
G01*
X81178400Y-63500000D01*
G75*
G02*
X81915000Y-62763400I736600J0D01*
G01*
X83185000Y-62763400D01*
G75*
G02*
X83921600Y-63500000I0J-736600D01*
G01*
G37*
G36*
G01*
X83921600Y-60960000D02*
X83921600Y-60960000D01*
G75*
G02*
X83185000Y-61696600I-736600J0D01*
G01*
X81915000Y-61696600D01*
G75*
G02*
X81178400Y-60960000I0J736600D01*
G01*
X81178400Y-60960000D01*
G75*
G02*
X81915000Y-60223400I736600J0D01*
G01*
X83185000Y-60223400D01*
G75*
G02*
X83921600Y-60960000I0J-736600D01*
G01*
G37*
G36*
G01*
X83921600Y-58420000D02*
X83921600Y-58420000D01*
G75*
G02*
X83185000Y-59156600I-736600J0D01*
G01*
X81915000Y-59156600D01*
G75*
G02*
X81178400Y-58420000I0J736600D01*
G01*
X81178400Y-58420000D01*
G75*
G02*
X81915000Y-57683400I736600J0D01*
G01*
X83185000Y-57683400D01*
G75*
G02*
X83921600Y-58420000I0J-736600D01*
G01*
G37*
G36*
G01*
X83921600Y-55880000D02*
X83921600Y-55880000D01*
G75*
G02*
X83185000Y-56616600I-736600J0D01*
G01*
X81915000Y-56616600D01*
G75*
G02*
X81178400Y-55880000I0J736600D01*
G01*
X81178400Y-55880000D01*
G75*
G02*
X81915000Y-55143400I736600J0D01*
G01*
X83185000Y-55143400D01*
G75*
G02*
X83921600Y-55880000I0J-736600D01*
G01*
G37*
G36*
G01*
X83921600Y-53340000D02*
X83921600Y-53340000D01*
G75*
G02*
X83185000Y-54076600I-736600J0D01*
G01*
X81915000Y-54076600D01*
G75*
G02*
X81178400Y-53340000I0J736600D01*
G01*
X81178400Y-53340000D01*
G75*
G02*
X81915000Y-52603400I736600J0D01*
G01*
X83185000Y-52603400D01*
G75*
G02*
X83921600Y-53340000I0J-736600D01*
G01*
G37*
G36*
G01*
X83921600Y-50800000D02*
X83921600Y-50800000D01*
G75*
G02*
X83185000Y-51536600I-736600J0D01*
G01*
X81915000Y-51536600D01*
G75*
G02*
X81178400Y-50800000I0J736600D01*
G01*
X81178400Y-50800000D01*
G75*
G02*
X81915000Y-50063400I736600J0D01*
G01*
X83185000Y-50063400D01*
G75*
G02*
X83921600Y-50800000I0J-736600D01*
G01*
G37*
G36*
G01*
X83921600Y-48260000D02*
X83921600Y-48260000D01*
G75*
G02*
X83185000Y-48996600I-736600J0D01*
G01*
X81915000Y-48996600D01*
G75*
G02*
X81178400Y-48260000I0J736600D01*
G01*
X81178400Y-48260000D01*
G75*
G02*
X81915000Y-47523400I736600J0D01*
G01*
X83185000Y-47523400D01*
G75*
G02*
X83921600Y-48260000I0J-736600D01*
G01*
G37*
G36*
G01*
X83921600Y-38100000D02*
X83921600Y-38100000D01*
G75*
G02*
X83185000Y-38836600I-736600J0D01*
G01*
X81915000Y-38836600D01*
G75*
G02*
X81178400Y-38100000I0J736600D01*
G01*
X81178400Y-38100000D01*
G75*
G02*
X81915000Y-37363400I736600J0D01*
G01*
X83185000Y-37363400D01*
G75*
G02*
X83921600Y-38100000I0J-736600D01*
G01*
G37*
G36*
G01*
X83921600Y-40640000D02*
X83921600Y-40640000D01*
G75*
G02*
X83185000Y-41376600I-736600J0D01*
G01*
X81915000Y-41376600D01*
G75*
G02*
X81178400Y-40640000I0J736600D01*
G01*
X81178400Y-40640000D01*
G75*
G02*
X81915000Y-39903400I736600J0D01*
G01*
X83185000Y-39903400D01*
G75*
G02*
X83921600Y-40640000I0J-736600D01*
G01*
G37*
G36*
G01*
X83921600Y-43180000D02*
X83921600Y-43180000D01*
G75*
G02*
X83185000Y-43916600I-736600J0D01*
G01*
X81915000Y-43916600D01*
G75*
G02*
X81178400Y-43180000I0J736600D01*
G01*
X81178400Y-43180000D01*
G75*
G02*
X81915000Y-42443400I736600J0D01*
G01*
X83185000Y-42443400D01*
G75*
G02*
X83921600Y-43180000I0J-736600D01*
G01*
G37*
G36*
G01*
X83921600Y-45720000D02*
X83921600Y-45720000D01*
G75*
G02*
X83185000Y-46456600I-736600J0D01*
G01*
X81915000Y-46456600D01*
G75*
G02*
X81178400Y-45720000I0J736600D01*
G01*
X81178400Y-45720000D01*
G75*
G02*
X81915000Y-44983400I736600J0D01*
G01*
X83185000Y-44983400D01*
G75*
G02*
X83921600Y-45720000I0J-736600D01*
G01*
G37*
%TD*%
D25*
%TO.C,D19*%
X116681250Y-54547500D03*
X116681250Y-57847500D03*
%TD*%
D26*
%TO.C,D18*%
X122300000Y-120650000D03*
X119000000Y-120650000D03*
%TD*%
%TO.C,D17*%
X122300000Y-158750000D03*
X119000000Y-158750000D03*
%TD*%
D25*
%TO.C,D16*%
X128587500Y-82487500D03*
X128587500Y-85787500D03*
%TD*%
%TO.C,D15*%
X108712000Y-162180000D03*
X108712000Y-165480000D03*
%TD*%
%TO.C,D14*%
X109220000Y-141098000D03*
X109220000Y-144398000D03*
%TD*%
%TO.C,D13*%
X108458000Y-124206000D03*
X108458000Y-127506000D03*
%TD*%
%TO.C,D12*%
X109220000Y-102998000D03*
X109220000Y-106298000D03*
%TD*%
%TO.C,D11*%
X109537500Y-82487500D03*
X109537500Y-85787500D03*
%TD*%
%TO.C,D10*%
X90487500Y-139637500D03*
X90487500Y-142937500D03*
%TD*%
%TO.C,D9*%
X90487500Y-120587500D03*
X90487500Y-123887500D03*
%TD*%
%TO.C,D8*%
X90487500Y-101537500D03*
X90487500Y-104837500D03*
%TD*%
%TO.C,D7*%
X90487500Y-82487500D03*
X90487500Y-85787500D03*
%TD*%
%TO.C,D6*%
X80962500Y-158687500D03*
X80962500Y-161987500D03*
%TD*%
%TO.C,D5*%
X71437500Y-139637500D03*
X71437500Y-142937500D03*
%TD*%
%TO.C,D4*%
X71437500Y-120587500D03*
X71437500Y-123887500D03*
%TD*%
%TO.C,D3*%
X71437500Y-101537500D03*
X71437500Y-104837500D03*
%TD*%
%TO.C,D2*%
X71437500Y-82487500D03*
X71437500Y-85787500D03*
%TD*%
%TO.C,D1*%
X71437500Y-54547500D03*
X71437500Y-57847500D03*
%TD*%
%TO.C,C18*%
G36*
G01*
X116287500Y-144150000D02*
X116287500Y-143187500D01*
G75*
G02*
X116556250Y-142918750I268750J0D01*
G01*
X117093750Y-142918750D01*
G75*
G02*
X117362500Y-143187500I0J-268750D01*
G01*
X117362500Y-144150000D01*
G75*
G02*
X117093750Y-144418750I-268750J0D01*
G01*
X116556250Y-144418750D01*
G75*
G02*
X116287500Y-144150000I0J268750D01*
G01*
G37*
G36*
G01*
X114412500Y-144150000D02*
X114412500Y-143187500D01*
G75*
G02*
X114681250Y-142918750I268750J0D01*
G01*
X115218750Y-142918750D01*
G75*
G02*
X115487500Y-143187500I0J-268750D01*
G01*
X115487500Y-144150000D01*
G75*
G02*
X115218750Y-144418750I-268750J0D01*
G01*
X114681250Y-144418750D01*
G75*
G02*
X114412500Y-144150000I0J268750D01*
G01*
G37*
%TD*%
%TO.C,C17*%
G36*
G01*
X115487500Y-105087500D02*
X115487500Y-106050000D01*
G75*
G02*
X115218750Y-106318750I-268750J0D01*
G01*
X114681250Y-106318750D01*
G75*
G02*
X114412500Y-106050000I0J268750D01*
G01*
X114412500Y-105087500D01*
G75*
G02*
X114681250Y-104818750I268750J0D01*
G01*
X115218750Y-104818750D01*
G75*
G02*
X115487500Y-105087500I0J-268750D01*
G01*
G37*
G36*
G01*
X117362500Y-105087500D02*
X117362500Y-106050000D01*
G75*
G02*
X117093750Y-106318750I-268750J0D01*
G01*
X116556250Y-106318750D01*
G75*
G02*
X116287500Y-106050000I0J268750D01*
G01*
X116287500Y-105087500D01*
G75*
G02*
X116556250Y-104818750I268750J0D01*
G01*
X117093750Y-104818750D01*
G75*
G02*
X117362500Y-105087500I0J-268750D01*
G01*
G37*
%TD*%
%TO.C,C16*%
G36*
G01*
X113987500Y-89008000D02*
X113025000Y-89008000D01*
G75*
G02*
X112756250Y-88739250I0J268750D01*
G01*
X112756250Y-88201750D01*
G75*
G02*
X113025000Y-87933000I268750J0D01*
G01*
X113987500Y-87933000D01*
G75*
G02*
X114256250Y-88201750I0J-268750D01*
G01*
X114256250Y-88739250D01*
G75*
G02*
X113987500Y-89008000I-268750J0D01*
G01*
G37*
G36*
G01*
X113987500Y-90883000D02*
X113025000Y-90883000D01*
G75*
G02*
X112756250Y-90614250I0J268750D01*
G01*
X112756250Y-90076750D01*
G75*
G02*
X113025000Y-89808000I268750J0D01*
G01*
X113987500Y-89808000D01*
G75*
G02*
X114256250Y-90076750I0J-268750D01*
G01*
X114256250Y-90614250D01*
G75*
G02*
X113987500Y-90883000I-268750J0D01*
G01*
G37*
%TD*%
%TO.C,C15*%
G36*
G01*
X94937500Y-165208000D02*
X93975000Y-165208000D01*
G75*
G02*
X93706250Y-164939250I0J268750D01*
G01*
X93706250Y-164401750D01*
G75*
G02*
X93975000Y-164133000I268750J0D01*
G01*
X94937500Y-164133000D01*
G75*
G02*
X95206250Y-164401750I0J-268750D01*
G01*
X95206250Y-164939250D01*
G75*
G02*
X94937500Y-165208000I-268750J0D01*
G01*
G37*
G36*
G01*
X94937500Y-167083000D02*
X93975000Y-167083000D01*
G75*
G02*
X93706250Y-166814250I0J268750D01*
G01*
X93706250Y-166276750D01*
G75*
G02*
X93975000Y-166008000I268750J0D01*
G01*
X94937500Y-166008000D01*
G75*
G02*
X95206250Y-166276750I0J-268750D01*
G01*
X95206250Y-166814250D01*
G75*
G02*
X94937500Y-167083000I-268750J0D01*
G01*
G37*
%TD*%
%TO.C,C14*%
G36*
G01*
X94937500Y-146158000D02*
X93975000Y-146158000D01*
G75*
G02*
X93706250Y-145889250I0J268750D01*
G01*
X93706250Y-145351750D01*
G75*
G02*
X93975000Y-145083000I268750J0D01*
G01*
X94937500Y-145083000D01*
G75*
G02*
X95206250Y-145351750I0J-268750D01*
G01*
X95206250Y-145889250D01*
G75*
G02*
X94937500Y-146158000I-268750J0D01*
G01*
G37*
G36*
G01*
X94937500Y-148033000D02*
X93975000Y-148033000D01*
G75*
G02*
X93706250Y-147764250I0J268750D01*
G01*
X93706250Y-147226750D01*
G75*
G02*
X93975000Y-146958000I268750J0D01*
G01*
X94937500Y-146958000D01*
G75*
G02*
X95206250Y-147226750I0J-268750D01*
G01*
X95206250Y-147764250D01*
G75*
G02*
X94937500Y-148033000I-268750J0D01*
G01*
G37*
%TD*%
%TO.C,C13*%
G36*
G01*
X94937500Y-127108000D02*
X93975000Y-127108000D01*
G75*
G02*
X93706250Y-126839250I0J268750D01*
G01*
X93706250Y-126301750D01*
G75*
G02*
X93975000Y-126033000I268750J0D01*
G01*
X94937500Y-126033000D01*
G75*
G02*
X95206250Y-126301750I0J-268750D01*
G01*
X95206250Y-126839250D01*
G75*
G02*
X94937500Y-127108000I-268750J0D01*
G01*
G37*
G36*
G01*
X94937500Y-128983000D02*
X93975000Y-128983000D01*
G75*
G02*
X93706250Y-128714250I0J268750D01*
G01*
X93706250Y-128176750D01*
G75*
G02*
X93975000Y-127908000I268750J0D01*
G01*
X94937500Y-127908000D01*
G75*
G02*
X95206250Y-128176750I0J-268750D01*
G01*
X95206250Y-128714250D01*
G75*
G02*
X94937500Y-128983000I-268750J0D01*
G01*
G37*
%TD*%
%TO.C,C12*%
G36*
G01*
X94937500Y-108058000D02*
X93975000Y-108058000D01*
G75*
G02*
X93706250Y-107789250I0J268750D01*
G01*
X93706250Y-107251750D01*
G75*
G02*
X93975000Y-106983000I268750J0D01*
G01*
X94937500Y-106983000D01*
G75*
G02*
X95206250Y-107251750I0J-268750D01*
G01*
X95206250Y-107789250D01*
G75*
G02*
X94937500Y-108058000I-268750J0D01*
G01*
G37*
G36*
G01*
X94937500Y-109933000D02*
X93975000Y-109933000D01*
G75*
G02*
X93706250Y-109664250I0J268750D01*
G01*
X93706250Y-109126750D01*
G75*
G02*
X93975000Y-108858000I268750J0D01*
G01*
X94937500Y-108858000D01*
G75*
G02*
X95206250Y-109126750I0J-268750D01*
G01*
X95206250Y-109664250D01*
G75*
G02*
X94937500Y-109933000I-268750J0D01*
G01*
G37*
%TD*%
%TO.C,C11*%
G36*
G01*
X94937500Y-89008000D02*
X93975000Y-89008000D01*
G75*
G02*
X93706250Y-88739250I0J268750D01*
G01*
X93706250Y-88201750D01*
G75*
G02*
X93975000Y-87933000I268750J0D01*
G01*
X94937500Y-87933000D01*
G75*
G02*
X95206250Y-88201750I0J-268750D01*
G01*
X95206250Y-88739250D01*
G75*
G02*
X94937500Y-89008000I-268750J0D01*
G01*
G37*
G36*
G01*
X94937500Y-90883000D02*
X93975000Y-90883000D01*
G75*
G02*
X93706250Y-90614250I0J268750D01*
G01*
X93706250Y-90076750D01*
G75*
G02*
X93975000Y-89808000I268750J0D01*
G01*
X94937500Y-89808000D01*
G75*
G02*
X95206250Y-90076750I0J-268750D01*
G01*
X95206250Y-90614250D01*
G75*
G02*
X94937500Y-90883000I-268750J0D01*
G01*
G37*
%TD*%
%TO.C,C10*%
G36*
G01*
X75887500Y-146158000D02*
X74925000Y-146158000D01*
G75*
G02*
X74656250Y-145889250I0J268750D01*
G01*
X74656250Y-145351750D01*
G75*
G02*
X74925000Y-145083000I268750J0D01*
G01*
X75887500Y-145083000D01*
G75*
G02*
X76156250Y-145351750I0J-268750D01*
G01*
X76156250Y-145889250D01*
G75*
G02*
X75887500Y-146158000I-268750J0D01*
G01*
G37*
G36*
G01*
X75887500Y-148033000D02*
X74925000Y-148033000D01*
G75*
G02*
X74656250Y-147764250I0J268750D01*
G01*
X74656250Y-147226750D01*
G75*
G02*
X74925000Y-146958000I268750J0D01*
G01*
X75887500Y-146958000D01*
G75*
G02*
X76156250Y-147226750I0J-268750D01*
G01*
X76156250Y-147764250D01*
G75*
G02*
X75887500Y-148033000I-268750J0D01*
G01*
G37*
%TD*%
%TO.C,C9*%
G36*
G01*
X75887500Y-127108000D02*
X74925000Y-127108000D01*
G75*
G02*
X74656250Y-126839250I0J268750D01*
G01*
X74656250Y-126301750D01*
G75*
G02*
X74925000Y-126033000I268750J0D01*
G01*
X75887500Y-126033000D01*
G75*
G02*
X76156250Y-126301750I0J-268750D01*
G01*
X76156250Y-126839250D01*
G75*
G02*
X75887500Y-127108000I-268750J0D01*
G01*
G37*
G36*
G01*
X75887500Y-128983000D02*
X74925000Y-128983000D01*
G75*
G02*
X74656250Y-128714250I0J268750D01*
G01*
X74656250Y-128176750D01*
G75*
G02*
X74925000Y-127908000I268750J0D01*
G01*
X75887500Y-127908000D01*
G75*
G02*
X76156250Y-128176750I0J-268750D01*
G01*
X76156250Y-128714250D01*
G75*
G02*
X75887500Y-128983000I-268750J0D01*
G01*
G37*
%TD*%
%TO.C,C8*%
G36*
G01*
X75887500Y-108058000D02*
X74925000Y-108058000D01*
G75*
G02*
X74656250Y-107789250I0J268750D01*
G01*
X74656250Y-107251750D01*
G75*
G02*
X74925000Y-106983000I268750J0D01*
G01*
X75887500Y-106983000D01*
G75*
G02*
X76156250Y-107251750I0J-268750D01*
G01*
X76156250Y-107789250D01*
G75*
G02*
X75887500Y-108058000I-268750J0D01*
G01*
G37*
G36*
G01*
X75887500Y-109933000D02*
X74925000Y-109933000D01*
G75*
G02*
X74656250Y-109664250I0J268750D01*
G01*
X74656250Y-109126750D01*
G75*
G02*
X74925000Y-108858000I268750J0D01*
G01*
X75887500Y-108858000D01*
G75*
G02*
X76156250Y-109126750I0J-268750D01*
G01*
X76156250Y-109664250D01*
G75*
G02*
X75887500Y-109933000I-268750J0D01*
G01*
G37*
%TD*%
%TO.C,C7*%
G36*
G01*
X75887500Y-90883000D02*
X74925000Y-90883000D01*
G75*
G02*
X74656250Y-90614250I0J268750D01*
G01*
X74656250Y-90076750D01*
G75*
G02*
X74925000Y-89808000I268750J0D01*
G01*
X75887500Y-89808000D01*
G75*
G02*
X76156250Y-90076750I0J-268750D01*
G01*
X76156250Y-90614250D01*
G75*
G02*
X75887500Y-90883000I-268750J0D01*
G01*
G37*
G36*
G01*
X75887500Y-89008000D02*
X74925000Y-89008000D01*
G75*
G02*
X74656250Y-88739250I0J268750D01*
G01*
X74656250Y-88201750D01*
G75*
G02*
X74925000Y-87933000I268750J0D01*
G01*
X75887500Y-87933000D01*
G75*
G02*
X76156250Y-88201750I0J-268750D01*
G01*
X76156250Y-88739250D01*
G75*
G02*
X75887500Y-89008000I-268750J0D01*
G01*
G37*
%TD*%
%TO.C,C6*%
G36*
G01*
X66362500Y-164954000D02*
X65400000Y-164954000D01*
G75*
G02*
X65131250Y-164685250I0J268750D01*
G01*
X65131250Y-164147750D01*
G75*
G02*
X65400000Y-163879000I268750J0D01*
G01*
X66362500Y-163879000D01*
G75*
G02*
X66631250Y-164147750I0J-268750D01*
G01*
X66631250Y-164685250D01*
G75*
G02*
X66362500Y-164954000I-268750J0D01*
G01*
G37*
G36*
G01*
X66362500Y-166829000D02*
X65400000Y-166829000D01*
G75*
G02*
X65131250Y-166560250I0J268750D01*
G01*
X65131250Y-166022750D01*
G75*
G02*
X65400000Y-165754000I268750J0D01*
G01*
X66362500Y-165754000D01*
G75*
G02*
X66631250Y-166022750I0J-268750D01*
G01*
X66631250Y-166560250D01*
G75*
G02*
X66362500Y-166829000I-268750J0D01*
G01*
G37*
%TD*%
%TO.C,C5*%
G36*
G01*
X56837500Y-146158000D02*
X55875000Y-146158000D01*
G75*
G02*
X55606250Y-145889250I0J268750D01*
G01*
X55606250Y-145351750D01*
G75*
G02*
X55875000Y-145083000I268750J0D01*
G01*
X56837500Y-145083000D01*
G75*
G02*
X57106250Y-145351750I0J-268750D01*
G01*
X57106250Y-145889250D01*
G75*
G02*
X56837500Y-146158000I-268750J0D01*
G01*
G37*
G36*
G01*
X56837500Y-148033000D02*
X55875000Y-148033000D01*
G75*
G02*
X55606250Y-147764250I0J268750D01*
G01*
X55606250Y-147226750D01*
G75*
G02*
X55875000Y-146958000I268750J0D01*
G01*
X56837500Y-146958000D01*
G75*
G02*
X57106250Y-147226750I0J-268750D01*
G01*
X57106250Y-147764250D01*
G75*
G02*
X56837500Y-148033000I-268750J0D01*
G01*
G37*
%TD*%
%TO.C,C4*%
G36*
G01*
X56837500Y-127108000D02*
X55875000Y-127108000D01*
G75*
G02*
X55606250Y-126839250I0J268750D01*
G01*
X55606250Y-126301750D01*
G75*
G02*
X55875000Y-126033000I268750J0D01*
G01*
X56837500Y-126033000D01*
G75*
G02*
X57106250Y-126301750I0J-268750D01*
G01*
X57106250Y-126839250D01*
G75*
G02*
X56837500Y-127108000I-268750J0D01*
G01*
G37*
G36*
G01*
X56837500Y-128983000D02*
X55875000Y-128983000D01*
G75*
G02*
X55606250Y-128714250I0J268750D01*
G01*
X55606250Y-128176750D01*
G75*
G02*
X55875000Y-127908000I268750J0D01*
G01*
X56837500Y-127908000D01*
G75*
G02*
X57106250Y-128176750I0J-268750D01*
G01*
X57106250Y-128714250D01*
G75*
G02*
X56837500Y-128983000I-268750J0D01*
G01*
G37*
%TD*%
%TO.C,C3*%
G36*
G01*
X57631250Y-108058000D02*
X56668750Y-108058000D01*
G75*
G02*
X56400000Y-107789250I0J268750D01*
G01*
X56400000Y-107251750D01*
G75*
G02*
X56668750Y-106983000I268750J0D01*
G01*
X57631250Y-106983000D01*
G75*
G02*
X57900000Y-107251750I0J-268750D01*
G01*
X57900000Y-107789250D01*
G75*
G02*
X57631250Y-108058000I-268750J0D01*
G01*
G37*
G36*
G01*
X57631250Y-109933000D02*
X56668750Y-109933000D01*
G75*
G02*
X56400000Y-109664250I0J268750D01*
G01*
X56400000Y-109126750D01*
G75*
G02*
X56668750Y-108858000I268750J0D01*
G01*
X57631250Y-108858000D01*
G75*
G02*
X57900000Y-109126750I0J-268750D01*
G01*
X57900000Y-109664250D01*
G75*
G02*
X57631250Y-109933000I-268750J0D01*
G01*
G37*
%TD*%
%TO.C,C2*%
G36*
G01*
X56837500Y-89008000D02*
X55875000Y-89008000D01*
G75*
G02*
X55606250Y-88739250I0J268750D01*
G01*
X55606250Y-88201750D01*
G75*
G02*
X55875000Y-87933000I268750J0D01*
G01*
X56837500Y-87933000D01*
G75*
G02*
X57106250Y-88201750I0J-268750D01*
G01*
X57106250Y-88739250D01*
G75*
G02*
X56837500Y-89008000I-268750J0D01*
G01*
G37*
G36*
G01*
X56837500Y-90883000D02*
X55875000Y-90883000D01*
G75*
G02*
X55606250Y-90614250I0J268750D01*
G01*
X55606250Y-90076750D01*
G75*
G02*
X55875000Y-89808000I268750J0D01*
G01*
X56837500Y-89808000D01*
G75*
G02*
X57106250Y-90076750I0J-268750D01*
G01*
X57106250Y-90614250D01*
G75*
G02*
X56837500Y-90883000I-268750J0D01*
G01*
G37*
%TD*%
%TO.C,C1*%
G36*
G01*
X56668750Y-59993000D02*
X57631250Y-59993000D01*
G75*
G02*
X57900000Y-60261750I0J-268750D01*
G01*
X57900000Y-60799250D01*
G75*
G02*
X57631250Y-61068000I-268750J0D01*
G01*
X56668750Y-61068000D01*
G75*
G02*
X56400000Y-60799250I0J268750D01*
G01*
X56400000Y-60261750D01*
G75*
G02*
X56668750Y-59993000I268750J0D01*
G01*
G37*
G36*
G01*
X56668750Y-61868000D02*
X57631250Y-61868000D01*
G75*
G02*
X57900000Y-62136750I0J-268750D01*
G01*
X57900000Y-62674250D01*
G75*
G02*
X57631250Y-62943000I-268750J0D01*
G01*
X56668750Y-62943000D01*
G75*
G02*
X56400000Y-62674250I0J268750D01*
G01*
X56400000Y-62136750D01*
G75*
G02*
X56668750Y-61868000I268750J0D01*
G01*
G37*
%TD*%
M02*
