%TF.GenerationSoftware,KiCad,Pcbnew,(5.1.6)-1*%
%TF.CreationDate,2021-02-05T01:20:54-05:00*%
%TF.ProjectId,Numpadulator,4e756d70-6164-4756-9c61-746f722e6b69,rev?*%
%TF.SameCoordinates,Original*%
%TF.FileFunction,Copper,L2,Bot*%
%TF.FilePolarity,Positive*%
%FSLAX46Y46*%
G04 Gerber Fmt 4.6, Leading zero omitted, Abs format (unit mm)*
G04 Created by KiCad (PCBNEW (5.1.6)-1) date 2021-02-05 01:20:54*
%MOMM*%
%LPD*%
G01*
G04 APERTURE LIST*
%TA.AperFunction,SMDPad,CuDef*%
%ADD10R,1.800000X0.900000*%
%TD*%
%TA.AperFunction,SMDPad,CuDef*%
%ADD11R,2.550000X2.500000*%
%TD*%
%TA.AperFunction,ComponentPad*%
%ADD12O,6.000000X3.000000*%
%TD*%
%TA.AperFunction,ComponentPad*%
%ADD13C,1.650000*%
%TD*%
%TA.AperFunction,ComponentPad*%
%ADD14R,1.650000X1.650000*%
%TD*%
%TA.AperFunction,SMDPad,CuDef*%
%ADD15R,2.500000X2.550000*%
%TD*%
%TA.AperFunction,SMDPad,CuDef*%
%ADD16R,0.900000X1.800000*%
%TD*%
%TA.AperFunction,ComponentPad*%
%ADD17C,1.700000*%
%TD*%
%TA.AperFunction,ComponentPad*%
%ADD18R,1.700000X1.700000*%
%TD*%
%TA.AperFunction,SMDPad,CuDef*%
%ADD19R,1.200000X0.900000*%
%TD*%
%TA.AperFunction,SMDPad,CuDef*%
%ADD20R,0.900000X1.200000*%
%TD*%
%TA.AperFunction,ViaPad*%
%ADD21C,0.800000*%
%TD*%
%TA.AperFunction,Conductor*%
%ADD22C,0.381000*%
%TD*%
%TA.AperFunction,Conductor*%
%ADD23C,0.254000*%
%TD*%
G04 APERTURE END LIST*
D10*
%TO.P,SW16,4*%
%TO.N,Net-(SW11-Pad2)*%
X123250000Y-88437500D03*
%TO.P,SW16,3*%
%TO.N,GND*%
X123250000Y-89937500D03*
%TO.P,SW16,2*%
%TO.N,Net-(SW16-Pad2)*%
X118050000Y-89937500D03*
%TO.P,SW16,1*%
%TO.N,VCC*%
X118050000Y-88437500D03*
D11*
%TO.P,SW16,6*%
%TO.N,Net-(D16-Pad2)*%
X126665000Y-79057500D03*
%TO.P,SW16,5*%
%TO.N,COL3*%
X113240000Y-81597500D03*
%TD*%
D10*
%TO.P,SW2,4*%
%TO.N,Net-(SW1-Pad2)*%
X66100000Y-88437500D03*
%TO.P,SW2,3*%
%TO.N,GND*%
X66100000Y-89937500D03*
%TO.P,SW2,2*%
%TO.N,Net-(SW2-Pad2)*%
X60900000Y-89937500D03*
%TO.P,SW2,1*%
%TO.N,VCC*%
X60900000Y-88437500D03*
D11*
%TO.P,SW2,6*%
%TO.N,Net-(D2-Pad2)*%
X69515000Y-79057500D03*
%TO.P,SW2,5*%
%TO.N,COL0*%
X56090000Y-81597500D03*
%TD*%
D10*
%TO.P,SW1,4*%
%TO.N,LED*%
X66100000Y-60434000D03*
%TO.P,SW1,3*%
%TO.N,GND*%
X66100000Y-61934000D03*
%TO.P,SW1,2*%
%TO.N,Net-(SW1-Pad2)*%
X60900000Y-61934000D03*
%TO.P,SW1,1*%
%TO.N,VCC*%
X60900000Y-60434000D03*
D11*
%TO.P,SW1,6*%
%TO.N,Net-(D1-Pad2)*%
X69515000Y-51054000D03*
%TO.P,SW1,5*%
%TO.N,COL0*%
X56090000Y-53594000D03*
%TD*%
D10*
%TO.P,SW12,4*%
%TO.N,Net-(SW12-Pad4)*%
X104200000Y-107487500D03*
%TO.P,SW12,3*%
%TO.N,GND*%
X104200000Y-108987500D03*
%TO.P,SW12,2*%
%TO.N,Net-(D21-Pad4)*%
X99000000Y-108987500D03*
%TO.P,SW12,1*%
%TO.N,VCC*%
X99000000Y-107487500D03*
D11*
%TO.P,SW12,6*%
%TO.N,Net-(D12-Pad2)*%
X107615000Y-98107500D03*
%TO.P,SW12,5*%
%TO.N,COL2*%
X94190000Y-100647500D03*
%TD*%
D12*
%TO.P,SW19,2*%
%TO.N,N/C*%
X120396000Y-50434000D03*
%TO.P,SW19,1*%
X120396000Y-61834000D03*
D13*
%TO.P,SW19,B*%
%TO.N,ROTB*%
X127896000Y-53634000D03*
%TO.P,SW19,C*%
%TO.N,GND*%
X127896000Y-56134000D03*
%TO.P,SW19,A*%
%TO.N,ROTA*%
X127896000Y-58634000D03*
%TO.P,SW19,S2*%
%TO.N,Net-(D19-Pad2)*%
X113396000Y-53634000D03*
D14*
%TO.P,SW19,S1*%
%TO.N,COL3*%
X113396000Y-58634000D03*
%TD*%
D15*
%TO.P,MX3,2*%
%TO.N,Net-(D18-Pad2)*%
X125730000Y-118554500D03*
%TO.P,MX3,1*%
%TO.N,COL3*%
X123190000Y-105627500D03*
%TD*%
%TO.P,MX2,2*%
%TO.N,Net-(D17-Pad2)*%
X125730000Y-156654500D03*
%TO.P,MX2,1*%
%TO.N,COL3*%
X123190000Y-143727500D03*
%TD*%
D11*
%TO.P,MX1,2*%
%TO.N,Net-(D6-Pad2)*%
X78867000Y-155257500D03*
%TO.P,MX1,1*%
%TO.N,COL0*%
X65940000Y-157797500D03*
%TD*%
D10*
%TO.P,SW15,4*%
%TO.N,Net-(D20-Pad2)*%
X104200000Y-164637500D03*
%TO.P,SW15,3*%
%TO.N,GND*%
X104200000Y-166137500D03*
%TO.P,SW15,2*%
%TO.N,Net-(SW15-Pad2)*%
X99000000Y-166137500D03*
%TO.P,SW15,1*%
%TO.N,VCC*%
X99000000Y-164637500D03*
D11*
%TO.P,SW15,6*%
%TO.N,Net-(D15-Pad2)*%
X107615000Y-155257500D03*
%TO.P,SW15,5*%
%TO.N,COL2*%
X94190000Y-157797500D03*
%TD*%
D10*
%TO.P,SW14,4*%
%TO.N,Net-(SW10-Pad2)*%
X104200000Y-145587500D03*
%TO.P,SW14,3*%
%TO.N,GND*%
X104200000Y-147087500D03*
%TO.P,SW14,2*%
%TO.N,Net-(D22-Pad4)*%
X99000000Y-147087500D03*
%TO.P,SW14,1*%
%TO.N,VCC*%
X99000000Y-145587500D03*
D11*
%TO.P,SW14,6*%
%TO.N,Net-(D14-Pad2)*%
X107615000Y-136207500D03*
%TO.P,SW14,5*%
%TO.N,COL2*%
X94190000Y-138747500D03*
%TD*%
D10*
%TO.P,SW13,4*%
%TO.N,Net-(SW13-Pad4)*%
X104200000Y-126537500D03*
%TO.P,SW13,3*%
%TO.N,GND*%
X104200000Y-128037500D03*
%TO.P,SW13,2*%
%TO.N,Net-(SW13-Pad2)*%
X99000000Y-128037500D03*
%TO.P,SW13,1*%
%TO.N,VCC*%
X99000000Y-126537500D03*
D11*
%TO.P,SW13,6*%
%TO.N,Net-(D13-Pad2)*%
X107615000Y-117157500D03*
%TO.P,SW13,5*%
%TO.N,COL2*%
X94190000Y-119697500D03*
%TD*%
D10*
%TO.P,SW11,4*%
%TO.N,Net-(SW11-Pad4)*%
X104200000Y-88437500D03*
%TO.P,SW11,3*%
%TO.N,GND*%
X104200000Y-89937500D03*
%TO.P,SW11,2*%
%TO.N,Net-(SW11-Pad2)*%
X99000000Y-89937500D03*
%TO.P,SW11,1*%
%TO.N,VCC*%
X99000000Y-88437500D03*
D11*
%TO.P,SW11,6*%
%TO.N,Net-(D11-Pad2)*%
X107615000Y-79057500D03*
%TO.P,SW11,5*%
%TO.N,COL2*%
X94190000Y-81597500D03*
%TD*%
D10*
%TO.P,SW10,4*%
%TO.N,Net-(SW10-Pad4)*%
X85150000Y-145587500D03*
%TO.P,SW10,3*%
%TO.N,GND*%
X85150000Y-147087500D03*
%TO.P,SW10,2*%
%TO.N,Net-(SW10-Pad2)*%
X79950000Y-147087500D03*
%TO.P,SW10,1*%
%TO.N,VCC*%
X79950000Y-145587500D03*
D11*
%TO.P,SW10,6*%
%TO.N,Net-(D10-Pad2)*%
X88565000Y-136207500D03*
%TO.P,SW10,5*%
%TO.N,COL1*%
X75140000Y-138747500D03*
%TD*%
D10*
%TO.P,SW9,4*%
%TO.N,Net-(SW4-Pad2)*%
X85150000Y-126537500D03*
%TO.P,SW9,3*%
%TO.N,GND*%
X85150000Y-128037500D03*
%TO.P,SW9,2*%
%TO.N,Net-(SW13-Pad4)*%
X79950000Y-128037500D03*
%TO.P,SW9,1*%
%TO.N,VCC*%
X79950000Y-126537500D03*
D11*
%TO.P,SW9,6*%
%TO.N,Net-(D9-Pad2)*%
X88565000Y-117157500D03*
%TO.P,SW9,5*%
%TO.N,COL1*%
X75140000Y-119697500D03*
%TD*%
D10*
%TO.P,SW8,4*%
%TO.N,Net-(SW3-Pad2)*%
X85150000Y-107487500D03*
%TO.P,SW8,3*%
%TO.N,GND*%
X85150000Y-108987500D03*
%TO.P,SW8,2*%
%TO.N,Net-(SW12-Pad4)*%
X79950000Y-108987500D03*
%TO.P,SW8,1*%
%TO.N,VCC*%
X79950000Y-107487500D03*
D11*
%TO.P,SW8,6*%
%TO.N,Net-(D8-Pad2)*%
X88565000Y-98107500D03*
%TO.P,SW8,5*%
%TO.N,COL1*%
X75140000Y-100647500D03*
%TD*%
D10*
%TO.P,SW7,4*%
%TO.N,Net-(SW2-Pad2)*%
X85150000Y-88437500D03*
%TO.P,SW7,3*%
%TO.N,GND*%
X85150000Y-89937500D03*
%TO.P,SW7,2*%
%TO.N,Net-(SW11-Pad4)*%
X79950000Y-89937500D03*
%TO.P,SW7,1*%
%TO.N,VCC*%
X79950000Y-88437500D03*
D11*
%TO.P,SW7,6*%
%TO.N,Net-(D7-Pad2)*%
X88565000Y-79057500D03*
%TO.P,SW7,5*%
%TO.N,COL1*%
X75140000Y-81597500D03*
%TD*%
D10*
%TO.P,SW5,4*%
%TO.N,Net-(SW13-Pad2)*%
X66100000Y-145587500D03*
%TO.P,SW5,3*%
%TO.N,GND*%
X66100000Y-147087500D03*
%TO.P,SW5,2*%
%TO.N,Net-(SW10-Pad4)*%
X60900000Y-147087500D03*
%TO.P,SW5,1*%
%TO.N,VCC*%
X60900000Y-145587500D03*
D11*
%TO.P,SW5,6*%
%TO.N,Net-(D5-Pad2)*%
X69515000Y-136207500D03*
%TO.P,SW5,5*%
%TO.N,COL0*%
X56090000Y-138747500D03*
%TD*%
D10*
%TO.P,SW4,4*%
%TO.N,Net-(D21-Pad2)*%
X66100000Y-126537500D03*
%TO.P,SW4,3*%
%TO.N,GND*%
X66100000Y-128037500D03*
%TO.P,SW4,2*%
%TO.N,Net-(SW4-Pad2)*%
X60900000Y-128037500D03*
%TO.P,SW4,1*%
%TO.N,VCC*%
X60900000Y-126537500D03*
D11*
%TO.P,SW4,6*%
%TO.N,Net-(D4-Pad2)*%
X69515000Y-117157500D03*
%TO.P,SW4,5*%
%TO.N,COL0*%
X56090000Y-119697500D03*
%TD*%
D10*
%TO.P,SW3,4*%
%TO.N,Net-(SW16-Pad2)*%
X66100000Y-107487500D03*
%TO.P,SW3,3*%
%TO.N,GND*%
X66100000Y-108987500D03*
%TO.P,SW3,2*%
%TO.N,Net-(SW3-Pad2)*%
X60900000Y-108987500D03*
%TO.P,SW3,1*%
%TO.N,VCC*%
X60900000Y-107487500D03*
D11*
%TO.P,SW3,6*%
%TO.N,Net-(D3-Pad2)*%
X69515000Y-98107500D03*
%TO.P,SW3,5*%
%TO.N,COL0*%
X56090000Y-100647500D03*
%TD*%
D16*
%TO.P,D22,1*%
%TO.N,VCC*%
X116637500Y-110112500D03*
%TO.P,D22,2*%
%TO.N,Net-(D20-Pad4)*%
X115137500Y-110112500D03*
%TO.P,D22,3*%
%TO.N,GND*%
X115137500Y-115312500D03*
%TO.P,D22,4*%
%TO.N,Net-(D22-Pad4)*%
X116637500Y-115312500D03*
%TD*%
%TO.P,D21,1*%
%TO.N,VCC*%
X116637500Y-148212500D03*
%TO.P,D21,2*%
%TO.N,Net-(D21-Pad2)*%
X115137500Y-148212500D03*
%TO.P,D21,3*%
%TO.N,GND*%
X115137500Y-153412500D03*
%TO.P,D21,4*%
%TO.N,Net-(D21-Pad4)*%
X116637500Y-153412500D03*
%TD*%
D10*
%TO.P,D20,1*%
%TO.N,VCC*%
X70425000Y-164350000D03*
%TO.P,D20,2*%
%TO.N,Net-(D20-Pad2)*%
X70425000Y-165850000D03*
%TO.P,D20,3*%
%TO.N,GND*%
X75625000Y-165850000D03*
%TO.P,D20,4*%
%TO.N,Net-(D20-Pad4)*%
X75625000Y-164350000D03*
%TD*%
D17*
%TO.P,U2,8*%
%TO.N,GND*%
X83185000Y-69850000D03*
%TO.P,U2,7*%
%TO.N,VCC*%
X85725000Y-69850000D03*
%TO.P,U2,6*%
%TO.N,Net-(U2-Pad6)*%
X88265000Y-69850000D03*
%TO.P,U2,5*%
%TO.N,Net-(U2-Pad5)*%
X90805000Y-69850000D03*
%TO.P,U2,4*%
%TO.N,Net-(U2-Pad4)*%
X93345000Y-69850000D03*
%TO.P,U2,3*%
%TO.N,Net-(U2-Pad3)*%
X95885000Y-69850000D03*
%TO.P,U2,2*%
%TO.N,SCL*%
X98425000Y-69850000D03*
D18*
%TO.P,U2,1*%
%TO.N,SDA*%
X100965000Y-69850000D03*
%TD*%
%TO.P,U1,1*%
%TO.N,LED*%
%TA.AperFunction,SMDPad,CuDef*%
G36*
G01*
X101600000Y-38100000D02*
X101600000Y-38100000D01*
G75*
G02*
X100965000Y-38735000I-635000J0D01*
G01*
X99695000Y-38735000D01*
G75*
G02*
X99060000Y-38100000I0J635000D01*
G01*
X99060000Y-38100000D01*
G75*
G02*
X99695000Y-37465000I635000J0D01*
G01*
X100965000Y-37465000D01*
G75*
G02*
X101600000Y-38100000I0J-635000D01*
G01*
G37*
%TD.AperFunction*%
%TO.P,U1,2*%
%TO.N,Net-(U1-Pad2)*%
%TA.AperFunction,SMDPad,CuDef*%
G36*
G01*
X101600000Y-40640000D02*
X101600000Y-40640000D01*
G75*
G02*
X100965000Y-41275000I-635000J0D01*
G01*
X99695000Y-41275000D01*
G75*
G02*
X99060000Y-40640000I0J635000D01*
G01*
X99060000Y-40640000D01*
G75*
G02*
X99695000Y-40005000I635000J0D01*
G01*
X100965000Y-40005000D01*
G75*
G02*
X101600000Y-40640000I0J-635000D01*
G01*
G37*
%TD.AperFunction*%
%TO.P,U1,3*%
%TO.N,GND*%
%TA.AperFunction,SMDPad,CuDef*%
G36*
G01*
X101600000Y-43180000D02*
X101600000Y-43180000D01*
G75*
G02*
X100965000Y-43815000I-635000J0D01*
G01*
X99695000Y-43815000D01*
G75*
G02*
X99060000Y-43180000I0J635000D01*
G01*
X99060000Y-43180000D01*
G75*
G02*
X99695000Y-42545000I635000J0D01*
G01*
X100965000Y-42545000D01*
G75*
G02*
X101600000Y-43180000I0J-635000D01*
G01*
G37*
%TD.AperFunction*%
%TO.P,U1,4*%
%TA.AperFunction,SMDPad,CuDef*%
G36*
G01*
X101600000Y-45720000D02*
X101600000Y-45720000D01*
G75*
G02*
X100965000Y-46355000I-635000J0D01*
G01*
X99695000Y-46355000D01*
G75*
G02*
X99060000Y-45720000I0J635000D01*
G01*
X99060000Y-45720000D01*
G75*
G02*
X99695000Y-45085000I635000J0D01*
G01*
X100965000Y-45085000D01*
G75*
G02*
X101600000Y-45720000I0J-635000D01*
G01*
G37*
%TD.AperFunction*%
%TO.P,U1,5*%
%TO.N,SDA*%
%TA.AperFunction,SMDPad,CuDef*%
G36*
G01*
X101600000Y-48260000D02*
X101600000Y-48260000D01*
G75*
G02*
X100965000Y-48895000I-635000J0D01*
G01*
X99695000Y-48895000D01*
G75*
G02*
X99060000Y-48260000I0J635000D01*
G01*
X99060000Y-48260000D01*
G75*
G02*
X99695000Y-47625000I635000J0D01*
G01*
X100965000Y-47625000D01*
G75*
G02*
X101600000Y-48260000I0J-635000D01*
G01*
G37*
%TD.AperFunction*%
%TO.P,U1,6*%
%TO.N,SCL*%
%TA.AperFunction,SMDPad,CuDef*%
G36*
G01*
X101600000Y-50800000D02*
X101600000Y-50800000D01*
G75*
G02*
X100965000Y-51435000I-635000J0D01*
G01*
X99695000Y-51435000D01*
G75*
G02*
X99060000Y-50800000I0J635000D01*
G01*
X99060000Y-50800000D01*
G75*
G02*
X99695000Y-50165000I635000J0D01*
G01*
X100965000Y-50165000D01*
G75*
G02*
X101600000Y-50800000I0J-635000D01*
G01*
G37*
%TD.AperFunction*%
%TO.P,U1,7*%
%TO.N,ROTA*%
%TA.AperFunction,SMDPad,CuDef*%
G36*
G01*
X101600000Y-53340000D02*
X101600000Y-53340000D01*
G75*
G02*
X100965000Y-53975000I-635000J0D01*
G01*
X99695000Y-53975000D01*
G75*
G02*
X99060000Y-53340000I0J635000D01*
G01*
X99060000Y-53340000D01*
G75*
G02*
X99695000Y-52705000I635000J0D01*
G01*
X100965000Y-52705000D01*
G75*
G02*
X101600000Y-53340000I0J-635000D01*
G01*
G37*
%TD.AperFunction*%
%TO.P,U1,8*%
%TO.N,COL0*%
%TA.AperFunction,SMDPad,CuDef*%
G36*
G01*
X101600000Y-55880000D02*
X101600000Y-55880000D01*
G75*
G02*
X100965000Y-56515000I-635000J0D01*
G01*
X99695000Y-56515000D01*
G75*
G02*
X99060000Y-55880000I0J635000D01*
G01*
X99060000Y-55880000D01*
G75*
G02*
X99695000Y-55245000I635000J0D01*
G01*
X100965000Y-55245000D01*
G75*
G02*
X101600000Y-55880000I0J-635000D01*
G01*
G37*
%TD.AperFunction*%
%TO.P,U1,9*%
%TO.N,COL3*%
%TA.AperFunction,SMDPad,CuDef*%
G36*
G01*
X101600000Y-58420000D02*
X101600000Y-58420000D01*
G75*
G02*
X100965000Y-59055000I-635000J0D01*
G01*
X99695000Y-59055000D01*
G75*
G02*
X99060000Y-58420000I0J635000D01*
G01*
X99060000Y-58420000D01*
G75*
G02*
X99695000Y-57785000I635000J0D01*
G01*
X100965000Y-57785000D01*
G75*
G02*
X101600000Y-58420000I0J-635000D01*
G01*
G37*
%TD.AperFunction*%
%TO.P,U1,10*%
%TO.N,COL2*%
%TA.AperFunction,SMDPad,CuDef*%
G36*
G01*
X101600000Y-60960000D02*
X101600000Y-60960000D01*
G75*
G02*
X100965000Y-61595000I-635000J0D01*
G01*
X99695000Y-61595000D01*
G75*
G02*
X99060000Y-60960000I0J635000D01*
G01*
X99060000Y-60960000D01*
G75*
G02*
X99695000Y-60325000I635000J0D01*
G01*
X100965000Y-60325000D01*
G75*
G02*
X101600000Y-60960000I0J-635000D01*
G01*
G37*
%TD.AperFunction*%
%TO.P,U1,11*%
%TO.N,COL1*%
%TA.AperFunction,SMDPad,CuDef*%
G36*
G01*
X101600000Y-63500000D02*
X101600000Y-63500000D01*
G75*
G02*
X100965000Y-64135000I-635000J0D01*
G01*
X99695000Y-64135000D01*
G75*
G02*
X99060000Y-63500000I0J635000D01*
G01*
X99060000Y-63500000D01*
G75*
G02*
X99695000Y-62865000I635000J0D01*
G01*
X100965000Y-62865000D01*
G75*
G02*
X101600000Y-63500000I0J-635000D01*
G01*
G37*
%TD.AperFunction*%
%TO.P,U1,12*%
%TO.N,Net-(U1-Pad12)*%
%TA.AperFunction,SMDPad,CuDef*%
G36*
G01*
X101600000Y-66040000D02*
X101600000Y-66040000D01*
G75*
G02*
X100965000Y-66675000I-635000J0D01*
G01*
X99695000Y-66675000D01*
G75*
G02*
X99060000Y-66040000I0J635000D01*
G01*
X99060000Y-66040000D01*
G75*
G02*
X99695000Y-65405000I635000J0D01*
G01*
X100965000Y-65405000D01*
G75*
G02*
X101600000Y-66040000I0J-635000D01*
G01*
G37*
%TD.AperFunction*%
%TO.P,U1,13*%
%TO.N,Net-(U1-Pad13)*%
%TA.AperFunction,SMDPad,CuDef*%
G36*
G01*
X83820000Y-66040000D02*
X83820000Y-66040000D01*
G75*
G02*
X83185000Y-66675000I-635000J0D01*
G01*
X81915000Y-66675000D01*
G75*
G02*
X81280000Y-66040000I0J635000D01*
G01*
X81280000Y-66040000D01*
G75*
G02*
X81915000Y-65405000I635000J0D01*
G01*
X83185000Y-65405000D01*
G75*
G02*
X83820000Y-66040000I0J-635000D01*
G01*
G37*
%TD.AperFunction*%
%TO.P,U1,14*%
%TO.N,ROW5*%
%TA.AperFunction,SMDPad,CuDef*%
G36*
G01*
X83820000Y-63500000D02*
X83820000Y-63500000D01*
G75*
G02*
X83185000Y-64135000I-635000J0D01*
G01*
X81915000Y-64135000D01*
G75*
G02*
X81280000Y-63500000I0J635000D01*
G01*
X81280000Y-63500000D01*
G75*
G02*
X81915000Y-62865000I635000J0D01*
G01*
X83185000Y-62865000D01*
G75*
G02*
X83820000Y-63500000I0J-635000D01*
G01*
G37*
%TD.AperFunction*%
%TO.P,U1,15*%
%TO.N,ROW4*%
%TA.AperFunction,SMDPad,CuDef*%
G36*
G01*
X83820000Y-60960000D02*
X83820000Y-60960000D01*
G75*
G02*
X83185000Y-61595000I-635000J0D01*
G01*
X81915000Y-61595000D01*
G75*
G02*
X81280000Y-60960000I0J635000D01*
G01*
X81280000Y-60960000D01*
G75*
G02*
X81915000Y-60325000I635000J0D01*
G01*
X83185000Y-60325000D01*
G75*
G02*
X83820000Y-60960000I0J-635000D01*
G01*
G37*
%TD.AperFunction*%
%TO.P,U1,16*%
%TO.N,ROW3*%
%TA.AperFunction,SMDPad,CuDef*%
G36*
G01*
X83820000Y-58420000D02*
X83820000Y-58420000D01*
G75*
G02*
X83185000Y-59055000I-635000J0D01*
G01*
X81915000Y-59055000D01*
G75*
G02*
X81280000Y-58420000I0J635000D01*
G01*
X81280000Y-58420000D01*
G75*
G02*
X81915000Y-57785000I635000J0D01*
G01*
X83185000Y-57785000D01*
G75*
G02*
X83820000Y-58420000I0J-635000D01*
G01*
G37*
%TD.AperFunction*%
%TO.P,U1,17*%
%TO.N,ROW2*%
%TA.AperFunction,SMDPad,CuDef*%
G36*
G01*
X83820000Y-55880000D02*
X83820000Y-55880000D01*
G75*
G02*
X83185000Y-56515000I-635000J0D01*
G01*
X81915000Y-56515000D01*
G75*
G02*
X81280000Y-55880000I0J635000D01*
G01*
X81280000Y-55880000D01*
G75*
G02*
X81915000Y-55245000I635000J0D01*
G01*
X83185000Y-55245000D01*
G75*
G02*
X83820000Y-55880000I0J-635000D01*
G01*
G37*
%TD.AperFunction*%
%TO.P,U1,18*%
%TO.N,ROW1*%
%TA.AperFunction,SMDPad,CuDef*%
G36*
G01*
X83820000Y-53340000D02*
X83820000Y-53340000D01*
G75*
G02*
X83185000Y-53975000I-635000J0D01*
G01*
X81915000Y-53975000D01*
G75*
G02*
X81280000Y-53340000I0J635000D01*
G01*
X81280000Y-53340000D01*
G75*
G02*
X81915000Y-52705000I635000J0D01*
G01*
X83185000Y-52705000D01*
G75*
G02*
X83820000Y-53340000I0J-635000D01*
G01*
G37*
%TD.AperFunction*%
%TO.P,U1,19*%
%TO.N,ROW0*%
%TA.AperFunction,SMDPad,CuDef*%
G36*
G01*
X83820000Y-50800000D02*
X83820000Y-50800000D01*
G75*
G02*
X83185000Y-51435000I-635000J0D01*
G01*
X81915000Y-51435000D01*
G75*
G02*
X81280000Y-50800000I0J635000D01*
G01*
X81280000Y-50800000D01*
G75*
G02*
X81915000Y-50165000I635000J0D01*
G01*
X83185000Y-50165000D01*
G75*
G02*
X83820000Y-50800000I0J-635000D01*
G01*
G37*
%TD.AperFunction*%
%TO.P,U1,20*%
%TO.N,ROTB*%
%TA.AperFunction,SMDPad,CuDef*%
G36*
G01*
X83820000Y-48260000D02*
X83820000Y-48260000D01*
G75*
G02*
X83185000Y-48895000I-635000J0D01*
G01*
X81915000Y-48895000D01*
G75*
G02*
X81280000Y-48260000I0J635000D01*
G01*
X81280000Y-48260000D01*
G75*
G02*
X81915000Y-47625000I635000J0D01*
G01*
X83185000Y-47625000D01*
G75*
G02*
X83820000Y-48260000I0J-635000D01*
G01*
G37*
%TD.AperFunction*%
%TO.P,U1,24*%
%TO.N,Net-(U1-Pad24)*%
%TA.AperFunction,SMDPad,CuDef*%
G36*
G01*
X83820000Y-38100000D02*
X83820000Y-38100000D01*
G75*
G02*
X83185000Y-38735000I-635000J0D01*
G01*
X81915000Y-38735000D01*
G75*
G02*
X81280000Y-38100000I0J635000D01*
G01*
X81280000Y-38100000D01*
G75*
G02*
X81915000Y-37465000I635000J0D01*
G01*
X83185000Y-37465000D01*
G75*
G02*
X83820000Y-38100000I0J-635000D01*
G01*
G37*
%TD.AperFunction*%
%TO.P,U1,23*%
%TO.N,GND*%
%TA.AperFunction,SMDPad,CuDef*%
G36*
G01*
X83820000Y-40640000D02*
X83820000Y-40640000D01*
G75*
G02*
X83185000Y-41275000I-635000J0D01*
G01*
X81915000Y-41275000D01*
G75*
G02*
X81280000Y-40640000I0J635000D01*
G01*
X81280000Y-40640000D01*
G75*
G02*
X81915000Y-40005000I635000J0D01*
G01*
X83185000Y-40005000D01*
G75*
G02*
X83820000Y-40640000I0J-635000D01*
G01*
G37*
%TD.AperFunction*%
%TO.P,U1,22*%
%TO.N,Net-(U1-Pad22)*%
%TA.AperFunction,SMDPad,CuDef*%
G36*
G01*
X83820000Y-43180000D02*
X83820000Y-43180000D01*
G75*
G02*
X83185000Y-43815000I-635000J0D01*
G01*
X81915000Y-43815000D01*
G75*
G02*
X81280000Y-43180000I0J635000D01*
G01*
X81280000Y-43180000D01*
G75*
G02*
X81915000Y-42545000I635000J0D01*
G01*
X83185000Y-42545000D01*
G75*
G02*
X83820000Y-43180000I0J-635000D01*
G01*
G37*
%TD.AperFunction*%
%TO.P,U1,21*%
%TO.N,VCC*%
%TA.AperFunction,SMDPad,CuDef*%
G36*
G01*
X83820000Y-45720000D02*
X83820000Y-45720000D01*
G75*
G02*
X83185000Y-46355000I-635000J0D01*
G01*
X81915000Y-46355000D01*
G75*
G02*
X81280000Y-45720000I0J635000D01*
G01*
X81280000Y-45720000D01*
G75*
G02*
X81915000Y-45085000I635000J0D01*
G01*
X83185000Y-45085000D01*
G75*
G02*
X83820000Y-45720000I0J-635000D01*
G01*
G37*
%TD.AperFunction*%
%TD*%
D19*
%TO.P,D19,2*%
%TO.N,Net-(D19-Pad2)*%
X116681250Y-54547500D03*
%TO.P,D19,1*%
%TO.N,ROW0*%
X116681250Y-57847500D03*
%TD*%
D20*
%TO.P,D18,2*%
%TO.N,Net-(D18-Pad2)*%
X122300000Y-120650000D03*
%TO.P,D18,1*%
%TO.N,ROW4*%
X119000000Y-120650000D03*
%TD*%
%TO.P,D17,2*%
%TO.N,Net-(D17-Pad2)*%
X122300000Y-158750000D03*
%TO.P,D17,1*%
%TO.N,ROW2*%
X119000000Y-158750000D03*
%TD*%
D19*
%TO.P,D16,2*%
%TO.N,Net-(D16-Pad2)*%
X128587500Y-82487500D03*
%TO.P,D16,1*%
%TO.N,ROW1*%
X128587500Y-85787500D03*
%TD*%
%TO.P,D15,2*%
%TO.N,Net-(D15-Pad2)*%
X108712000Y-162180000D03*
%TO.P,D15,1*%
%TO.N,ROW5*%
X108712000Y-165480000D03*
%TD*%
%TO.P,D14,2*%
%TO.N,Net-(D14-Pad2)*%
X109220000Y-141098000D03*
%TO.P,D14,1*%
%TO.N,ROW4*%
X109220000Y-144398000D03*
%TD*%
%TO.P,D13,2*%
%TO.N,Net-(D13-Pad2)*%
X108458000Y-124206000D03*
%TO.P,D13,1*%
%TO.N,ROW3*%
X108458000Y-127506000D03*
%TD*%
%TO.P,D12,2*%
%TO.N,Net-(D12-Pad2)*%
X109220000Y-102998000D03*
%TO.P,D12,1*%
%TO.N,ROW2*%
X109220000Y-106298000D03*
%TD*%
%TO.P,D11,2*%
%TO.N,Net-(D11-Pad2)*%
X109537500Y-82487500D03*
%TO.P,D11,1*%
%TO.N,ROW1*%
X109537500Y-85787500D03*
%TD*%
%TO.P,D10,2*%
%TO.N,Net-(D10-Pad2)*%
X90487500Y-139637500D03*
%TO.P,D10,1*%
%TO.N,ROW4*%
X90487500Y-142937500D03*
%TD*%
%TO.P,D9,2*%
%TO.N,Net-(D9-Pad2)*%
X90487500Y-120587500D03*
%TO.P,D9,1*%
%TO.N,ROW3*%
X90487500Y-123887500D03*
%TD*%
%TO.P,D8,2*%
%TO.N,Net-(D8-Pad2)*%
X90487500Y-101537500D03*
%TO.P,D8,1*%
%TO.N,ROW2*%
X90487500Y-104837500D03*
%TD*%
%TO.P,D7,2*%
%TO.N,Net-(D7-Pad2)*%
X90487500Y-82487500D03*
%TO.P,D7,1*%
%TO.N,ROW1*%
X90487500Y-85787500D03*
%TD*%
%TO.P,D6,2*%
%TO.N,Net-(D6-Pad2)*%
X80962500Y-158687500D03*
%TO.P,D6,1*%
%TO.N,ROW5*%
X80962500Y-161987500D03*
%TD*%
%TO.P,D5,2*%
%TO.N,Net-(D5-Pad2)*%
X71437500Y-139637500D03*
%TO.P,D5,1*%
%TO.N,ROW4*%
X71437500Y-142937500D03*
%TD*%
%TO.P,D4,2*%
%TO.N,Net-(D4-Pad2)*%
X71437500Y-120587500D03*
%TO.P,D4,1*%
%TO.N,ROW3*%
X71437500Y-123887500D03*
%TD*%
%TO.P,D3,2*%
%TO.N,Net-(D3-Pad2)*%
X71437500Y-101537500D03*
%TO.P,D3,1*%
%TO.N,ROW2*%
X71437500Y-104837500D03*
%TD*%
%TO.P,D2,2*%
%TO.N,Net-(D2-Pad2)*%
X71437500Y-82487500D03*
%TO.P,D2,1*%
%TO.N,ROW1*%
X71437500Y-85787500D03*
%TD*%
%TO.P,D1,2*%
%TO.N,Net-(D1-Pad2)*%
X71437500Y-54547500D03*
%TO.P,D1,1*%
%TO.N,ROW0*%
X71437500Y-57847500D03*
%TD*%
%TO.P,C18,2*%
%TO.N,GND*%
%TA.AperFunction,SMDPad,CuDef*%
G36*
G01*
X116337500Y-144125000D02*
X116337500Y-143212500D01*
G75*
G02*
X116581250Y-142968750I243750J0D01*
G01*
X117068750Y-142968750D01*
G75*
G02*
X117312500Y-143212500I0J-243750D01*
G01*
X117312500Y-144125000D01*
G75*
G02*
X117068750Y-144368750I-243750J0D01*
G01*
X116581250Y-144368750D01*
G75*
G02*
X116337500Y-144125000I0J243750D01*
G01*
G37*
%TD.AperFunction*%
%TO.P,C18,1*%
%TO.N,VCC*%
%TA.AperFunction,SMDPad,CuDef*%
G36*
G01*
X114462500Y-144125000D02*
X114462500Y-143212500D01*
G75*
G02*
X114706250Y-142968750I243750J0D01*
G01*
X115193750Y-142968750D01*
G75*
G02*
X115437500Y-143212500I0J-243750D01*
G01*
X115437500Y-144125000D01*
G75*
G02*
X115193750Y-144368750I-243750J0D01*
G01*
X114706250Y-144368750D01*
G75*
G02*
X114462500Y-144125000I0J243750D01*
G01*
G37*
%TD.AperFunction*%
%TD*%
%TO.P,C17,2*%
%TO.N,GND*%
%TA.AperFunction,SMDPad,CuDef*%
G36*
G01*
X115437500Y-105112500D02*
X115437500Y-106025000D01*
G75*
G02*
X115193750Y-106268750I-243750J0D01*
G01*
X114706250Y-106268750D01*
G75*
G02*
X114462500Y-106025000I0J243750D01*
G01*
X114462500Y-105112500D01*
G75*
G02*
X114706250Y-104868750I243750J0D01*
G01*
X115193750Y-104868750D01*
G75*
G02*
X115437500Y-105112500I0J-243750D01*
G01*
G37*
%TD.AperFunction*%
%TO.P,C17,1*%
%TO.N,VCC*%
%TA.AperFunction,SMDPad,CuDef*%
G36*
G01*
X117312500Y-105112500D02*
X117312500Y-106025000D01*
G75*
G02*
X117068750Y-106268750I-243750J0D01*
G01*
X116581250Y-106268750D01*
G75*
G02*
X116337500Y-106025000I0J243750D01*
G01*
X116337500Y-105112500D01*
G75*
G02*
X116581250Y-104868750I243750J0D01*
G01*
X117068750Y-104868750D01*
G75*
G02*
X117312500Y-105112500I0J-243750D01*
G01*
G37*
%TD.AperFunction*%
%TD*%
%TO.P,C16,2*%
%TO.N,GND*%
%TA.AperFunction,SMDPad,CuDef*%
G36*
G01*
X113962500Y-88958000D02*
X113050000Y-88958000D01*
G75*
G02*
X112806250Y-88714250I0J243750D01*
G01*
X112806250Y-88226750D01*
G75*
G02*
X113050000Y-87983000I243750J0D01*
G01*
X113962500Y-87983000D01*
G75*
G02*
X114206250Y-88226750I0J-243750D01*
G01*
X114206250Y-88714250D01*
G75*
G02*
X113962500Y-88958000I-243750J0D01*
G01*
G37*
%TD.AperFunction*%
%TO.P,C16,1*%
%TO.N,VCC*%
%TA.AperFunction,SMDPad,CuDef*%
G36*
G01*
X113962500Y-90833000D02*
X113050000Y-90833000D01*
G75*
G02*
X112806250Y-90589250I0J243750D01*
G01*
X112806250Y-90101750D01*
G75*
G02*
X113050000Y-89858000I243750J0D01*
G01*
X113962500Y-89858000D01*
G75*
G02*
X114206250Y-90101750I0J-243750D01*
G01*
X114206250Y-90589250D01*
G75*
G02*
X113962500Y-90833000I-243750J0D01*
G01*
G37*
%TD.AperFunction*%
%TD*%
%TO.P,C15,2*%
%TO.N,GND*%
%TA.AperFunction,SMDPad,CuDef*%
G36*
G01*
X94912500Y-165158000D02*
X94000000Y-165158000D01*
G75*
G02*
X93756250Y-164914250I0J243750D01*
G01*
X93756250Y-164426750D01*
G75*
G02*
X94000000Y-164183000I243750J0D01*
G01*
X94912500Y-164183000D01*
G75*
G02*
X95156250Y-164426750I0J-243750D01*
G01*
X95156250Y-164914250D01*
G75*
G02*
X94912500Y-165158000I-243750J0D01*
G01*
G37*
%TD.AperFunction*%
%TO.P,C15,1*%
%TO.N,VCC*%
%TA.AperFunction,SMDPad,CuDef*%
G36*
G01*
X94912500Y-167033000D02*
X94000000Y-167033000D01*
G75*
G02*
X93756250Y-166789250I0J243750D01*
G01*
X93756250Y-166301750D01*
G75*
G02*
X94000000Y-166058000I243750J0D01*
G01*
X94912500Y-166058000D01*
G75*
G02*
X95156250Y-166301750I0J-243750D01*
G01*
X95156250Y-166789250D01*
G75*
G02*
X94912500Y-167033000I-243750J0D01*
G01*
G37*
%TD.AperFunction*%
%TD*%
%TO.P,C14,2*%
%TO.N,GND*%
%TA.AperFunction,SMDPad,CuDef*%
G36*
G01*
X94912500Y-146108000D02*
X94000000Y-146108000D01*
G75*
G02*
X93756250Y-145864250I0J243750D01*
G01*
X93756250Y-145376750D01*
G75*
G02*
X94000000Y-145133000I243750J0D01*
G01*
X94912500Y-145133000D01*
G75*
G02*
X95156250Y-145376750I0J-243750D01*
G01*
X95156250Y-145864250D01*
G75*
G02*
X94912500Y-146108000I-243750J0D01*
G01*
G37*
%TD.AperFunction*%
%TO.P,C14,1*%
%TO.N,VCC*%
%TA.AperFunction,SMDPad,CuDef*%
G36*
G01*
X94912500Y-147983000D02*
X94000000Y-147983000D01*
G75*
G02*
X93756250Y-147739250I0J243750D01*
G01*
X93756250Y-147251750D01*
G75*
G02*
X94000000Y-147008000I243750J0D01*
G01*
X94912500Y-147008000D01*
G75*
G02*
X95156250Y-147251750I0J-243750D01*
G01*
X95156250Y-147739250D01*
G75*
G02*
X94912500Y-147983000I-243750J0D01*
G01*
G37*
%TD.AperFunction*%
%TD*%
%TO.P,C13,2*%
%TO.N,GND*%
%TA.AperFunction,SMDPad,CuDef*%
G36*
G01*
X94912500Y-127058000D02*
X94000000Y-127058000D01*
G75*
G02*
X93756250Y-126814250I0J243750D01*
G01*
X93756250Y-126326750D01*
G75*
G02*
X94000000Y-126083000I243750J0D01*
G01*
X94912500Y-126083000D01*
G75*
G02*
X95156250Y-126326750I0J-243750D01*
G01*
X95156250Y-126814250D01*
G75*
G02*
X94912500Y-127058000I-243750J0D01*
G01*
G37*
%TD.AperFunction*%
%TO.P,C13,1*%
%TO.N,VCC*%
%TA.AperFunction,SMDPad,CuDef*%
G36*
G01*
X94912500Y-128933000D02*
X94000000Y-128933000D01*
G75*
G02*
X93756250Y-128689250I0J243750D01*
G01*
X93756250Y-128201750D01*
G75*
G02*
X94000000Y-127958000I243750J0D01*
G01*
X94912500Y-127958000D01*
G75*
G02*
X95156250Y-128201750I0J-243750D01*
G01*
X95156250Y-128689250D01*
G75*
G02*
X94912500Y-128933000I-243750J0D01*
G01*
G37*
%TD.AperFunction*%
%TD*%
%TO.P,C12,2*%
%TO.N,GND*%
%TA.AperFunction,SMDPad,CuDef*%
G36*
G01*
X94912500Y-108008000D02*
X94000000Y-108008000D01*
G75*
G02*
X93756250Y-107764250I0J243750D01*
G01*
X93756250Y-107276750D01*
G75*
G02*
X94000000Y-107033000I243750J0D01*
G01*
X94912500Y-107033000D01*
G75*
G02*
X95156250Y-107276750I0J-243750D01*
G01*
X95156250Y-107764250D01*
G75*
G02*
X94912500Y-108008000I-243750J0D01*
G01*
G37*
%TD.AperFunction*%
%TO.P,C12,1*%
%TO.N,VCC*%
%TA.AperFunction,SMDPad,CuDef*%
G36*
G01*
X94912500Y-109883000D02*
X94000000Y-109883000D01*
G75*
G02*
X93756250Y-109639250I0J243750D01*
G01*
X93756250Y-109151750D01*
G75*
G02*
X94000000Y-108908000I243750J0D01*
G01*
X94912500Y-108908000D01*
G75*
G02*
X95156250Y-109151750I0J-243750D01*
G01*
X95156250Y-109639250D01*
G75*
G02*
X94912500Y-109883000I-243750J0D01*
G01*
G37*
%TD.AperFunction*%
%TD*%
%TO.P,C11,2*%
%TO.N,GND*%
%TA.AperFunction,SMDPad,CuDef*%
G36*
G01*
X94912500Y-88958000D02*
X94000000Y-88958000D01*
G75*
G02*
X93756250Y-88714250I0J243750D01*
G01*
X93756250Y-88226750D01*
G75*
G02*
X94000000Y-87983000I243750J0D01*
G01*
X94912500Y-87983000D01*
G75*
G02*
X95156250Y-88226750I0J-243750D01*
G01*
X95156250Y-88714250D01*
G75*
G02*
X94912500Y-88958000I-243750J0D01*
G01*
G37*
%TD.AperFunction*%
%TO.P,C11,1*%
%TO.N,VCC*%
%TA.AperFunction,SMDPad,CuDef*%
G36*
G01*
X94912500Y-90833000D02*
X94000000Y-90833000D01*
G75*
G02*
X93756250Y-90589250I0J243750D01*
G01*
X93756250Y-90101750D01*
G75*
G02*
X94000000Y-89858000I243750J0D01*
G01*
X94912500Y-89858000D01*
G75*
G02*
X95156250Y-90101750I0J-243750D01*
G01*
X95156250Y-90589250D01*
G75*
G02*
X94912500Y-90833000I-243750J0D01*
G01*
G37*
%TD.AperFunction*%
%TD*%
%TO.P,C10,2*%
%TO.N,GND*%
%TA.AperFunction,SMDPad,CuDef*%
G36*
G01*
X75862500Y-146108000D02*
X74950000Y-146108000D01*
G75*
G02*
X74706250Y-145864250I0J243750D01*
G01*
X74706250Y-145376750D01*
G75*
G02*
X74950000Y-145133000I243750J0D01*
G01*
X75862500Y-145133000D01*
G75*
G02*
X76106250Y-145376750I0J-243750D01*
G01*
X76106250Y-145864250D01*
G75*
G02*
X75862500Y-146108000I-243750J0D01*
G01*
G37*
%TD.AperFunction*%
%TO.P,C10,1*%
%TO.N,VCC*%
%TA.AperFunction,SMDPad,CuDef*%
G36*
G01*
X75862500Y-147983000D02*
X74950000Y-147983000D01*
G75*
G02*
X74706250Y-147739250I0J243750D01*
G01*
X74706250Y-147251750D01*
G75*
G02*
X74950000Y-147008000I243750J0D01*
G01*
X75862500Y-147008000D01*
G75*
G02*
X76106250Y-147251750I0J-243750D01*
G01*
X76106250Y-147739250D01*
G75*
G02*
X75862500Y-147983000I-243750J0D01*
G01*
G37*
%TD.AperFunction*%
%TD*%
%TO.P,C9,2*%
%TO.N,GND*%
%TA.AperFunction,SMDPad,CuDef*%
G36*
G01*
X75862500Y-127058000D02*
X74950000Y-127058000D01*
G75*
G02*
X74706250Y-126814250I0J243750D01*
G01*
X74706250Y-126326750D01*
G75*
G02*
X74950000Y-126083000I243750J0D01*
G01*
X75862500Y-126083000D01*
G75*
G02*
X76106250Y-126326750I0J-243750D01*
G01*
X76106250Y-126814250D01*
G75*
G02*
X75862500Y-127058000I-243750J0D01*
G01*
G37*
%TD.AperFunction*%
%TO.P,C9,1*%
%TO.N,VCC*%
%TA.AperFunction,SMDPad,CuDef*%
G36*
G01*
X75862500Y-128933000D02*
X74950000Y-128933000D01*
G75*
G02*
X74706250Y-128689250I0J243750D01*
G01*
X74706250Y-128201750D01*
G75*
G02*
X74950000Y-127958000I243750J0D01*
G01*
X75862500Y-127958000D01*
G75*
G02*
X76106250Y-128201750I0J-243750D01*
G01*
X76106250Y-128689250D01*
G75*
G02*
X75862500Y-128933000I-243750J0D01*
G01*
G37*
%TD.AperFunction*%
%TD*%
%TO.P,C8,2*%
%TO.N,GND*%
%TA.AperFunction,SMDPad,CuDef*%
G36*
G01*
X75862500Y-108008000D02*
X74950000Y-108008000D01*
G75*
G02*
X74706250Y-107764250I0J243750D01*
G01*
X74706250Y-107276750D01*
G75*
G02*
X74950000Y-107033000I243750J0D01*
G01*
X75862500Y-107033000D01*
G75*
G02*
X76106250Y-107276750I0J-243750D01*
G01*
X76106250Y-107764250D01*
G75*
G02*
X75862500Y-108008000I-243750J0D01*
G01*
G37*
%TD.AperFunction*%
%TO.P,C8,1*%
%TO.N,VCC*%
%TA.AperFunction,SMDPad,CuDef*%
G36*
G01*
X75862500Y-109883000D02*
X74950000Y-109883000D01*
G75*
G02*
X74706250Y-109639250I0J243750D01*
G01*
X74706250Y-109151750D01*
G75*
G02*
X74950000Y-108908000I243750J0D01*
G01*
X75862500Y-108908000D01*
G75*
G02*
X76106250Y-109151750I0J-243750D01*
G01*
X76106250Y-109639250D01*
G75*
G02*
X75862500Y-109883000I-243750J0D01*
G01*
G37*
%TD.AperFunction*%
%TD*%
%TO.P,C7,1*%
%TO.N,VCC*%
%TA.AperFunction,SMDPad,CuDef*%
G36*
G01*
X75862500Y-90833000D02*
X74950000Y-90833000D01*
G75*
G02*
X74706250Y-90589250I0J243750D01*
G01*
X74706250Y-90101750D01*
G75*
G02*
X74950000Y-89858000I243750J0D01*
G01*
X75862500Y-89858000D01*
G75*
G02*
X76106250Y-90101750I0J-243750D01*
G01*
X76106250Y-90589250D01*
G75*
G02*
X75862500Y-90833000I-243750J0D01*
G01*
G37*
%TD.AperFunction*%
%TO.P,C7,2*%
%TO.N,GND*%
%TA.AperFunction,SMDPad,CuDef*%
G36*
G01*
X75862500Y-88958000D02*
X74950000Y-88958000D01*
G75*
G02*
X74706250Y-88714250I0J243750D01*
G01*
X74706250Y-88226750D01*
G75*
G02*
X74950000Y-87983000I243750J0D01*
G01*
X75862500Y-87983000D01*
G75*
G02*
X76106250Y-88226750I0J-243750D01*
G01*
X76106250Y-88714250D01*
G75*
G02*
X75862500Y-88958000I-243750J0D01*
G01*
G37*
%TD.AperFunction*%
%TD*%
%TO.P,C6,2*%
%TO.N,GND*%
%TA.AperFunction,SMDPad,CuDef*%
G36*
G01*
X66337500Y-164904000D02*
X65425000Y-164904000D01*
G75*
G02*
X65181250Y-164660250I0J243750D01*
G01*
X65181250Y-164172750D01*
G75*
G02*
X65425000Y-163929000I243750J0D01*
G01*
X66337500Y-163929000D01*
G75*
G02*
X66581250Y-164172750I0J-243750D01*
G01*
X66581250Y-164660250D01*
G75*
G02*
X66337500Y-164904000I-243750J0D01*
G01*
G37*
%TD.AperFunction*%
%TO.P,C6,1*%
%TO.N,VCC*%
%TA.AperFunction,SMDPad,CuDef*%
G36*
G01*
X66337500Y-166779000D02*
X65425000Y-166779000D01*
G75*
G02*
X65181250Y-166535250I0J243750D01*
G01*
X65181250Y-166047750D01*
G75*
G02*
X65425000Y-165804000I243750J0D01*
G01*
X66337500Y-165804000D01*
G75*
G02*
X66581250Y-166047750I0J-243750D01*
G01*
X66581250Y-166535250D01*
G75*
G02*
X66337500Y-166779000I-243750J0D01*
G01*
G37*
%TD.AperFunction*%
%TD*%
%TO.P,C5,2*%
%TO.N,GND*%
%TA.AperFunction,SMDPad,CuDef*%
G36*
G01*
X56812500Y-146108000D02*
X55900000Y-146108000D01*
G75*
G02*
X55656250Y-145864250I0J243750D01*
G01*
X55656250Y-145376750D01*
G75*
G02*
X55900000Y-145133000I243750J0D01*
G01*
X56812500Y-145133000D01*
G75*
G02*
X57056250Y-145376750I0J-243750D01*
G01*
X57056250Y-145864250D01*
G75*
G02*
X56812500Y-146108000I-243750J0D01*
G01*
G37*
%TD.AperFunction*%
%TO.P,C5,1*%
%TO.N,VCC*%
%TA.AperFunction,SMDPad,CuDef*%
G36*
G01*
X56812500Y-147983000D02*
X55900000Y-147983000D01*
G75*
G02*
X55656250Y-147739250I0J243750D01*
G01*
X55656250Y-147251750D01*
G75*
G02*
X55900000Y-147008000I243750J0D01*
G01*
X56812500Y-147008000D01*
G75*
G02*
X57056250Y-147251750I0J-243750D01*
G01*
X57056250Y-147739250D01*
G75*
G02*
X56812500Y-147983000I-243750J0D01*
G01*
G37*
%TD.AperFunction*%
%TD*%
%TO.P,C4,2*%
%TO.N,GND*%
%TA.AperFunction,SMDPad,CuDef*%
G36*
G01*
X56812500Y-127058000D02*
X55900000Y-127058000D01*
G75*
G02*
X55656250Y-126814250I0J243750D01*
G01*
X55656250Y-126326750D01*
G75*
G02*
X55900000Y-126083000I243750J0D01*
G01*
X56812500Y-126083000D01*
G75*
G02*
X57056250Y-126326750I0J-243750D01*
G01*
X57056250Y-126814250D01*
G75*
G02*
X56812500Y-127058000I-243750J0D01*
G01*
G37*
%TD.AperFunction*%
%TO.P,C4,1*%
%TO.N,VCC*%
%TA.AperFunction,SMDPad,CuDef*%
G36*
G01*
X56812500Y-128933000D02*
X55900000Y-128933000D01*
G75*
G02*
X55656250Y-128689250I0J243750D01*
G01*
X55656250Y-128201750D01*
G75*
G02*
X55900000Y-127958000I243750J0D01*
G01*
X56812500Y-127958000D01*
G75*
G02*
X57056250Y-128201750I0J-243750D01*
G01*
X57056250Y-128689250D01*
G75*
G02*
X56812500Y-128933000I-243750J0D01*
G01*
G37*
%TD.AperFunction*%
%TD*%
%TO.P,C3,2*%
%TO.N,GND*%
%TA.AperFunction,SMDPad,CuDef*%
G36*
G01*
X57606250Y-108008000D02*
X56693750Y-108008000D01*
G75*
G02*
X56450000Y-107764250I0J243750D01*
G01*
X56450000Y-107276750D01*
G75*
G02*
X56693750Y-107033000I243750J0D01*
G01*
X57606250Y-107033000D01*
G75*
G02*
X57850000Y-107276750I0J-243750D01*
G01*
X57850000Y-107764250D01*
G75*
G02*
X57606250Y-108008000I-243750J0D01*
G01*
G37*
%TD.AperFunction*%
%TO.P,C3,1*%
%TO.N,VCC*%
%TA.AperFunction,SMDPad,CuDef*%
G36*
G01*
X57606250Y-109883000D02*
X56693750Y-109883000D01*
G75*
G02*
X56450000Y-109639250I0J243750D01*
G01*
X56450000Y-109151750D01*
G75*
G02*
X56693750Y-108908000I243750J0D01*
G01*
X57606250Y-108908000D01*
G75*
G02*
X57850000Y-109151750I0J-243750D01*
G01*
X57850000Y-109639250D01*
G75*
G02*
X57606250Y-109883000I-243750J0D01*
G01*
G37*
%TD.AperFunction*%
%TD*%
%TO.P,C2,2*%
%TO.N,GND*%
%TA.AperFunction,SMDPad,CuDef*%
G36*
G01*
X56812500Y-88958000D02*
X55900000Y-88958000D01*
G75*
G02*
X55656250Y-88714250I0J243750D01*
G01*
X55656250Y-88226750D01*
G75*
G02*
X55900000Y-87983000I243750J0D01*
G01*
X56812500Y-87983000D01*
G75*
G02*
X57056250Y-88226750I0J-243750D01*
G01*
X57056250Y-88714250D01*
G75*
G02*
X56812500Y-88958000I-243750J0D01*
G01*
G37*
%TD.AperFunction*%
%TO.P,C2,1*%
%TO.N,VCC*%
%TA.AperFunction,SMDPad,CuDef*%
G36*
G01*
X56812500Y-90833000D02*
X55900000Y-90833000D01*
G75*
G02*
X55656250Y-90589250I0J243750D01*
G01*
X55656250Y-90101750D01*
G75*
G02*
X55900000Y-89858000I243750J0D01*
G01*
X56812500Y-89858000D01*
G75*
G02*
X57056250Y-90101750I0J-243750D01*
G01*
X57056250Y-90589250D01*
G75*
G02*
X56812500Y-90833000I-243750J0D01*
G01*
G37*
%TD.AperFunction*%
%TD*%
%TO.P,C1,1*%
%TO.N,VCC*%
%TA.AperFunction,SMDPad,CuDef*%
G36*
G01*
X56693750Y-60043000D02*
X57606250Y-60043000D01*
G75*
G02*
X57850000Y-60286750I0J-243750D01*
G01*
X57850000Y-60774250D01*
G75*
G02*
X57606250Y-61018000I-243750J0D01*
G01*
X56693750Y-61018000D01*
G75*
G02*
X56450000Y-60774250I0J243750D01*
G01*
X56450000Y-60286750D01*
G75*
G02*
X56693750Y-60043000I243750J0D01*
G01*
G37*
%TD.AperFunction*%
%TO.P,C1,2*%
%TO.N,GND*%
%TA.AperFunction,SMDPad,CuDef*%
G36*
G01*
X56693750Y-61918000D02*
X57606250Y-61918000D01*
G75*
G02*
X57850000Y-62161750I0J-243750D01*
G01*
X57850000Y-62649250D01*
G75*
G02*
X57606250Y-62893000I-243750J0D01*
G01*
X56693750Y-62893000D01*
G75*
G02*
X56450000Y-62649250I0J243750D01*
G01*
X56450000Y-62161750D01*
G75*
G02*
X56693750Y-61918000I243750J0D01*
G01*
G37*
%TD.AperFunction*%
%TD*%
D21*
%TO.N,VCC*%
X54102000Y-45720000D03*
X54102000Y-60452000D03*
X54102000Y-90424000D03*
X54102000Y-109474000D03*
X54102000Y-128524000D03*
X54102000Y-147574000D03*
X54102000Y-165354000D03*
%TO.N,ROW1*%
X75692000Y-53340000D03*
X63500000Y-76200000D03*
X129540000Y-76200000D03*
X129540000Y-87630000D03*
%TO.N,ROW2*%
X76708000Y-55880000D03*
X64262000Y-75438000D03*
X130302000Y-75438000D03*
X112268000Y-106426000D03*
%TO.N,ROW3*%
X77724000Y-58420000D03*
X65024000Y-74676000D03*
X131064000Y-74676000D03*
X131064000Y-127508000D03*
%TO.N,ROW4*%
X78740000Y-60960000D03*
X65786000Y-73914000D03*
X131826000Y-73914000D03*
X131826000Y-120650000D03*
X119380000Y-126492000D03*
X119380000Y-141478000D03*
%TO.N,ROW5*%
X79502000Y-63500000D03*
X66548000Y-73152000D03*
X132588000Y-73152000D03*
X132588000Y-165354000D03*
%TO.N,COL0*%
X52832000Y-45720000D03*
X52832000Y-53848000D03*
X52832000Y-81534000D03*
X52832000Y-100584000D03*
X52832000Y-119634000D03*
X52832000Y-138684000D03*
X52832000Y-157734000D03*
X103124000Y-57658000D03*
X103124000Y-35560000D03*
%TO.N,Net-(SW1-Pad2)*%
X60960000Y-63754000D03*
X71120000Y-88138000D03*
%TO.N,LED*%
X73152000Y-36322000D03*
X73152000Y-60452000D03*
%TO.N,Net-(SW2-Pad2)*%
X60960000Y-91440000D03*
X87122000Y-91440000D03*
%TO.N,Net-(SW3-Pad2)*%
X60960000Y-110490000D03*
X87376000Y-110490000D03*
%TO.N,Net-(SW16-Pad2)*%
X118110000Y-92456000D03*
X70866000Y-107442000D03*
%TO.N,Net-(SW4-Pad2)*%
X60960000Y-130556000D03*
X87376000Y-130556000D03*
%TO.N,Net-(SW10-Pad4)*%
X60960000Y-148590000D03*
X87630000Y-148590000D03*
%TO.N,Net-(SW13-Pad2)*%
X99060000Y-130556000D03*
X70866000Y-145542000D03*
%TO.N,COL1*%
X106172000Y-61722000D03*
X72390000Y-89916000D03*
X72390000Y-95504000D03*
X72390000Y-108966000D03*
X72390000Y-115316000D03*
X72390000Y-118872000D03*
X72390000Y-99822000D03*
X72390000Y-129032000D03*
X72390000Y-133096000D03*
X72390000Y-137922000D03*
X72390000Y-80772000D03*
%TO.N,Net-(SW11-Pad4)*%
X80010000Y-92456000D03*
X106426000Y-92456000D03*
%TO.N,Net-(SW12-Pad4)*%
X80010000Y-111506000D03*
X106172000Y-111506000D03*
%TO.N,Net-(SW13-Pad4)*%
X80010000Y-129540000D03*
X106680000Y-129540000D03*
%TO.N,Net-(SW10-Pad2)*%
X80010000Y-149606000D03*
X106680000Y-149606000D03*
%TO.N,COL2*%
X105156000Y-60198000D03*
X91440000Y-80772000D03*
X91440000Y-90170000D03*
X91440000Y-95504000D03*
X91440000Y-99822000D03*
X91440000Y-108966000D03*
X91440000Y-114808000D03*
X91440000Y-118872000D03*
X91440000Y-128016000D03*
X91440000Y-133858000D03*
X91440000Y-137922000D03*
X91440000Y-148590000D03*
%TO.N,Net-(SW11-Pad2)*%
X99060000Y-91440000D03*
X125476000Y-91440000D03*
%TO.N,COL3*%
X104140000Y-58928000D03*
X110490000Y-80772000D03*
X110490000Y-89662000D03*
X110490000Y-96012000D03*
X110490000Y-118872000D03*
X110490000Y-114554000D03*
X118364000Y-96012000D03*
X115316000Y-134366000D03*
%TO.N,Net-(D20-Pad4)*%
X79756000Y-164338000D03*
X113030000Y-115824000D03*
%TO.N,Net-(D21-Pad2)*%
X70866000Y-126492000D03*
X113792000Y-146050000D03*
%TO.N,Net-(D21-Pad4)*%
X99060000Y-112776000D03*
X118110000Y-153416000D03*
%TO.N,Net-(D22-Pad4)*%
X99060000Y-148590000D03*
X116840000Y-125857000D03*
%TD*%
D22*
%TO.N,GND*%
X66052000Y-164350000D02*
X66040000Y-164338000D01*
%TO.N,VCC*%
X54102000Y-60452000D02*
X56896000Y-60452000D01*
X57150000Y-60530500D02*
X60784500Y-60530500D01*
X54102000Y-90424000D02*
X56388000Y-90424000D01*
X56356250Y-90345500D02*
X58244500Y-90345500D01*
X58244500Y-90345500D02*
X58420000Y-90170000D01*
X58420000Y-88392000D02*
X60960000Y-88392000D01*
X58420000Y-90170000D02*
X58420000Y-88392000D01*
X77470000Y-88392000D02*
X79756000Y-88392000D01*
X73406000Y-87122000D02*
X58420000Y-87122000D01*
X58420000Y-87122000D02*
X58420000Y-88392000D01*
X73406000Y-90424000D02*
X73406000Y-87122000D01*
X77470000Y-90424000D02*
X73406000Y-90424000D01*
X77470000Y-88392000D02*
X77470000Y-90424000D01*
X77470000Y-87122000D02*
X84836000Y-87122000D01*
X77470000Y-88392000D02*
X77470000Y-87122000D01*
X84836000Y-87122000D02*
X92964000Y-87122000D01*
X92964000Y-87122000D02*
X92964000Y-90424000D01*
X92964000Y-90424000D02*
X96012000Y-90424000D01*
X96012000Y-87122000D02*
X112014000Y-87122000D01*
X112014000Y-87122000D02*
X112014000Y-90170000D01*
X112014000Y-90170000D02*
X115062000Y-90170000D01*
X115062000Y-90170000D02*
X115062000Y-88392000D01*
X115062000Y-88392000D02*
X117856000Y-88392000D01*
X96012000Y-88392000D02*
X99060000Y-88392000D01*
X96012000Y-90424000D02*
X96012000Y-88392000D01*
X96012000Y-88392000D02*
X96012000Y-87122000D01*
X54102000Y-109474000D02*
X58928000Y-109474000D01*
X58928000Y-109474000D02*
X58928000Y-108906598D01*
X58928000Y-106172000D02*
X73914000Y-106172000D01*
X73914000Y-106172000D02*
X73914000Y-109474000D01*
X73914000Y-109474000D02*
X76962000Y-109474000D01*
X76962000Y-106172000D02*
X84582000Y-106172000D01*
X84582000Y-106172000D02*
X92964000Y-106172000D01*
X92964000Y-106172000D02*
X92964000Y-109474000D01*
X92964000Y-109474000D02*
X96012000Y-109474000D01*
X96012000Y-109474000D02*
X96012000Y-107442000D01*
X96012000Y-107442000D02*
X98806000Y-107442000D01*
X76962000Y-107442000D02*
X79756000Y-107442000D01*
X76962000Y-109474000D02*
X76962000Y-107442000D01*
X76962000Y-107442000D02*
X76962000Y-106172000D01*
X58928000Y-107442000D02*
X60452000Y-107442000D01*
X58928000Y-108906598D02*
X58928000Y-107442000D01*
X58928000Y-107442000D02*
X58928000Y-106172000D01*
X57912000Y-125222000D02*
X73914000Y-125222000D01*
X92964000Y-128524000D02*
X96012000Y-128524000D01*
X92964000Y-125222000D02*
X92964000Y-128524000D01*
X76962000Y-125222000D02*
X92964000Y-125222000D01*
X73914000Y-128524000D02*
X76962000Y-128524000D01*
X73914000Y-125222000D02*
X73914000Y-128524000D01*
X54102000Y-128524000D02*
X57912000Y-128524000D01*
X60900000Y-126537500D02*
X57957500Y-126537500D01*
X57957500Y-126537500D02*
X57912000Y-126492000D01*
X57912000Y-126492000D02*
X57912000Y-125222000D01*
X57912000Y-128524000D02*
X57912000Y-126492000D01*
X77007500Y-126537500D02*
X76962000Y-126492000D01*
X76962000Y-126492000D02*
X76962000Y-125222000D01*
X79950000Y-126537500D02*
X77007500Y-126537500D01*
X76962000Y-128524000D02*
X76962000Y-126492000D01*
X99000000Y-126537500D02*
X96057500Y-126537500D01*
X96057500Y-126537500D02*
X96012000Y-126492000D01*
X96012000Y-128524000D02*
X96012000Y-126492000D01*
X54102000Y-147574000D02*
X57912000Y-147574000D01*
X57912000Y-144272000D02*
X64770000Y-144272000D01*
X64770000Y-144272000D02*
X73914000Y-144272000D01*
X73914000Y-144272000D02*
X73914000Y-147320000D01*
X73914000Y-147320000D02*
X73914000Y-147574000D01*
X73914000Y-147574000D02*
X76962000Y-147574000D01*
X76962000Y-144272000D02*
X92964000Y-144272000D01*
X92964000Y-144272000D02*
X92964000Y-147574000D01*
X92964000Y-147574000D02*
X96012000Y-147574000D01*
X96012000Y-147574000D02*
X96012000Y-145542000D01*
X96012000Y-145542000D02*
X98552000Y-145542000D01*
X57957500Y-145587500D02*
X57912000Y-145542000D01*
X60900000Y-145587500D02*
X57957500Y-145587500D01*
X57912000Y-145542000D02*
X57912000Y-144272000D01*
X57912000Y-147574000D02*
X57912000Y-145542000D01*
X77007500Y-145587500D02*
X76962000Y-145542000D01*
X79950000Y-145587500D02*
X77007500Y-145587500D01*
X76962000Y-145542000D02*
X76962000Y-144272000D01*
X76962000Y-147574000D02*
X76962000Y-145542000D01*
X62992000Y-165354000D02*
X64008000Y-166370000D01*
X92964000Y-166624000D02*
X96012000Y-166624000D01*
X92964000Y-163068000D02*
X92964000Y-166624000D01*
X64008000Y-166370000D02*
X67564000Y-166370000D01*
X67564000Y-163068000D02*
X92964000Y-163068000D01*
X54102000Y-165354000D02*
X62992000Y-165354000D01*
X67576000Y-164350000D02*
X67564000Y-164338000D01*
X70425000Y-164350000D02*
X67576000Y-164350000D01*
X67564000Y-164338000D02*
X67564000Y-163068000D01*
X67564000Y-166370000D02*
X67564000Y-164338000D01*
X99000000Y-164637500D02*
X96057500Y-164637500D01*
X96057500Y-164637500D02*
X96012000Y-164592000D01*
X96012000Y-166624000D02*
X96012000Y-164592000D01*
X115062000Y-90170000D02*
X115062000Y-98044000D01*
X116825000Y-99807000D02*
X116825000Y-105568750D01*
X115062000Y-98044000D02*
X116825000Y-99807000D01*
X116825000Y-109925000D02*
X116637500Y-110112500D01*
X116825000Y-105568750D02*
X116825000Y-109925000D01*
X116637500Y-146355500D02*
X116637500Y-148212500D01*
X114950000Y-144668000D02*
X116637500Y-146355500D01*
X114950000Y-143668750D02*
X114950000Y-144668000D01*
X113379250Y-143668750D02*
X114950000Y-143668750D01*
X99889635Y-144697865D02*
X106851865Y-144697865D01*
X99000000Y-145587500D02*
X99889635Y-144697865D01*
X106851865Y-144697865D02*
X107950000Y-145796000D01*
X107950000Y-145796000D02*
X111252000Y-145796000D01*
X111252000Y-145796000D02*
X113379250Y-143668750D01*
X85090000Y-69215000D02*
X85725000Y-69850000D01*
X74676000Y-67818000D02*
X85090000Y-67818000D01*
X54102000Y-45720000D02*
X74676000Y-45720000D01*
X85090000Y-67818000D02*
X85090000Y-69215000D01*
X74676000Y-45720000D02*
X74676000Y-67818000D01*
D23*
%TO.N,Net-(D1-Pad2)*%
X69515000Y-52625000D02*
X71437500Y-54547500D01*
X69515000Y-51117500D02*
X69515000Y-52625000D01*
%TO.N,Net-(D2-Pad2)*%
X69515000Y-80565000D02*
X71437500Y-82487500D01*
X69515000Y-79057500D02*
X69515000Y-80565000D01*
%TO.N,ROW1*%
X82550000Y-53340000D02*
X75692000Y-53340000D01*
X63500000Y-76200000D02*
X129540000Y-76200000D01*
X129540000Y-86740000D02*
X128587500Y-85787500D01*
X129540000Y-87630000D02*
X129540000Y-86740000D01*
X121766961Y-86464501D02*
X119230501Y-86464501D01*
X128587500Y-85787500D02*
X122443962Y-85787500D01*
X122443962Y-85787500D02*
X121766961Y-86464501D01*
X118553500Y-85787500D02*
X109537500Y-85787500D01*
X119230501Y-86464501D02*
X118553500Y-85787500D01*
X109537500Y-85787500D02*
X103393962Y-85787500D01*
X102716961Y-86464501D02*
X100180501Y-86464501D01*
X103393962Y-85787500D02*
X102716961Y-86464501D01*
X99503500Y-85787500D02*
X90487500Y-85787500D01*
X100180501Y-86464501D02*
X99503500Y-85787500D01*
X83666961Y-86464501D02*
X81130501Y-86464501D01*
X90487500Y-85787500D02*
X84343962Y-85787500D01*
X84343962Y-85787500D02*
X83666961Y-86464501D01*
X80453500Y-85787500D02*
X71437500Y-85787500D01*
X81130501Y-86464501D02*
X80453500Y-85787500D01*
%TO.N,Net-(D3-Pad2)*%
X69515000Y-99615000D02*
X71437500Y-101537500D01*
X69515000Y-98107500D02*
X69515000Y-99615000D01*
%TO.N,ROW2*%
X82550000Y-55880000D02*
X76708000Y-55880000D01*
X64262000Y-75438000D02*
X130302000Y-75438000D01*
X109348000Y-106426000D02*
X109220000Y-106298000D01*
X112268000Y-106426000D02*
X109348000Y-106426000D01*
X108576490Y-105654490D02*
X100320490Y-105654490D01*
X109220000Y-106298000D02*
X108576490Y-105654490D01*
X99503500Y-104837500D02*
X90487500Y-104837500D01*
X100320490Y-105654490D02*
X99503500Y-104837500D01*
X83666961Y-105514501D02*
X81384501Y-105514501D01*
X90487500Y-104837500D02*
X84343962Y-104837500D01*
X84343962Y-104837500D02*
X83666961Y-105514501D01*
X80707500Y-104837500D02*
X71437500Y-104837500D01*
X81384501Y-105514501D02*
X80707500Y-104837500D01*
%TO.N,Net-(D4-Pad2)*%
X69515000Y-118665000D02*
X71437500Y-120587500D01*
X69515000Y-117157500D02*
X69515000Y-118665000D01*
%TO.N,ROW3*%
X82550000Y-58420000D02*
X77724000Y-58420000D01*
X65024000Y-74676000D02*
X131064000Y-74676000D01*
X108460000Y-127508000D02*
X108458000Y-127506000D01*
X131064000Y-127508000D02*
X108460000Y-127508000D01*
X105516501Y-124564501D02*
X100180501Y-124564501D01*
X108458000Y-127506000D02*
X105516501Y-124564501D01*
X99503500Y-123887500D02*
X90487500Y-123887500D01*
X100180501Y-124564501D02*
X99503500Y-123887500D01*
X83666961Y-124564501D02*
X81433039Y-124564501D01*
X90487500Y-123887500D02*
X84343962Y-123887500D01*
X84343962Y-123887500D02*
X83666961Y-124564501D01*
X80756038Y-123887500D02*
X71437500Y-123887500D01*
X81433039Y-124564501D02*
X80756038Y-123887500D01*
%TO.N,Net-(D5-Pad2)*%
X69515000Y-137715000D02*
X71437500Y-139637500D01*
X69515000Y-136207500D02*
X69515000Y-137715000D01*
%TO.N,ROW4*%
X82550000Y-60960000D02*
X78740000Y-60960000D01*
X65786000Y-73914000D02*
X131826000Y-73914000D01*
X119927001Y-121577001D02*
X119000000Y-120650000D01*
X130898999Y-121577001D02*
X119927001Y-121577001D01*
X131826000Y-120650000D02*
X130898999Y-121577001D01*
X119000000Y-120650000D02*
X119000000Y-126112000D01*
X119000000Y-126112000D02*
X119380000Y-126492000D01*
X112140000Y-141478000D02*
X109220000Y-144398000D01*
X119380000Y-141478000D02*
X112140000Y-141478000D01*
X108436501Y-143614501D02*
X100434501Y-143614501D01*
X109220000Y-144398000D02*
X108436501Y-143614501D01*
X99757500Y-142937500D02*
X90487500Y-142937500D01*
X100434501Y-143614501D02*
X99757500Y-142937500D01*
X83666961Y-143614501D02*
X81384501Y-143614501D01*
X90487500Y-142937500D02*
X84343962Y-142937500D01*
X84343962Y-142937500D02*
X83666961Y-143614501D01*
X80707500Y-142937500D02*
X71437500Y-142937500D01*
X81384501Y-143614501D02*
X80707500Y-142937500D01*
%TO.N,Net-(D6-Pad2)*%
X78867000Y-156592000D02*
X80962500Y-158687500D01*
X78867000Y-155257500D02*
X78867000Y-156592000D01*
%TO.N,ROW5*%
X82550000Y-63500000D02*
X79502000Y-63500000D01*
X66548000Y-73152000D02*
X132588000Y-73152000D01*
X108838000Y-165354000D02*
X108712000Y-165480000D01*
X132588000Y-165354000D02*
X108838000Y-165354000D01*
X106600501Y-162664501D02*
X100434501Y-162664501D01*
X108712000Y-165480000D02*
X108712000Y-164776000D01*
X108712000Y-164776000D02*
X106600501Y-162664501D01*
X99757500Y-161987500D02*
X80962500Y-161987500D01*
X100434501Y-162664501D02*
X99757500Y-161987500D01*
%TO.N,Net-(D7-Pad2)*%
X88565000Y-80565000D02*
X90487500Y-82487500D01*
X88565000Y-79057500D02*
X88565000Y-80565000D01*
%TO.N,Net-(D8-Pad2)*%
X88565000Y-99615000D02*
X90487500Y-101537500D01*
X88565000Y-98107500D02*
X88565000Y-99615000D01*
%TO.N,Net-(D9-Pad2)*%
X88565000Y-118665000D02*
X90487500Y-120587500D01*
X88565000Y-117157500D02*
X88565000Y-118665000D01*
%TO.N,Net-(D10-Pad2)*%
X88565000Y-137715000D02*
X90487500Y-139637500D01*
X88565000Y-136207500D02*
X88565000Y-137715000D01*
%TO.N,Net-(D11-Pad2)*%
X107615000Y-80565000D02*
X109537500Y-82487500D01*
X107615000Y-79057500D02*
X107615000Y-80565000D01*
%TO.N,Net-(D12-Pad2)*%
X107615000Y-101393000D02*
X109220000Y-102998000D01*
X107615000Y-98107500D02*
X107615000Y-101393000D01*
%TO.N,Net-(D13-Pad2)*%
X108458000Y-118000500D02*
X108458000Y-124206000D01*
X107615000Y-117157500D02*
X108458000Y-118000500D01*
%TO.N,Net-(D14-Pad2)*%
X107615000Y-139493000D02*
X109220000Y-141098000D01*
X107615000Y-136207500D02*
X107615000Y-139493000D01*
%TO.N,Net-(D15-Pad2)*%
X107615000Y-155257500D02*
X107615000Y-156003000D01*
X108712000Y-156354500D02*
X108712000Y-162180000D01*
X107615000Y-155257500D02*
X108712000Y-156354500D01*
%TO.N,Net-(D16-Pad2)*%
X126665000Y-80565000D02*
X128587500Y-82487500D01*
X126665000Y-79057500D02*
X126665000Y-80565000D01*
%TO.N,Net-(D17-Pad2)*%
X124395500Y-156654500D02*
X122300000Y-158750000D01*
X125730000Y-156654500D02*
X124395500Y-156654500D01*
%TO.N,Net-(D18-Pad2)*%
X124395500Y-118554500D02*
X122300000Y-120650000D01*
X125730000Y-118554500D02*
X124395500Y-118554500D01*
%TO.N,Net-(D19-Pad2)*%
X115831250Y-53697500D02*
X116681250Y-54547500D01*
X113650000Y-53697500D02*
X115831250Y-53697500D01*
%TO.N,COL0*%
X55899500Y-53848000D02*
X56090000Y-53657500D01*
X52832000Y-53848000D02*
X55899500Y-53848000D01*
X56026500Y-81534000D02*
X56090000Y-81597500D01*
X52832000Y-81534000D02*
X56026500Y-81534000D01*
X56026500Y-100584000D02*
X56090000Y-100647500D01*
X52832000Y-100584000D02*
X56026500Y-100584000D01*
X56026500Y-119634000D02*
X56090000Y-119697500D01*
X52832000Y-119634000D02*
X56026500Y-119634000D01*
X56026500Y-138684000D02*
X56090000Y-138747500D01*
X52832000Y-138684000D02*
X56026500Y-138684000D01*
X65876500Y-157734000D02*
X65940000Y-157797500D01*
X52832000Y-157734000D02*
X65876500Y-157734000D01*
X62992000Y-35560000D02*
X52832000Y-45720000D01*
X103124000Y-35560000D02*
X62992000Y-35560000D01*
X102108000Y-57658000D02*
X100330000Y-55880000D01*
X103124000Y-57658000D02*
X102108000Y-57658000D01*
%TO.N,Net-(SW1-Pad2)*%
X60900000Y-63694000D02*
X60960000Y-63754000D01*
X71120000Y-88138000D02*
X67818000Y-88138000D01*
X67818000Y-88138000D02*
X67564000Y-88392000D01*
X67564000Y-88392000D02*
X66040000Y-88392000D01*
X60960000Y-61994000D02*
X60900000Y-61934000D01*
X60960000Y-63754000D02*
X60960000Y-61994000D01*
%TO.N,LED*%
X66145500Y-60452000D02*
X66100000Y-60497500D01*
X73152000Y-60452000D02*
X66145500Y-60452000D01*
X73152000Y-36322000D02*
X99822000Y-36322000D01*
X99822000Y-37592000D02*
X100330000Y-38100000D01*
X99822000Y-36322000D02*
X99822000Y-37592000D01*
%TO.N,Net-(SW2-Pad2)*%
X60900000Y-91380000D02*
X60960000Y-91440000D01*
X60900000Y-89937500D02*
X60900000Y-91380000D01*
X87122000Y-91440000D02*
X87122000Y-88392000D01*
X87122000Y-88392000D02*
X85344000Y-88392000D01*
%TO.N,Net-(SW3-Pad2)*%
X60900000Y-110430000D02*
X60960000Y-110490000D01*
X60900000Y-108987500D02*
X60900000Y-110430000D01*
X87376000Y-110490000D02*
X87376000Y-107442000D01*
X87376000Y-107442000D02*
X85852000Y-107442000D01*
%TO.N,Net-(SW16-Pad2)*%
X118050000Y-92396000D02*
X118110000Y-92456000D01*
X118050000Y-89937500D02*
X118050000Y-92396000D01*
X70866000Y-107442000D02*
X66548000Y-107442000D01*
%TO.N,Net-(SW4-Pad2)*%
X60900000Y-130496000D02*
X60960000Y-130556000D01*
X60900000Y-128037500D02*
X60900000Y-130496000D01*
X87376000Y-130556000D02*
X87376000Y-126492000D01*
X87376000Y-126492000D02*
X85598000Y-126492000D01*
%TO.N,Net-(SW10-Pad4)*%
X60900000Y-148530000D02*
X60960000Y-148590000D01*
X60900000Y-147087500D02*
X60900000Y-148530000D01*
X87630000Y-148590000D02*
X87630000Y-145542000D01*
X87630000Y-145542000D02*
X85344000Y-145542000D01*
%TO.N,Net-(SW13-Pad2)*%
X99000000Y-130496000D02*
X99060000Y-130556000D01*
X99000000Y-128037500D02*
X99000000Y-130496000D01*
X70866000Y-145542000D02*
X66294000Y-145542000D01*
%TO.N,COL1*%
X72390000Y-89916000D02*
X72390000Y-95504000D01*
X72390000Y-108966000D02*
X72390000Y-115316000D01*
X72390000Y-118872000D02*
X74930000Y-118872000D01*
X72390000Y-99822000D02*
X74676000Y-99822000D01*
X72390000Y-129032000D02*
X72390000Y-133096000D01*
X72390000Y-137922000D02*
X74930000Y-137922000D01*
X72390000Y-80772000D02*
X74168000Y-80772000D01*
X100330000Y-63500000D02*
X101600000Y-63500000D01*
X101600000Y-63500000D02*
X103378000Y-61722000D01*
X103378000Y-61722000D02*
X106172000Y-61722000D01*
%TO.N,Net-(SW11-Pad4)*%
X79950000Y-92396000D02*
X80010000Y-92456000D01*
X79950000Y-89937500D02*
X79950000Y-92396000D01*
X106426000Y-92456000D02*
X106426000Y-88392000D01*
X106426000Y-88392000D02*
X104648000Y-88392000D01*
%TO.N,Net-(SW12-Pad4)*%
X79950000Y-111446000D02*
X80010000Y-111506000D01*
X79950000Y-108987500D02*
X79950000Y-111446000D01*
X106172000Y-111506000D02*
X106172000Y-107442000D01*
X106172000Y-107442000D02*
X104648000Y-107442000D01*
%TO.N,Net-(SW13-Pad4)*%
X79950000Y-129480000D02*
X80010000Y-129540000D01*
X79950000Y-128037500D02*
X79950000Y-129480000D01*
X106680000Y-129540000D02*
X106680000Y-126492000D01*
X106680000Y-126492000D02*
X104394000Y-126492000D01*
%TO.N,Net-(SW10-Pad2)*%
X79950000Y-149546000D02*
X80010000Y-149606000D01*
X79950000Y-147087500D02*
X79950000Y-149546000D01*
X106680000Y-149606000D02*
X106680000Y-145542000D01*
X106680000Y-145542000D02*
X103886000Y-145542000D01*
%TO.N,COL2*%
X101600000Y-60960000D02*
X103632000Y-60960000D01*
X103632000Y-60960000D02*
X104394000Y-60198000D01*
X91440000Y-80772000D02*
X93726000Y-80772000D01*
X91440000Y-90170000D02*
X91440000Y-95504000D01*
X93364500Y-99822000D02*
X94190000Y-100647500D01*
X91440000Y-99822000D02*
X93364500Y-99822000D01*
X91440000Y-108966000D02*
X91440000Y-114808000D01*
X93364500Y-118872000D02*
X94190000Y-119697500D01*
X91440000Y-118872000D02*
X93364500Y-118872000D01*
X91440000Y-128016000D02*
X91440000Y-133858000D01*
X93364500Y-137922000D02*
X94190000Y-138747500D01*
X91440000Y-137922000D02*
X93364500Y-137922000D01*
X91440000Y-155047500D02*
X94190000Y-157797500D01*
X91440000Y-148590000D02*
X91440000Y-155047500D01*
X104394000Y-60198000D02*
X105156000Y-60198000D01*
%TO.N,Net-(SW11-Pad2)*%
X99000000Y-91380000D02*
X99060000Y-91440000D01*
X99000000Y-89937500D02*
X99000000Y-91380000D01*
X125476000Y-91440000D02*
X125476000Y-88392000D01*
X125476000Y-88392000D02*
X123444000Y-88392000D01*
%TO.N,COL3*%
X112414500Y-80772000D02*
X113240000Y-81597500D01*
X110490000Y-80772000D02*
X112414500Y-80772000D01*
X110490000Y-89662000D02*
X110490000Y-96012000D01*
X110490000Y-114554000D02*
X110490000Y-118872000D01*
X103632000Y-58420000D02*
X104140000Y-58928000D01*
X100330000Y-58420000D02*
X103632000Y-58420000D01*
X113419500Y-58928000D02*
X113650000Y-58697500D01*
X113165500Y-58928000D02*
X113396000Y-58697500D01*
X104140000Y-58928000D02*
X113165500Y-58928000D01*
X118364000Y-100801500D02*
X123190000Y-105627500D01*
X118364000Y-96012000D02*
X118364000Y-100801500D01*
X115316000Y-135853500D02*
X123190000Y-143727500D01*
X115316000Y-134366000D02*
X115316000Y-135853500D01*
%TO.N,Net-(D20-Pad2)*%
X70425000Y-165850000D02*
X70425000Y-167827000D01*
X70425000Y-167827000D02*
X70492000Y-167894000D01*
X70492000Y-167894000D02*
X81026000Y-167894000D01*
X81026000Y-167894000D02*
X83566000Y-165354000D01*
X83566000Y-165354000D02*
X86360000Y-165354000D01*
X86360000Y-165354000D02*
X89154000Y-168148000D01*
X89154000Y-168148000D02*
X104128102Y-168148000D01*
X104128102Y-168148000D02*
X107188000Y-168148000D01*
X107188000Y-168148000D02*
X107188000Y-164592000D01*
X107188000Y-164592000D02*
X104648000Y-164592000D01*
%TO.N,Net-(D20-Pad4)*%
X79756000Y-164338000D02*
X75692000Y-164338000D01*
X113030000Y-115824000D02*
X113030000Y-110236000D01*
X115014000Y-110236000D02*
X115137500Y-110112500D01*
X113030000Y-110236000D02*
X115014000Y-110236000D01*
%TO.N,Net-(D21-Pad2)*%
X70866000Y-126492000D02*
X66294000Y-126492000D01*
X115137500Y-147395500D02*
X115137500Y-148212500D01*
X113792000Y-146050000D02*
X115137500Y-147395500D01*
%TO.N,Net-(D21-Pad4)*%
X99000000Y-112716000D02*
X99060000Y-112776000D01*
X99000000Y-108987500D02*
X99000000Y-112716000D01*
X116641000Y-153416000D02*
X116637500Y-153412500D01*
X118110000Y-153416000D02*
X116641000Y-153416000D01*
%TO.N,Net-(D22-Pad4)*%
X99000000Y-148530000D02*
X99060000Y-148590000D01*
X99000000Y-147087500D02*
X99000000Y-148530000D01*
X116840000Y-115515000D02*
X116637500Y-115312500D01*
X116840000Y-120904000D02*
X116840000Y-115515000D01*
X116840000Y-120904000D02*
X116840000Y-125857000D01*
%TD*%
M02*
