%TF.GenerationSoftware,KiCad,Pcbnew,(5.1.6)-1*%
%TF.CreationDate,2021-02-05T01:20:54-05:00*%
%TF.ProjectId,Numpadulator,4e756d70-6164-4756-9c61-746f722e6b69,rev?*%
%TF.SameCoordinates,Original*%
%TF.FileFunction,Legend,Bot*%
%TF.FilePolarity,Positive*%
%FSLAX46Y46*%
G04 Gerber Fmt 4.6, Leading zero omitted, Abs format (unit mm)*
G04 Created by KiCad (PCBNEW (5.1.6)-1) date 2021-02-05 01:20:54*
%MOMM*%
%LPD*%
G01*
G04 APERTURE LIST*
%ADD10C,0.120000*%
%ADD11C,0.203200*%
%ADD12C,0.150000*%
G04 APERTURE END LIST*
D10*
%TO.C,SW16*%
X118650000Y-87387500D02*
X118650000Y-87687500D01*
X118950000Y-87387500D02*
X118650000Y-87387500D01*
%TO.C,SW2*%
X61500000Y-87387500D02*
X61500000Y-87687500D01*
X61800000Y-87387500D02*
X61500000Y-87387500D01*
%TO.C,SW1*%
X61500000Y-59384000D02*
X61500000Y-59684000D01*
X61800000Y-59384000D02*
X61500000Y-59384000D01*
%TO.C,SW12*%
X99600000Y-106437500D02*
X99600000Y-106737500D01*
X99900000Y-106437500D02*
X99600000Y-106437500D01*
%TO.C,SW15*%
X99600000Y-163587500D02*
X99600000Y-163887500D01*
X99900000Y-163587500D02*
X99600000Y-163587500D01*
%TO.C,SW14*%
X99600000Y-144537500D02*
X99600000Y-144837500D01*
X99900000Y-144537500D02*
X99600000Y-144537500D01*
%TO.C,SW13*%
X99600000Y-125487500D02*
X99600000Y-125787500D01*
X99900000Y-125487500D02*
X99600000Y-125487500D01*
%TO.C,SW11*%
X99600000Y-87387500D02*
X99600000Y-87687500D01*
X99900000Y-87387500D02*
X99600000Y-87387500D01*
%TO.C,SW10*%
X80550000Y-144537500D02*
X80550000Y-144837500D01*
X80850000Y-144537500D02*
X80550000Y-144537500D01*
%TO.C,SW9*%
X80550000Y-125487500D02*
X80550000Y-125787500D01*
X80850000Y-125487500D02*
X80550000Y-125487500D01*
%TO.C,SW8*%
X80550000Y-106437500D02*
X80550000Y-106737500D01*
X80850000Y-106437500D02*
X80550000Y-106437500D01*
%TO.C,SW7*%
X80550000Y-87387500D02*
X80550000Y-87687500D01*
X80850000Y-87387500D02*
X80550000Y-87387500D01*
%TO.C,SW5*%
X61500000Y-144537500D02*
X61500000Y-144837500D01*
X61800000Y-144537500D02*
X61500000Y-144537500D01*
%TO.C,SW4*%
X61500000Y-125487500D02*
X61500000Y-125787500D01*
X61800000Y-125487500D02*
X61500000Y-125487500D01*
%TO.C,SW3*%
X61500000Y-106437500D02*
X61500000Y-106737500D01*
X61800000Y-106437500D02*
X61500000Y-106437500D01*
%TO.C,D22*%
X117687500Y-110712500D02*
X117387500Y-110712500D01*
X117687500Y-111012500D02*
X117687500Y-110712500D01*
%TO.C,D21*%
X117687500Y-148812500D02*
X117387500Y-148812500D01*
X117687500Y-149112500D02*
X117687500Y-148812500D01*
%TO.C,D20*%
X71025000Y-163300000D02*
X71025000Y-163600000D01*
X71325000Y-163300000D02*
X71025000Y-163300000D01*
D11*
%TO.C,U1*%
X82550000Y-67310000D02*
X100330000Y-67310000D01*
X82550000Y-34290000D02*
X82550000Y-36830000D01*
X86360000Y-34290000D02*
X82550000Y-34290000D01*
X100330000Y-34290000D02*
X100330000Y-36830000D01*
X96520000Y-34290000D02*
X100330000Y-34290000D01*
X86487000Y-53340000D02*
X91440000Y-48387000D01*
X91440000Y-58293000D02*
X86487000Y-53340000D01*
X96393000Y-53340000D02*
X91440000Y-58293000D01*
X91440000Y-48387000D02*
X96393000Y-53340000D01*
X95758000Y-32956500D02*
X87122000Y-32956500D01*
X87122000Y-40259000D02*
X95758000Y-40259000D01*
X87122000Y-32956500D02*
X87122000Y-40259000D01*
X95758000Y-40259000D02*
X95758000Y-32956500D01*
X87122000Y-32956500D02*
G75*
G03*
X95758000Y-32956500I4318000J24145875D01*
G01*
D10*
%TO.C,D19*%
X117681250Y-58447500D02*
X115681250Y-58447500D01*
X115681250Y-58447500D02*
X115681250Y-54547500D01*
X117681250Y-58447500D02*
X117681250Y-54547500D01*
%TO.C,D18*%
X118400000Y-121650000D02*
X118400000Y-119650000D01*
X118400000Y-119650000D02*
X122300000Y-119650000D01*
X118400000Y-121650000D02*
X122300000Y-121650000D01*
%TO.C,D17*%
X118400000Y-159750000D02*
X118400000Y-157750000D01*
X118400000Y-157750000D02*
X122300000Y-157750000D01*
X118400000Y-159750000D02*
X122300000Y-159750000D01*
%TO.C,D16*%
X129587500Y-86387500D02*
X127587500Y-86387500D01*
X127587500Y-86387500D02*
X127587500Y-82487500D01*
X129587500Y-86387500D02*
X129587500Y-82487500D01*
%TO.C,D15*%
X109712000Y-166080000D02*
X107712000Y-166080000D01*
X107712000Y-166080000D02*
X107712000Y-162180000D01*
X109712000Y-166080000D02*
X109712000Y-162180000D01*
%TO.C,D14*%
X110220000Y-144998000D02*
X108220000Y-144998000D01*
X108220000Y-144998000D02*
X108220000Y-141098000D01*
X110220000Y-144998000D02*
X110220000Y-141098000D01*
%TO.C,D13*%
X109458000Y-128106000D02*
X107458000Y-128106000D01*
X107458000Y-128106000D02*
X107458000Y-124206000D01*
X109458000Y-128106000D02*
X109458000Y-124206000D01*
%TO.C,D12*%
X110220000Y-106898000D02*
X108220000Y-106898000D01*
X108220000Y-106898000D02*
X108220000Y-102998000D01*
X110220000Y-106898000D02*
X110220000Y-102998000D01*
%TO.C,D11*%
X110537500Y-86387500D02*
X108537500Y-86387500D01*
X108537500Y-86387500D02*
X108537500Y-82487500D01*
X110537500Y-86387500D02*
X110537500Y-82487500D01*
%TO.C,D10*%
X91487500Y-143537500D02*
X89487500Y-143537500D01*
X89487500Y-143537500D02*
X89487500Y-139637500D01*
X91487500Y-143537500D02*
X91487500Y-139637500D01*
%TO.C,D9*%
X91487500Y-124487500D02*
X89487500Y-124487500D01*
X89487500Y-124487500D02*
X89487500Y-120587500D01*
X91487500Y-124487500D02*
X91487500Y-120587500D01*
%TO.C,D8*%
X91487500Y-105437500D02*
X89487500Y-105437500D01*
X89487500Y-105437500D02*
X89487500Y-101537500D01*
X91487500Y-105437500D02*
X91487500Y-101537500D01*
%TO.C,D7*%
X91487500Y-86387500D02*
X89487500Y-86387500D01*
X89487500Y-86387500D02*
X89487500Y-82487500D01*
X91487500Y-86387500D02*
X91487500Y-82487500D01*
%TO.C,D6*%
X81962500Y-162587500D02*
X79962500Y-162587500D01*
X79962500Y-162587500D02*
X79962500Y-158687500D01*
X81962500Y-162587500D02*
X81962500Y-158687500D01*
%TO.C,D5*%
X72437500Y-143537500D02*
X70437500Y-143537500D01*
X70437500Y-143537500D02*
X70437500Y-139637500D01*
X72437500Y-143537500D02*
X72437500Y-139637500D01*
%TO.C,D4*%
X72437500Y-124487500D02*
X70437500Y-124487500D01*
X70437500Y-124487500D02*
X70437500Y-120587500D01*
X72437500Y-124487500D02*
X72437500Y-120587500D01*
%TO.C,D3*%
X72437500Y-105437500D02*
X70437500Y-105437500D01*
X70437500Y-105437500D02*
X70437500Y-101537500D01*
X72437500Y-105437500D02*
X72437500Y-101537500D01*
%TO.C,D2*%
X72437500Y-86387500D02*
X70437500Y-86387500D01*
X70437500Y-86387500D02*
X70437500Y-82487500D01*
X72437500Y-86387500D02*
X72437500Y-82487500D01*
%TO.C,D1*%
X72437500Y-58447500D02*
X70437500Y-58447500D01*
X70437500Y-58447500D02*
X70437500Y-54547500D01*
X72437500Y-58447500D02*
X72437500Y-54547500D01*
%TO.C,C18*%
X115628922Y-144378750D02*
X116146078Y-144378750D01*
X115628922Y-142958750D02*
X116146078Y-142958750D01*
%TO.C,C17*%
X116146078Y-104858750D02*
X115628922Y-104858750D01*
X116146078Y-106278750D02*
X115628922Y-106278750D01*
%TO.C,C16*%
X114216250Y-89666578D02*
X114216250Y-89149422D01*
X112796250Y-89666578D02*
X112796250Y-89149422D01*
%TO.C,C15*%
X95166250Y-165866578D02*
X95166250Y-165349422D01*
X93746250Y-165866578D02*
X93746250Y-165349422D01*
%TO.C,C14*%
X95166250Y-146816578D02*
X95166250Y-146299422D01*
X93746250Y-146816578D02*
X93746250Y-146299422D01*
%TO.C,C13*%
X95166250Y-127766578D02*
X95166250Y-127249422D01*
X93746250Y-127766578D02*
X93746250Y-127249422D01*
%TO.C,C12*%
X95166250Y-108716578D02*
X95166250Y-108199422D01*
X93746250Y-108716578D02*
X93746250Y-108199422D01*
%TO.C,C11*%
X95166250Y-89666578D02*
X95166250Y-89149422D01*
X93746250Y-89666578D02*
X93746250Y-89149422D01*
%TO.C,C10*%
X76116250Y-146816578D02*
X76116250Y-146299422D01*
X74696250Y-146816578D02*
X74696250Y-146299422D01*
%TO.C,C9*%
X76116250Y-127766578D02*
X76116250Y-127249422D01*
X74696250Y-127766578D02*
X74696250Y-127249422D01*
%TO.C,C8*%
X76116250Y-108716578D02*
X76116250Y-108199422D01*
X74696250Y-108716578D02*
X74696250Y-108199422D01*
%TO.C,C7*%
X74696250Y-89666578D02*
X74696250Y-89149422D01*
X76116250Y-89666578D02*
X76116250Y-89149422D01*
%TO.C,C6*%
X66591250Y-165612578D02*
X66591250Y-165095422D01*
X65171250Y-165612578D02*
X65171250Y-165095422D01*
%TO.C,C5*%
X57066250Y-146816578D02*
X57066250Y-146299422D01*
X55646250Y-146816578D02*
X55646250Y-146299422D01*
%TO.C,C4*%
X57066250Y-127766578D02*
X57066250Y-127249422D01*
X55646250Y-127766578D02*
X55646250Y-127249422D01*
%TO.C,C3*%
X57860000Y-108716578D02*
X57860000Y-108199422D01*
X56440000Y-108716578D02*
X56440000Y-108199422D01*
%TO.C,C2*%
X57066250Y-89666578D02*
X57066250Y-89149422D01*
X55646250Y-89666578D02*
X55646250Y-89149422D01*
%TO.C,C1*%
X57860000Y-61209422D02*
X57860000Y-61726578D01*
X56440000Y-61209422D02*
X56440000Y-61726578D01*
%TO.C,MX3*%
D12*
X118054380Y-111426785D02*
X117054380Y-111426785D01*
X117768666Y-111760119D01*
X117054380Y-112093452D01*
X118054380Y-112093452D01*
X117054380Y-112474404D02*
X118054380Y-113141071D01*
X117054380Y-113141071D02*
X118054380Y-112474404D01*
X117054380Y-113426785D02*
X117054380Y-114045833D01*
X117435333Y-113712500D01*
X117435333Y-113855357D01*
X117482952Y-113950595D01*
X117530571Y-113998214D01*
X117625809Y-114045833D01*
X117863904Y-114045833D01*
X117959142Y-113998214D01*
X118006761Y-113950595D01*
X118054380Y-113855357D01*
X118054380Y-113569642D01*
X118006761Y-113474404D01*
X117959142Y-113426785D01*
%TO.C,MX2*%
X118054380Y-149526785D02*
X117054380Y-149526785D01*
X117768666Y-149860119D01*
X117054380Y-150193452D01*
X118054380Y-150193452D01*
X117054380Y-150574404D02*
X118054380Y-151241071D01*
X117054380Y-151241071D02*
X118054380Y-150574404D01*
X117149619Y-151574404D02*
X117102000Y-151622023D01*
X117054380Y-151717261D01*
X117054380Y-151955357D01*
X117102000Y-152050595D01*
X117149619Y-152098214D01*
X117244857Y-152145833D01*
X117340095Y-152145833D01*
X117482952Y-152098214D01*
X118054380Y-151526785D01*
X118054380Y-152145833D01*
%TO.C,MX1*%
X74310714Y-163837880D02*
X74310714Y-162837880D01*
X73977380Y-163552166D01*
X73644047Y-162837880D01*
X73644047Y-163837880D01*
X73263095Y-162837880D02*
X72596428Y-163837880D01*
X72596428Y-162837880D02*
X73263095Y-163837880D01*
X71691666Y-163837880D02*
X72263095Y-163837880D01*
X71977380Y-163837880D02*
X71977380Y-162837880D01*
X72072619Y-162980738D01*
X72167857Y-163075976D01*
X72263095Y-163123595D01*
%TO.C,D22*%
X118939880Y-111498214D02*
X117939880Y-111498214D01*
X117939880Y-111736309D01*
X117987500Y-111879166D01*
X118082738Y-111974404D01*
X118177976Y-112022023D01*
X118368452Y-112069642D01*
X118511309Y-112069642D01*
X118701785Y-112022023D01*
X118797023Y-111974404D01*
X118892261Y-111879166D01*
X118939880Y-111736309D01*
X118939880Y-111498214D01*
X118035119Y-112450595D02*
X117987500Y-112498214D01*
X117939880Y-112593452D01*
X117939880Y-112831547D01*
X117987500Y-112926785D01*
X118035119Y-112974404D01*
X118130357Y-113022023D01*
X118225595Y-113022023D01*
X118368452Y-112974404D01*
X118939880Y-112402976D01*
X118939880Y-113022023D01*
X118035119Y-113402976D02*
X117987500Y-113450595D01*
X117939880Y-113545833D01*
X117939880Y-113783928D01*
X117987500Y-113879166D01*
X118035119Y-113926785D01*
X118130357Y-113974404D01*
X118225595Y-113974404D01*
X118368452Y-113926785D01*
X118939880Y-113355357D01*
X118939880Y-113974404D01*
%TO.C,D21*%
X118939880Y-149598214D02*
X117939880Y-149598214D01*
X117939880Y-149836309D01*
X117987500Y-149979166D01*
X118082738Y-150074404D01*
X118177976Y-150122023D01*
X118368452Y-150169642D01*
X118511309Y-150169642D01*
X118701785Y-150122023D01*
X118797023Y-150074404D01*
X118892261Y-149979166D01*
X118939880Y-149836309D01*
X118939880Y-149598214D01*
X118035119Y-150550595D02*
X117987500Y-150598214D01*
X117939880Y-150693452D01*
X117939880Y-150931547D01*
X117987500Y-151026785D01*
X118035119Y-151074404D01*
X118130357Y-151122023D01*
X118225595Y-151122023D01*
X118368452Y-151074404D01*
X118939880Y-150502976D01*
X118939880Y-151122023D01*
X118939880Y-152074404D02*
X118939880Y-151502976D01*
X118939880Y-151788690D02*
X117939880Y-151788690D01*
X118082738Y-151693452D01*
X118177976Y-151598214D01*
X118225595Y-151502976D01*
%TO.C,D20*%
X74239285Y-162952380D02*
X74239285Y-161952380D01*
X74001190Y-161952380D01*
X73858333Y-162000000D01*
X73763095Y-162095238D01*
X73715476Y-162190476D01*
X73667857Y-162380952D01*
X73667857Y-162523809D01*
X73715476Y-162714285D01*
X73763095Y-162809523D01*
X73858333Y-162904761D01*
X74001190Y-162952380D01*
X74239285Y-162952380D01*
X73286904Y-162047619D02*
X73239285Y-162000000D01*
X73144047Y-161952380D01*
X72905952Y-161952380D01*
X72810714Y-162000000D01*
X72763095Y-162047619D01*
X72715476Y-162142857D01*
X72715476Y-162238095D01*
X72763095Y-162380952D01*
X73334523Y-162952380D01*
X72715476Y-162952380D01*
X72096428Y-161952380D02*
X72001190Y-161952380D01*
X71905952Y-162000000D01*
X71858333Y-162047619D01*
X71810714Y-162142857D01*
X71763095Y-162333333D01*
X71763095Y-162571428D01*
X71810714Y-162761904D01*
X71858333Y-162857142D01*
X71905952Y-162904761D01*
X72001190Y-162952380D01*
X72096428Y-162952380D01*
X72191666Y-162904761D01*
X72239285Y-162857142D01*
X72286904Y-162761904D01*
X72334523Y-162571428D01*
X72334523Y-162333333D01*
X72286904Y-162142857D01*
X72239285Y-162047619D01*
X72191666Y-162000000D01*
X72096428Y-161952380D01*
%TO.C,U1*%
X92407619Y-50104523D02*
X92407619Y-51132619D01*
X92347142Y-51253571D01*
X92286666Y-51314047D01*
X92165714Y-51374523D01*
X91923809Y-51374523D01*
X91802857Y-51314047D01*
X91742380Y-51253571D01*
X91681904Y-51132619D01*
X91681904Y-50104523D01*
X90411904Y-51374523D02*
X91137619Y-51374523D01*
X90774761Y-51374523D02*
X90774761Y-50104523D01*
X90895714Y-50285952D01*
X91016666Y-50406904D01*
X91137619Y-50467380D01*
X97638809Y-51374523D02*
X97638809Y-50104523D01*
X97155000Y-50104523D01*
X97034047Y-50165000D01*
X96973571Y-50225476D01*
X96913095Y-50346428D01*
X96913095Y-50527857D01*
X96973571Y-50648809D01*
X97034047Y-50709285D01*
X97155000Y-50769761D01*
X97638809Y-50769761D01*
X95643095Y-51374523D02*
X96066428Y-50769761D01*
X96368809Y-51374523D02*
X96368809Y-50104523D01*
X95885000Y-50104523D01*
X95764047Y-50165000D01*
X95703571Y-50225476D01*
X95643095Y-50346428D01*
X95643095Y-50527857D01*
X95703571Y-50648809D01*
X95764047Y-50709285D01*
X95885000Y-50769761D01*
X96368809Y-50769761D01*
X94856904Y-50104523D02*
X94615000Y-50104523D01*
X94494047Y-50165000D01*
X94373095Y-50285952D01*
X94312619Y-50527857D01*
X94312619Y-50951190D01*
X94373095Y-51193095D01*
X94494047Y-51314047D01*
X94615000Y-51374523D01*
X94856904Y-51374523D01*
X94977857Y-51314047D01*
X95098809Y-51193095D01*
X95159285Y-50951190D01*
X95159285Y-50527857D01*
X95098809Y-50285952D01*
X94977857Y-50165000D01*
X94856904Y-50104523D01*
X94070714Y-51495476D02*
X93103095Y-51495476D01*
X92800714Y-51374523D02*
X92800714Y-50104523D01*
X92377380Y-51011666D01*
X91954047Y-50104523D01*
X91954047Y-51374523D01*
X91349285Y-51374523D02*
X91349285Y-50104523D01*
X90018809Y-51253571D02*
X90079285Y-51314047D01*
X90260714Y-51374523D01*
X90381666Y-51374523D01*
X90563095Y-51314047D01*
X90684047Y-51193095D01*
X90744523Y-51072142D01*
X90805000Y-50830238D01*
X90805000Y-50648809D01*
X90744523Y-50406904D01*
X90684047Y-50285952D01*
X90563095Y-50165000D01*
X90381666Y-50104523D01*
X90260714Y-50104523D01*
X90079285Y-50165000D01*
X90018809Y-50225476D01*
X88748809Y-51374523D02*
X89172142Y-50769761D01*
X89474523Y-51374523D02*
X89474523Y-50104523D01*
X88990714Y-50104523D01*
X88869761Y-50165000D01*
X88809285Y-50225476D01*
X88748809Y-50346428D01*
X88748809Y-50527857D01*
X88809285Y-50648809D01*
X88869761Y-50709285D01*
X88990714Y-50769761D01*
X89474523Y-50769761D01*
X87962619Y-50104523D02*
X87720714Y-50104523D01*
X87599761Y-50165000D01*
X87478809Y-50285952D01*
X87418333Y-50527857D01*
X87418333Y-50951190D01*
X87478809Y-51193095D01*
X87599761Y-51314047D01*
X87720714Y-51374523D01*
X87962619Y-51374523D01*
X88083571Y-51314047D01*
X88204523Y-51193095D01*
X88265000Y-50951190D01*
X88265000Y-50527857D01*
X88204523Y-50285952D01*
X88083571Y-50165000D01*
X87962619Y-50104523D01*
X87176428Y-51495476D02*
X86208809Y-51495476D01*
X85180714Y-51253571D02*
X85241190Y-51314047D01*
X85422619Y-51374523D01*
X85543571Y-51374523D01*
X85725000Y-51314047D01*
X85845952Y-51193095D01*
X85906428Y-51072142D01*
X85966904Y-50830238D01*
X85966904Y-50648809D01*
X85906428Y-50406904D01*
X85845952Y-50285952D01*
X85725000Y-50165000D01*
X85543571Y-50104523D01*
X85422619Y-50104523D01*
X85241190Y-50165000D01*
X85180714Y-50225476D01*
%TO.C,D19*%
X119133630Y-54983214D02*
X118133630Y-54983214D01*
X118133630Y-55221309D01*
X118181250Y-55364166D01*
X118276488Y-55459404D01*
X118371726Y-55507023D01*
X118562202Y-55554642D01*
X118705059Y-55554642D01*
X118895535Y-55507023D01*
X118990773Y-55459404D01*
X119086011Y-55364166D01*
X119133630Y-55221309D01*
X119133630Y-54983214D01*
X119133630Y-56507023D02*
X119133630Y-55935595D01*
X119133630Y-56221309D02*
X118133630Y-56221309D01*
X118276488Y-56126071D01*
X118371726Y-56030833D01*
X118419345Y-55935595D01*
X119133630Y-56983214D02*
X119133630Y-57173690D01*
X119086011Y-57268928D01*
X119038392Y-57316547D01*
X118895535Y-57411785D01*
X118705059Y-57459404D01*
X118324107Y-57459404D01*
X118228869Y-57411785D01*
X118181250Y-57364166D01*
X118133630Y-57268928D01*
X118133630Y-57078452D01*
X118181250Y-56983214D01*
X118228869Y-56935595D01*
X118324107Y-56887976D01*
X118562202Y-56887976D01*
X118657440Y-56935595D01*
X118705059Y-56983214D01*
X118752678Y-57078452D01*
X118752678Y-57268928D01*
X118705059Y-57364166D01*
X118657440Y-57411785D01*
X118562202Y-57459404D01*
%TO.C,D18*%
X121864285Y-123102380D02*
X121864285Y-122102380D01*
X121626190Y-122102380D01*
X121483333Y-122150000D01*
X121388095Y-122245238D01*
X121340476Y-122340476D01*
X121292857Y-122530952D01*
X121292857Y-122673809D01*
X121340476Y-122864285D01*
X121388095Y-122959523D01*
X121483333Y-123054761D01*
X121626190Y-123102380D01*
X121864285Y-123102380D01*
X120340476Y-123102380D02*
X120911904Y-123102380D01*
X120626190Y-123102380D02*
X120626190Y-122102380D01*
X120721428Y-122245238D01*
X120816666Y-122340476D01*
X120911904Y-122388095D01*
X119769047Y-122530952D02*
X119864285Y-122483333D01*
X119911904Y-122435714D01*
X119959523Y-122340476D01*
X119959523Y-122292857D01*
X119911904Y-122197619D01*
X119864285Y-122150000D01*
X119769047Y-122102380D01*
X119578571Y-122102380D01*
X119483333Y-122150000D01*
X119435714Y-122197619D01*
X119388095Y-122292857D01*
X119388095Y-122340476D01*
X119435714Y-122435714D01*
X119483333Y-122483333D01*
X119578571Y-122530952D01*
X119769047Y-122530952D01*
X119864285Y-122578571D01*
X119911904Y-122626190D01*
X119959523Y-122721428D01*
X119959523Y-122911904D01*
X119911904Y-123007142D01*
X119864285Y-123054761D01*
X119769047Y-123102380D01*
X119578571Y-123102380D01*
X119483333Y-123054761D01*
X119435714Y-123007142D01*
X119388095Y-122911904D01*
X119388095Y-122721428D01*
X119435714Y-122626190D01*
X119483333Y-122578571D01*
X119578571Y-122530952D01*
%TO.C,D17*%
X121864285Y-161202380D02*
X121864285Y-160202380D01*
X121626190Y-160202380D01*
X121483333Y-160250000D01*
X121388095Y-160345238D01*
X121340476Y-160440476D01*
X121292857Y-160630952D01*
X121292857Y-160773809D01*
X121340476Y-160964285D01*
X121388095Y-161059523D01*
X121483333Y-161154761D01*
X121626190Y-161202380D01*
X121864285Y-161202380D01*
X120340476Y-161202380D02*
X120911904Y-161202380D01*
X120626190Y-161202380D02*
X120626190Y-160202380D01*
X120721428Y-160345238D01*
X120816666Y-160440476D01*
X120911904Y-160488095D01*
X120007142Y-160202380D02*
X119340476Y-160202380D01*
X119769047Y-161202380D01*
%TO.C,D16*%
X131039880Y-82923214D02*
X130039880Y-82923214D01*
X130039880Y-83161309D01*
X130087500Y-83304166D01*
X130182738Y-83399404D01*
X130277976Y-83447023D01*
X130468452Y-83494642D01*
X130611309Y-83494642D01*
X130801785Y-83447023D01*
X130897023Y-83399404D01*
X130992261Y-83304166D01*
X131039880Y-83161309D01*
X131039880Y-82923214D01*
X131039880Y-84447023D02*
X131039880Y-83875595D01*
X131039880Y-84161309D02*
X130039880Y-84161309D01*
X130182738Y-84066071D01*
X130277976Y-83970833D01*
X130325595Y-83875595D01*
X130039880Y-85304166D02*
X130039880Y-85113690D01*
X130087500Y-85018452D01*
X130135119Y-84970833D01*
X130277976Y-84875595D01*
X130468452Y-84827976D01*
X130849404Y-84827976D01*
X130944642Y-84875595D01*
X130992261Y-84923214D01*
X131039880Y-85018452D01*
X131039880Y-85208928D01*
X130992261Y-85304166D01*
X130944642Y-85351785D01*
X130849404Y-85399404D01*
X130611309Y-85399404D01*
X130516071Y-85351785D01*
X130468452Y-85304166D01*
X130420833Y-85208928D01*
X130420833Y-85018452D01*
X130468452Y-84923214D01*
X130516071Y-84875595D01*
X130611309Y-84827976D01*
%TO.C,D15*%
X111164380Y-162615714D02*
X110164380Y-162615714D01*
X110164380Y-162853809D01*
X110212000Y-162996666D01*
X110307238Y-163091904D01*
X110402476Y-163139523D01*
X110592952Y-163187142D01*
X110735809Y-163187142D01*
X110926285Y-163139523D01*
X111021523Y-163091904D01*
X111116761Y-162996666D01*
X111164380Y-162853809D01*
X111164380Y-162615714D01*
X111164380Y-164139523D02*
X111164380Y-163568095D01*
X111164380Y-163853809D02*
X110164380Y-163853809D01*
X110307238Y-163758571D01*
X110402476Y-163663333D01*
X110450095Y-163568095D01*
X110164380Y-165044285D02*
X110164380Y-164568095D01*
X110640571Y-164520476D01*
X110592952Y-164568095D01*
X110545333Y-164663333D01*
X110545333Y-164901428D01*
X110592952Y-164996666D01*
X110640571Y-165044285D01*
X110735809Y-165091904D01*
X110973904Y-165091904D01*
X111069142Y-165044285D01*
X111116761Y-164996666D01*
X111164380Y-164901428D01*
X111164380Y-164663333D01*
X111116761Y-164568095D01*
X111069142Y-164520476D01*
%TO.C,D14*%
X111672380Y-141533714D02*
X110672380Y-141533714D01*
X110672380Y-141771809D01*
X110720000Y-141914666D01*
X110815238Y-142009904D01*
X110910476Y-142057523D01*
X111100952Y-142105142D01*
X111243809Y-142105142D01*
X111434285Y-142057523D01*
X111529523Y-142009904D01*
X111624761Y-141914666D01*
X111672380Y-141771809D01*
X111672380Y-141533714D01*
X111672380Y-143057523D02*
X111672380Y-142486095D01*
X111672380Y-142771809D02*
X110672380Y-142771809D01*
X110815238Y-142676571D01*
X110910476Y-142581333D01*
X110958095Y-142486095D01*
X111005714Y-143914666D02*
X111672380Y-143914666D01*
X110624761Y-143676571D02*
X111339047Y-143438476D01*
X111339047Y-144057523D01*
%TO.C,D13*%
X110910380Y-124641714D02*
X109910380Y-124641714D01*
X109910380Y-124879809D01*
X109958000Y-125022666D01*
X110053238Y-125117904D01*
X110148476Y-125165523D01*
X110338952Y-125213142D01*
X110481809Y-125213142D01*
X110672285Y-125165523D01*
X110767523Y-125117904D01*
X110862761Y-125022666D01*
X110910380Y-124879809D01*
X110910380Y-124641714D01*
X110910380Y-126165523D02*
X110910380Y-125594095D01*
X110910380Y-125879809D02*
X109910380Y-125879809D01*
X110053238Y-125784571D01*
X110148476Y-125689333D01*
X110196095Y-125594095D01*
X109910380Y-126498857D02*
X109910380Y-127117904D01*
X110291333Y-126784571D01*
X110291333Y-126927428D01*
X110338952Y-127022666D01*
X110386571Y-127070285D01*
X110481809Y-127117904D01*
X110719904Y-127117904D01*
X110815142Y-127070285D01*
X110862761Y-127022666D01*
X110910380Y-126927428D01*
X110910380Y-126641714D01*
X110862761Y-126546476D01*
X110815142Y-126498857D01*
%TO.C,D12*%
X111672380Y-103433714D02*
X110672380Y-103433714D01*
X110672380Y-103671809D01*
X110720000Y-103814666D01*
X110815238Y-103909904D01*
X110910476Y-103957523D01*
X111100952Y-104005142D01*
X111243809Y-104005142D01*
X111434285Y-103957523D01*
X111529523Y-103909904D01*
X111624761Y-103814666D01*
X111672380Y-103671809D01*
X111672380Y-103433714D01*
X111672380Y-104957523D02*
X111672380Y-104386095D01*
X111672380Y-104671809D02*
X110672380Y-104671809D01*
X110815238Y-104576571D01*
X110910476Y-104481333D01*
X110958095Y-104386095D01*
X110767619Y-105338476D02*
X110720000Y-105386095D01*
X110672380Y-105481333D01*
X110672380Y-105719428D01*
X110720000Y-105814666D01*
X110767619Y-105862285D01*
X110862857Y-105909904D01*
X110958095Y-105909904D01*
X111100952Y-105862285D01*
X111672380Y-105290857D01*
X111672380Y-105909904D01*
%TO.C,D11*%
X111989880Y-82923214D02*
X110989880Y-82923214D01*
X110989880Y-83161309D01*
X111037500Y-83304166D01*
X111132738Y-83399404D01*
X111227976Y-83447023D01*
X111418452Y-83494642D01*
X111561309Y-83494642D01*
X111751785Y-83447023D01*
X111847023Y-83399404D01*
X111942261Y-83304166D01*
X111989880Y-83161309D01*
X111989880Y-82923214D01*
X111989880Y-84447023D02*
X111989880Y-83875595D01*
X111989880Y-84161309D02*
X110989880Y-84161309D01*
X111132738Y-84066071D01*
X111227976Y-83970833D01*
X111275595Y-83875595D01*
X111989880Y-85399404D02*
X111989880Y-84827976D01*
X111989880Y-85113690D02*
X110989880Y-85113690D01*
X111132738Y-85018452D01*
X111227976Y-84923214D01*
X111275595Y-84827976D01*
%TO.C,D10*%
X92939880Y-140073214D02*
X91939880Y-140073214D01*
X91939880Y-140311309D01*
X91987500Y-140454166D01*
X92082738Y-140549404D01*
X92177976Y-140597023D01*
X92368452Y-140644642D01*
X92511309Y-140644642D01*
X92701785Y-140597023D01*
X92797023Y-140549404D01*
X92892261Y-140454166D01*
X92939880Y-140311309D01*
X92939880Y-140073214D01*
X92939880Y-141597023D02*
X92939880Y-141025595D01*
X92939880Y-141311309D02*
X91939880Y-141311309D01*
X92082738Y-141216071D01*
X92177976Y-141120833D01*
X92225595Y-141025595D01*
X91939880Y-142216071D02*
X91939880Y-142311309D01*
X91987500Y-142406547D01*
X92035119Y-142454166D01*
X92130357Y-142501785D01*
X92320833Y-142549404D01*
X92558928Y-142549404D01*
X92749404Y-142501785D01*
X92844642Y-142454166D01*
X92892261Y-142406547D01*
X92939880Y-142311309D01*
X92939880Y-142216071D01*
X92892261Y-142120833D01*
X92844642Y-142073214D01*
X92749404Y-142025595D01*
X92558928Y-141977976D01*
X92320833Y-141977976D01*
X92130357Y-142025595D01*
X92035119Y-142073214D01*
X91987500Y-142120833D01*
X91939880Y-142216071D01*
%TO.C,D9*%
X92939880Y-121499404D02*
X91939880Y-121499404D01*
X91939880Y-121737500D01*
X91987500Y-121880357D01*
X92082738Y-121975595D01*
X92177976Y-122023214D01*
X92368452Y-122070833D01*
X92511309Y-122070833D01*
X92701785Y-122023214D01*
X92797023Y-121975595D01*
X92892261Y-121880357D01*
X92939880Y-121737500D01*
X92939880Y-121499404D01*
X92939880Y-122547023D02*
X92939880Y-122737500D01*
X92892261Y-122832738D01*
X92844642Y-122880357D01*
X92701785Y-122975595D01*
X92511309Y-123023214D01*
X92130357Y-123023214D01*
X92035119Y-122975595D01*
X91987500Y-122927976D01*
X91939880Y-122832738D01*
X91939880Y-122642261D01*
X91987500Y-122547023D01*
X92035119Y-122499404D01*
X92130357Y-122451785D01*
X92368452Y-122451785D01*
X92463690Y-122499404D01*
X92511309Y-122547023D01*
X92558928Y-122642261D01*
X92558928Y-122832738D01*
X92511309Y-122927976D01*
X92463690Y-122975595D01*
X92368452Y-123023214D01*
%TO.C,D8*%
X92939880Y-102449404D02*
X91939880Y-102449404D01*
X91939880Y-102687500D01*
X91987500Y-102830357D01*
X92082738Y-102925595D01*
X92177976Y-102973214D01*
X92368452Y-103020833D01*
X92511309Y-103020833D01*
X92701785Y-102973214D01*
X92797023Y-102925595D01*
X92892261Y-102830357D01*
X92939880Y-102687500D01*
X92939880Y-102449404D01*
X92368452Y-103592261D02*
X92320833Y-103497023D01*
X92273214Y-103449404D01*
X92177976Y-103401785D01*
X92130357Y-103401785D01*
X92035119Y-103449404D01*
X91987500Y-103497023D01*
X91939880Y-103592261D01*
X91939880Y-103782738D01*
X91987500Y-103877976D01*
X92035119Y-103925595D01*
X92130357Y-103973214D01*
X92177976Y-103973214D01*
X92273214Y-103925595D01*
X92320833Y-103877976D01*
X92368452Y-103782738D01*
X92368452Y-103592261D01*
X92416071Y-103497023D01*
X92463690Y-103449404D01*
X92558928Y-103401785D01*
X92749404Y-103401785D01*
X92844642Y-103449404D01*
X92892261Y-103497023D01*
X92939880Y-103592261D01*
X92939880Y-103782738D01*
X92892261Y-103877976D01*
X92844642Y-103925595D01*
X92749404Y-103973214D01*
X92558928Y-103973214D01*
X92463690Y-103925595D01*
X92416071Y-103877976D01*
X92368452Y-103782738D01*
%TO.C,D7*%
X92939880Y-83399404D02*
X91939880Y-83399404D01*
X91939880Y-83637500D01*
X91987500Y-83780357D01*
X92082738Y-83875595D01*
X92177976Y-83923214D01*
X92368452Y-83970833D01*
X92511309Y-83970833D01*
X92701785Y-83923214D01*
X92797023Y-83875595D01*
X92892261Y-83780357D01*
X92939880Y-83637500D01*
X92939880Y-83399404D01*
X91939880Y-84304166D02*
X91939880Y-84970833D01*
X92939880Y-84542261D01*
%TO.C,D6*%
X83414880Y-159599404D02*
X82414880Y-159599404D01*
X82414880Y-159837500D01*
X82462500Y-159980357D01*
X82557738Y-160075595D01*
X82652976Y-160123214D01*
X82843452Y-160170833D01*
X82986309Y-160170833D01*
X83176785Y-160123214D01*
X83272023Y-160075595D01*
X83367261Y-159980357D01*
X83414880Y-159837500D01*
X83414880Y-159599404D01*
X82414880Y-161027976D02*
X82414880Y-160837500D01*
X82462500Y-160742261D01*
X82510119Y-160694642D01*
X82652976Y-160599404D01*
X82843452Y-160551785D01*
X83224404Y-160551785D01*
X83319642Y-160599404D01*
X83367261Y-160647023D01*
X83414880Y-160742261D01*
X83414880Y-160932738D01*
X83367261Y-161027976D01*
X83319642Y-161075595D01*
X83224404Y-161123214D01*
X82986309Y-161123214D01*
X82891071Y-161075595D01*
X82843452Y-161027976D01*
X82795833Y-160932738D01*
X82795833Y-160742261D01*
X82843452Y-160647023D01*
X82891071Y-160599404D01*
X82986309Y-160551785D01*
%TO.C,D5*%
X73889880Y-140549404D02*
X72889880Y-140549404D01*
X72889880Y-140787500D01*
X72937500Y-140930357D01*
X73032738Y-141025595D01*
X73127976Y-141073214D01*
X73318452Y-141120833D01*
X73461309Y-141120833D01*
X73651785Y-141073214D01*
X73747023Y-141025595D01*
X73842261Y-140930357D01*
X73889880Y-140787500D01*
X73889880Y-140549404D01*
X72889880Y-142025595D02*
X72889880Y-141549404D01*
X73366071Y-141501785D01*
X73318452Y-141549404D01*
X73270833Y-141644642D01*
X73270833Y-141882738D01*
X73318452Y-141977976D01*
X73366071Y-142025595D01*
X73461309Y-142073214D01*
X73699404Y-142073214D01*
X73794642Y-142025595D01*
X73842261Y-141977976D01*
X73889880Y-141882738D01*
X73889880Y-141644642D01*
X73842261Y-141549404D01*
X73794642Y-141501785D01*
%TO.C,D4*%
X73889880Y-121499404D02*
X72889880Y-121499404D01*
X72889880Y-121737500D01*
X72937500Y-121880357D01*
X73032738Y-121975595D01*
X73127976Y-122023214D01*
X73318452Y-122070833D01*
X73461309Y-122070833D01*
X73651785Y-122023214D01*
X73747023Y-121975595D01*
X73842261Y-121880357D01*
X73889880Y-121737500D01*
X73889880Y-121499404D01*
X73223214Y-122927976D02*
X73889880Y-122927976D01*
X72842261Y-122689880D02*
X73556547Y-122451785D01*
X73556547Y-123070833D01*
%TO.C,D3*%
X73889880Y-102449404D02*
X72889880Y-102449404D01*
X72889880Y-102687500D01*
X72937500Y-102830357D01*
X73032738Y-102925595D01*
X73127976Y-102973214D01*
X73318452Y-103020833D01*
X73461309Y-103020833D01*
X73651785Y-102973214D01*
X73747023Y-102925595D01*
X73842261Y-102830357D01*
X73889880Y-102687500D01*
X73889880Y-102449404D01*
X72889880Y-103354166D02*
X72889880Y-103973214D01*
X73270833Y-103639880D01*
X73270833Y-103782738D01*
X73318452Y-103877976D01*
X73366071Y-103925595D01*
X73461309Y-103973214D01*
X73699404Y-103973214D01*
X73794642Y-103925595D01*
X73842261Y-103877976D01*
X73889880Y-103782738D01*
X73889880Y-103497023D01*
X73842261Y-103401785D01*
X73794642Y-103354166D01*
%TO.C,D2*%
X73889880Y-83399404D02*
X72889880Y-83399404D01*
X72889880Y-83637500D01*
X72937500Y-83780357D01*
X73032738Y-83875595D01*
X73127976Y-83923214D01*
X73318452Y-83970833D01*
X73461309Y-83970833D01*
X73651785Y-83923214D01*
X73747023Y-83875595D01*
X73842261Y-83780357D01*
X73889880Y-83637500D01*
X73889880Y-83399404D01*
X72985119Y-84351785D02*
X72937500Y-84399404D01*
X72889880Y-84494642D01*
X72889880Y-84732738D01*
X72937500Y-84827976D01*
X72985119Y-84875595D01*
X73080357Y-84923214D01*
X73175595Y-84923214D01*
X73318452Y-84875595D01*
X73889880Y-84304166D01*
X73889880Y-84923214D01*
%TO.C,D1*%
X73889880Y-55459404D02*
X72889880Y-55459404D01*
X72889880Y-55697500D01*
X72937500Y-55840357D01*
X73032738Y-55935595D01*
X73127976Y-55983214D01*
X73318452Y-56030833D01*
X73461309Y-56030833D01*
X73651785Y-55983214D01*
X73747023Y-55935595D01*
X73842261Y-55840357D01*
X73889880Y-55697500D01*
X73889880Y-55459404D01*
X73889880Y-56983214D02*
X73889880Y-56411785D01*
X73889880Y-56697500D02*
X72889880Y-56697500D01*
X73032738Y-56602261D01*
X73127976Y-56507023D01*
X73175595Y-56411785D01*
%TO.C,C18*%
X116530357Y-145675892D02*
X116577976Y-145723511D01*
X116720833Y-145771130D01*
X116816071Y-145771130D01*
X116958928Y-145723511D01*
X117054166Y-145628273D01*
X117101785Y-145533035D01*
X117149404Y-145342559D01*
X117149404Y-145199702D01*
X117101785Y-145009226D01*
X117054166Y-144913988D01*
X116958928Y-144818750D01*
X116816071Y-144771130D01*
X116720833Y-144771130D01*
X116577976Y-144818750D01*
X116530357Y-144866369D01*
X115577976Y-145771130D02*
X116149404Y-145771130D01*
X115863690Y-145771130D02*
X115863690Y-144771130D01*
X115958928Y-144913988D01*
X116054166Y-145009226D01*
X116149404Y-145056845D01*
X115006547Y-145199702D02*
X115101785Y-145152083D01*
X115149404Y-145104464D01*
X115197023Y-145009226D01*
X115197023Y-144961607D01*
X115149404Y-144866369D01*
X115101785Y-144818750D01*
X115006547Y-144771130D01*
X114816071Y-144771130D01*
X114720833Y-144818750D01*
X114673214Y-144866369D01*
X114625595Y-144961607D01*
X114625595Y-145009226D01*
X114673214Y-145104464D01*
X114720833Y-145152083D01*
X114816071Y-145199702D01*
X115006547Y-145199702D01*
X115101785Y-145247321D01*
X115149404Y-145294940D01*
X115197023Y-145390178D01*
X115197023Y-145580654D01*
X115149404Y-145675892D01*
X115101785Y-145723511D01*
X115006547Y-145771130D01*
X114816071Y-145771130D01*
X114720833Y-145723511D01*
X114673214Y-145675892D01*
X114625595Y-145580654D01*
X114625595Y-145390178D01*
X114673214Y-145294940D01*
X114720833Y-145247321D01*
X114816071Y-145199702D01*
%TO.C,C17*%
X116530357Y-104275892D02*
X116577976Y-104323511D01*
X116720833Y-104371130D01*
X116816071Y-104371130D01*
X116958928Y-104323511D01*
X117054166Y-104228273D01*
X117101785Y-104133035D01*
X117149404Y-103942559D01*
X117149404Y-103799702D01*
X117101785Y-103609226D01*
X117054166Y-103513988D01*
X116958928Y-103418750D01*
X116816071Y-103371130D01*
X116720833Y-103371130D01*
X116577976Y-103418750D01*
X116530357Y-103466369D01*
X115577976Y-104371130D02*
X116149404Y-104371130D01*
X115863690Y-104371130D02*
X115863690Y-103371130D01*
X115958928Y-103513988D01*
X116054166Y-103609226D01*
X116149404Y-103656845D01*
X115244642Y-103371130D02*
X114577976Y-103371130D01*
X115006547Y-104371130D01*
%TO.C,C16*%
X115513392Y-88765142D02*
X115561011Y-88717523D01*
X115608630Y-88574666D01*
X115608630Y-88479428D01*
X115561011Y-88336571D01*
X115465773Y-88241333D01*
X115370535Y-88193714D01*
X115180059Y-88146095D01*
X115037202Y-88146095D01*
X114846726Y-88193714D01*
X114751488Y-88241333D01*
X114656250Y-88336571D01*
X114608630Y-88479428D01*
X114608630Y-88574666D01*
X114656250Y-88717523D01*
X114703869Y-88765142D01*
X115608630Y-89717523D02*
X115608630Y-89146095D01*
X115608630Y-89431809D02*
X114608630Y-89431809D01*
X114751488Y-89336571D01*
X114846726Y-89241333D01*
X114894345Y-89146095D01*
X114608630Y-90574666D02*
X114608630Y-90384190D01*
X114656250Y-90288952D01*
X114703869Y-90241333D01*
X114846726Y-90146095D01*
X115037202Y-90098476D01*
X115418154Y-90098476D01*
X115513392Y-90146095D01*
X115561011Y-90193714D01*
X115608630Y-90288952D01*
X115608630Y-90479428D01*
X115561011Y-90574666D01*
X115513392Y-90622285D01*
X115418154Y-90669904D01*
X115180059Y-90669904D01*
X115084821Y-90622285D01*
X115037202Y-90574666D01*
X114989583Y-90479428D01*
X114989583Y-90288952D01*
X115037202Y-90193714D01*
X115084821Y-90146095D01*
X115180059Y-90098476D01*
%TO.C,C15*%
X96463392Y-164965142D02*
X96511011Y-164917523D01*
X96558630Y-164774666D01*
X96558630Y-164679428D01*
X96511011Y-164536571D01*
X96415773Y-164441333D01*
X96320535Y-164393714D01*
X96130059Y-164346095D01*
X95987202Y-164346095D01*
X95796726Y-164393714D01*
X95701488Y-164441333D01*
X95606250Y-164536571D01*
X95558630Y-164679428D01*
X95558630Y-164774666D01*
X95606250Y-164917523D01*
X95653869Y-164965142D01*
X96558630Y-165917523D02*
X96558630Y-165346095D01*
X96558630Y-165631809D02*
X95558630Y-165631809D01*
X95701488Y-165536571D01*
X95796726Y-165441333D01*
X95844345Y-165346095D01*
X95558630Y-166822285D02*
X95558630Y-166346095D01*
X96034821Y-166298476D01*
X95987202Y-166346095D01*
X95939583Y-166441333D01*
X95939583Y-166679428D01*
X95987202Y-166774666D01*
X96034821Y-166822285D01*
X96130059Y-166869904D01*
X96368154Y-166869904D01*
X96463392Y-166822285D01*
X96511011Y-166774666D01*
X96558630Y-166679428D01*
X96558630Y-166441333D01*
X96511011Y-166346095D01*
X96463392Y-166298476D01*
%TO.C,C14*%
X96463392Y-145915142D02*
X96511011Y-145867523D01*
X96558630Y-145724666D01*
X96558630Y-145629428D01*
X96511011Y-145486571D01*
X96415773Y-145391333D01*
X96320535Y-145343714D01*
X96130059Y-145296095D01*
X95987202Y-145296095D01*
X95796726Y-145343714D01*
X95701488Y-145391333D01*
X95606250Y-145486571D01*
X95558630Y-145629428D01*
X95558630Y-145724666D01*
X95606250Y-145867523D01*
X95653869Y-145915142D01*
X96558630Y-146867523D02*
X96558630Y-146296095D01*
X96558630Y-146581809D02*
X95558630Y-146581809D01*
X95701488Y-146486571D01*
X95796726Y-146391333D01*
X95844345Y-146296095D01*
X95891964Y-147724666D02*
X96558630Y-147724666D01*
X95511011Y-147486571D02*
X96225297Y-147248476D01*
X96225297Y-147867523D01*
%TO.C,C13*%
X96463392Y-126865142D02*
X96511011Y-126817523D01*
X96558630Y-126674666D01*
X96558630Y-126579428D01*
X96511011Y-126436571D01*
X96415773Y-126341333D01*
X96320535Y-126293714D01*
X96130059Y-126246095D01*
X95987202Y-126246095D01*
X95796726Y-126293714D01*
X95701488Y-126341333D01*
X95606250Y-126436571D01*
X95558630Y-126579428D01*
X95558630Y-126674666D01*
X95606250Y-126817523D01*
X95653869Y-126865142D01*
X96558630Y-127817523D02*
X96558630Y-127246095D01*
X96558630Y-127531809D02*
X95558630Y-127531809D01*
X95701488Y-127436571D01*
X95796726Y-127341333D01*
X95844345Y-127246095D01*
X95558630Y-128150857D02*
X95558630Y-128769904D01*
X95939583Y-128436571D01*
X95939583Y-128579428D01*
X95987202Y-128674666D01*
X96034821Y-128722285D01*
X96130059Y-128769904D01*
X96368154Y-128769904D01*
X96463392Y-128722285D01*
X96511011Y-128674666D01*
X96558630Y-128579428D01*
X96558630Y-128293714D01*
X96511011Y-128198476D01*
X96463392Y-128150857D01*
%TO.C,C12*%
X96463392Y-107815142D02*
X96511011Y-107767523D01*
X96558630Y-107624666D01*
X96558630Y-107529428D01*
X96511011Y-107386571D01*
X96415773Y-107291333D01*
X96320535Y-107243714D01*
X96130059Y-107196095D01*
X95987202Y-107196095D01*
X95796726Y-107243714D01*
X95701488Y-107291333D01*
X95606250Y-107386571D01*
X95558630Y-107529428D01*
X95558630Y-107624666D01*
X95606250Y-107767523D01*
X95653869Y-107815142D01*
X96558630Y-108767523D02*
X96558630Y-108196095D01*
X96558630Y-108481809D02*
X95558630Y-108481809D01*
X95701488Y-108386571D01*
X95796726Y-108291333D01*
X95844345Y-108196095D01*
X95653869Y-109148476D02*
X95606250Y-109196095D01*
X95558630Y-109291333D01*
X95558630Y-109529428D01*
X95606250Y-109624666D01*
X95653869Y-109672285D01*
X95749107Y-109719904D01*
X95844345Y-109719904D01*
X95987202Y-109672285D01*
X96558630Y-109100857D01*
X96558630Y-109719904D01*
%TO.C,C11*%
X96463392Y-88765142D02*
X96511011Y-88717523D01*
X96558630Y-88574666D01*
X96558630Y-88479428D01*
X96511011Y-88336571D01*
X96415773Y-88241333D01*
X96320535Y-88193714D01*
X96130059Y-88146095D01*
X95987202Y-88146095D01*
X95796726Y-88193714D01*
X95701488Y-88241333D01*
X95606250Y-88336571D01*
X95558630Y-88479428D01*
X95558630Y-88574666D01*
X95606250Y-88717523D01*
X95653869Y-88765142D01*
X96558630Y-89717523D02*
X96558630Y-89146095D01*
X96558630Y-89431809D02*
X95558630Y-89431809D01*
X95701488Y-89336571D01*
X95796726Y-89241333D01*
X95844345Y-89146095D01*
X96558630Y-90669904D02*
X96558630Y-90098476D01*
X96558630Y-90384190D02*
X95558630Y-90384190D01*
X95701488Y-90288952D01*
X95796726Y-90193714D01*
X95844345Y-90098476D01*
%TO.C,C10*%
X77413392Y-145915142D02*
X77461011Y-145867523D01*
X77508630Y-145724666D01*
X77508630Y-145629428D01*
X77461011Y-145486571D01*
X77365773Y-145391333D01*
X77270535Y-145343714D01*
X77080059Y-145296095D01*
X76937202Y-145296095D01*
X76746726Y-145343714D01*
X76651488Y-145391333D01*
X76556250Y-145486571D01*
X76508630Y-145629428D01*
X76508630Y-145724666D01*
X76556250Y-145867523D01*
X76603869Y-145915142D01*
X77508630Y-146867523D02*
X77508630Y-146296095D01*
X77508630Y-146581809D02*
X76508630Y-146581809D01*
X76651488Y-146486571D01*
X76746726Y-146391333D01*
X76794345Y-146296095D01*
X76508630Y-147486571D02*
X76508630Y-147581809D01*
X76556250Y-147677047D01*
X76603869Y-147724666D01*
X76699107Y-147772285D01*
X76889583Y-147819904D01*
X77127678Y-147819904D01*
X77318154Y-147772285D01*
X77413392Y-147724666D01*
X77461011Y-147677047D01*
X77508630Y-147581809D01*
X77508630Y-147486571D01*
X77461011Y-147391333D01*
X77413392Y-147343714D01*
X77318154Y-147296095D01*
X77127678Y-147248476D01*
X76889583Y-147248476D01*
X76699107Y-147296095D01*
X76603869Y-147343714D01*
X76556250Y-147391333D01*
X76508630Y-147486571D01*
%TO.C,C9*%
X77413392Y-127341333D02*
X77461011Y-127293714D01*
X77508630Y-127150857D01*
X77508630Y-127055619D01*
X77461011Y-126912761D01*
X77365773Y-126817523D01*
X77270535Y-126769904D01*
X77080059Y-126722285D01*
X76937202Y-126722285D01*
X76746726Y-126769904D01*
X76651488Y-126817523D01*
X76556250Y-126912761D01*
X76508630Y-127055619D01*
X76508630Y-127150857D01*
X76556250Y-127293714D01*
X76603869Y-127341333D01*
X77508630Y-127817523D02*
X77508630Y-128008000D01*
X77461011Y-128103238D01*
X77413392Y-128150857D01*
X77270535Y-128246095D01*
X77080059Y-128293714D01*
X76699107Y-128293714D01*
X76603869Y-128246095D01*
X76556250Y-128198476D01*
X76508630Y-128103238D01*
X76508630Y-127912761D01*
X76556250Y-127817523D01*
X76603869Y-127769904D01*
X76699107Y-127722285D01*
X76937202Y-127722285D01*
X77032440Y-127769904D01*
X77080059Y-127817523D01*
X77127678Y-127912761D01*
X77127678Y-128103238D01*
X77080059Y-128198476D01*
X77032440Y-128246095D01*
X76937202Y-128293714D01*
%TO.C,C8*%
X77413392Y-108291333D02*
X77461011Y-108243714D01*
X77508630Y-108100857D01*
X77508630Y-108005619D01*
X77461011Y-107862761D01*
X77365773Y-107767523D01*
X77270535Y-107719904D01*
X77080059Y-107672285D01*
X76937202Y-107672285D01*
X76746726Y-107719904D01*
X76651488Y-107767523D01*
X76556250Y-107862761D01*
X76508630Y-108005619D01*
X76508630Y-108100857D01*
X76556250Y-108243714D01*
X76603869Y-108291333D01*
X76937202Y-108862761D02*
X76889583Y-108767523D01*
X76841964Y-108719904D01*
X76746726Y-108672285D01*
X76699107Y-108672285D01*
X76603869Y-108719904D01*
X76556250Y-108767523D01*
X76508630Y-108862761D01*
X76508630Y-109053238D01*
X76556250Y-109148476D01*
X76603869Y-109196095D01*
X76699107Y-109243714D01*
X76746726Y-109243714D01*
X76841964Y-109196095D01*
X76889583Y-109148476D01*
X76937202Y-109053238D01*
X76937202Y-108862761D01*
X76984821Y-108767523D01*
X77032440Y-108719904D01*
X77127678Y-108672285D01*
X77318154Y-108672285D01*
X77413392Y-108719904D01*
X77461011Y-108767523D01*
X77508630Y-108862761D01*
X77508630Y-109053238D01*
X77461011Y-109148476D01*
X77413392Y-109196095D01*
X77318154Y-109243714D01*
X77127678Y-109243714D01*
X77032440Y-109196095D01*
X76984821Y-109148476D01*
X76937202Y-109053238D01*
%TO.C,C7*%
X77413392Y-89241333D02*
X77461011Y-89193714D01*
X77508630Y-89050857D01*
X77508630Y-88955619D01*
X77461011Y-88812761D01*
X77365773Y-88717523D01*
X77270535Y-88669904D01*
X77080059Y-88622285D01*
X76937202Y-88622285D01*
X76746726Y-88669904D01*
X76651488Y-88717523D01*
X76556250Y-88812761D01*
X76508630Y-88955619D01*
X76508630Y-89050857D01*
X76556250Y-89193714D01*
X76603869Y-89241333D01*
X76508630Y-89574666D02*
X76508630Y-90241333D01*
X77508630Y-89812761D01*
%TO.C,C6*%
X67888392Y-165187333D02*
X67936011Y-165139714D01*
X67983630Y-164996857D01*
X67983630Y-164901619D01*
X67936011Y-164758761D01*
X67840773Y-164663523D01*
X67745535Y-164615904D01*
X67555059Y-164568285D01*
X67412202Y-164568285D01*
X67221726Y-164615904D01*
X67126488Y-164663523D01*
X67031250Y-164758761D01*
X66983630Y-164901619D01*
X66983630Y-164996857D01*
X67031250Y-165139714D01*
X67078869Y-165187333D01*
X66983630Y-166044476D02*
X66983630Y-165854000D01*
X67031250Y-165758761D01*
X67078869Y-165711142D01*
X67221726Y-165615904D01*
X67412202Y-165568285D01*
X67793154Y-165568285D01*
X67888392Y-165615904D01*
X67936011Y-165663523D01*
X67983630Y-165758761D01*
X67983630Y-165949238D01*
X67936011Y-166044476D01*
X67888392Y-166092095D01*
X67793154Y-166139714D01*
X67555059Y-166139714D01*
X67459821Y-166092095D01*
X67412202Y-166044476D01*
X67364583Y-165949238D01*
X67364583Y-165758761D01*
X67412202Y-165663523D01*
X67459821Y-165615904D01*
X67555059Y-165568285D01*
%TO.C,C5*%
X58363392Y-146391333D02*
X58411011Y-146343714D01*
X58458630Y-146200857D01*
X58458630Y-146105619D01*
X58411011Y-145962761D01*
X58315773Y-145867523D01*
X58220535Y-145819904D01*
X58030059Y-145772285D01*
X57887202Y-145772285D01*
X57696726Y-145819904D01*
X57601488Y-145867523D01*
X57506250Y-145962761D01*
X57458630Y-146105619D01*
X57458630Y-146200857D01*
X57506250Y-146343714D01*
X57553869Y-146391333D01*
X57458630Y-147296095D02*
X57458630Y-146819904D01*
X57934821Y-146772285D01*
X57887202Y-146819904D01*
X57839583Y-146915142D01*
X57839583Y-147153238D01*
X57887202Y-147248476D01*
X57934821Y-147296095D01*
X58030059Y-147343714D01*
X58268154Y-147343714D01*
X58363392Y-147296095D01*
X58411011Y-147248476D01*
X58458630Y-147153238D01*
X58458630Y-146915142D01*
X58411011Y-146819904D01*
X58363392Y-146772285D01*
%TO.C,C4*%
X58363392Y-127341333D02*
X58411011Y-127293714D01*
X58458630Y-127150857D01*
X58458630Y-127055619D01*
X58411011Y-126912761D01*
X58315773Y-126817523D01*
X58220535Y-126769904D01*
X58030059Y-126722285D01*
X57887202Y-126722285D01*
X57696726Y-126769904D01*
X57601488Y-126817523D01*
X57506250Y-126912761D01*
X57458630Y-127055619D01*
X57458630Y-127150857D01*
X57506250Y-127293714D01*
X57553869Y-127341333D01*
X57791964Y-128198476D02*
X58458630Y-128198476D01*
X57411011Y-127960380D02*
X58125297Y-127722285D01*
X58125297Y-128341333D01*
%TO.C,C3*%
X59157142Y-108291333D02*
X59204761Y-108243714D01*
X59252380Y-108100857D01*
X59252380Y-108005619D01*
X59204761Y-107862761D01*
X59109523Y-107767523D01*
X59014285Y-107719904D01*
X58823809Y-107672285D01*
X58680952Y-107672285D01*
X58490476Y-107719904D01*
X58395238Y-107767523D01*
X58300000Y-107862761D01*
X58252380Y-108005619D01*
X58252380Y-108100857D01*
X58300000Y-108243714D01*
X58347619Y-108291333D01*
X58252380Y-108624666D02*
X58252380Y-109243714D01*
X58633333Y-108910380D01*
X58633333Y-109053238D01*
X58680952Y-109148476D01*
X58728571Y-109196095D01*
X58823809Y-109243714D01*
X59061904Y-109243714D01*
X59157142Y-109196095D01*
X59204761Y-109148476D01*
X59252380Y-109053238D01*
X59252380Y-108767523D01*
X59204761Y-108672285D01*
X59157142Y-108624666D01*
%TO.C,C2*%
X58363392Y-89241333D02*
X58411011Y-89193714D01*
X58458630Y-89050857D01*
X58458630Y-88955619D01*
X58411011Y-88812761D01*
X58315773Y-88717523D01*
X58220535Y-88669904D01*
X58030059Y-88622285D01*
X57887202Y-88622285D01*
X57696726Y-88669904D01*
X57601488Y-88717523D01*
X57506250Y-88812761D01*
X57458630Y-88955619D01*
X57458630Y-89050857D01*
X57506250Y-89193714D01*
X57553869Y-89241333D01*
X57553869Y-89622285D02*
X57506250Y-89669904D01*
X57458630Y-89765142D01*
X57458630Y-90003238D01*
X57506250Y-90098476D01*
X57553869Y-90146095D01*
X57649107Y-90193714D01*
X57744345Y-90193714D01*
X57887202Y-90146095D01*
X58458630Y-89574666D01*
X58458630Y-90193714D01*
%TO.C,C1*%
X55857142Y-61301333D02*
X55904761Y-61253714D01*
X55952380Y-61110857D01*
X55952380Y-61015619D01*
X55904761Y-60872761D01*
X55809523Y-60777523D01*
X55714285Y-60729904D01*
X55523809Y-60682285D01*
X55380952Y-60682285D01*
X55190476Y-60729904D01*
X55095238Y-60777523D01*
X55000000Y-60872761D01*
X54952380Y-61015619D01*
X54952380Y-61110857D01*
X55000000Y-61253714D01*
X55047619Y-61301333D01*
X55952380Y-62253714D02*
X55952380Y-61682285D01*
X55952380Y-61968000D02*
X54952380Y-61968000D01*
X55095238Y-61872761D01*
X55190476Y-61777523D01*
X55238095Y-61682285D01*
%TD*%
M02*
